{"glyphs":{"0":{"ha":789,"x_min":60,"x_max":729,"o":"m 729 482 q 640 109 729 239 q 394 -21 551 -21 q 149 109 238 -21 q 60 482 60 239 q 83 697 60 603 q 149 854 106 790 q 255 951 193 918 q 394 985 317 985 q 640 855 551 985 q 729 482 729 725 m 556 482 q 547 622 556 557 q 520 735 539 688 q 471 811 501 783 q 394 839 440 839 q 317 811 349 839 q 267 735 286 783 q 241 622 249 688 q 233 482 233 557 q 241 342 233 407 q 267 228 249 276 q 317 153 286 181 q 394 125 349 125 q 471 153 440 125 q 520 228 501 181 q 547 342 539 276 q 556 482 556 407 z "},"1":{"ha":789,"x_min":125,"x_max":549,"o":"m 125 763 q 287 844 206 794 q 431 963 368 894 l 549 963 l 549 0 l 381 0 l 381 738 q 286 681 343 708 q 176 635 229 653 l 125 763 z "},"2":{"ha":789,"x_min":63,"x_max":699,"o":"m 668 713 q 647 615 668 663 q 594 522 626 567 q 519 434 561 476 q 436 351 478 392 q 386 301 414 331 q 333 243 358 272 q 290 187 308 214 q 271 142 272 160 l 699 142 l 699 0 l 86 0 q 85 27 85 11 q 85 51 85 43 q 106 174 85 118 q 163 279 128 231 q 240 371 197 328 q 326 456 283 414 q 390 518 360 488 q 444 578 421 549 q 481 640 467 608 q 494 704 494 671 q 453 807 494 776 q 351 838 411 838 q 279 826 313 838 q 220 800 246 815 q 175 769 194 785 q 146 743 156 753 l 63 861 q 199 951 121 917 q 368 985 278 985 q 595 912 522 985 q 668 713 668 839 z "},"3":{"ha":789,"x_min":67,"x_max":701,"o":"m 328 -21 q 251 -16 290 -21 q 176 -3 211 -11 q 111 13 140 4 q 67 31 82 22 l 100 174 q 185 142 129 160 q 322 125 240 125 q 481 167 432 125 q 529 281 529 210 q 510 357 529 326 q 459 406 492 388 q 384 433 426 425 q 294 440 342 440 l 238 440 l 238 576 l 307 576 q 372 583 339 576 q 431 605 404 589 q 474 647 457 621 q 490 715 490 674 q 478 772 490 749 q 445 811 465 796 q 399 833 425 826 q 343 840 372 840 q 232 822 281 840 q 146 779 183 803 l 85 904 q 132 931 104 917 q 194 957 160 944 q 267 977 228 969 q 349 985 306 985 q 488 965 429 985 q 584 910 546 946 q 641 827 622 875 q 660 722 660 779 q 623 603 660 656 q 528 522 586 550 q 652 435 603 496 q 701 278 701 374 q 679 159 701 214 q 611 65 657 104 q 495 2 565 25 q 328 -21 425 -21 z "},"4":{"ha":789,"x_min":46,"x_max":740,"o":"m 468 756 q 399 669 435 715 q 331 574 364 624 q 267 472 297 524 q 211 368 236 419 l 468 368 l 468 756 m 632 963 l 632 368 l 740 368 l 740 231 l 632 231 l 632 0 l 468 0 l 468 231 l 46 231 l 46 350 q 120 490 74 411 q 224 653 167 569 q 344 817 281 736 q 472 963 408 897 l 632 963 z "},"5":{"ha":789,"x_min":79,"x_max":703,"o":"m 532 275 q 514 357 532 321 q 451 418 496 393 q 330 456 406 443 q 139 468 254 468 q 163 722 154 601 q 176 963 171 842 l 668 963 l 668 821 l 319 821 q 316 767 318 797 q 312 707 314 738 q 307 649 310 676 q 301 601 304 621 q 605 508 507 590 q 703 282 703 425 q 681 161 703 217 q 613 65 658 106 q 497 2 567 25 q 335 -21 428 -21 q 258 -15 297 -21 q 184 -2 219 -10 q 121 14 149 6 q 79 29 93 22 l 111 171 q 195 141 140 157 q 329 125 250 125 q 422 137 383 125 q 485 169 461 149 q 521 217 510 190 q 532 275 532 244 z "},"6":{"ha":789,"x_min":72,"x_max":729,"o":"m 392 468 q 314 461 351 468 q 246 440 276 454 q 244 416 244 429 q 243 390 243 403 q 251 285 243 335 q 277 199 258 236 q 328 141 296 163 q 410 119 361 119 q 478 136 450 119 q 525 179 507 153 q 551 237 543 206 q 560 297 560 268 q 519 424 560 381 q 392 468 479 468 m 413 601 q 559 577 499 601 q 657 511 619 553 q 712 415 694 469 q 729 300 729 360 q 710 189 729 246 q 652 85 692 132 q 553 9 613 39 q 411 -21 493 -21 q 159 88 246 -21 q 72 389 72 197 q 113 635 72 528 q 230 817 154 743 q 413 928 306 890 q 656 968 521 967 l 665 829 q 525 813 590 828 q 408 768 460 799 q 320 689 357 738 q 264 569 283 640 q 413 601 332 601 z "},"7":{"ha":789,"x_min":74,"x_max":717,"o":"m 214 0 q 251 222 222 106 q 323 449 281 339 q 416 656 365 560 q 517 818 467 753 l 74 818 l 74 963 l 717 963 l 717 835 q 617 694 671 783 q 514 494 563 606 q 430 254 465 382 q 386 0 394 126 l 214 0 z "},"8":{"ha":789,"x_min":67,"x_max":722,"o":"m 722 258 q 701 147 722 199 q 639 58 681 96 q 535 0 597 21 q 393 -21 474 -21 q 236 6 299 -21 q 136 72 174 32 q 83 159 99 113 q 67 247 67 206 q 78 324 67 289 q 111 390 90 360 q 158 444 132 419 q 214 489 185 469 q 119 585 150 533 q 88 713 88 638 q 109 816 88 767 q 171 903 131 865 q 268 963 211 940 q 394 985 325 985 q 534 961 476 985 q 628 900 592 938 q 682 817 665 863 q 699 728 699 771 q 657 592 699 651 q 561 499 615 533 q 683 396 643 454 q 722 258 722 338 m 232 250 q 240 206 232 229 q 268 163 249 182 q 318 130 288 143 q 394 117 349 117 q 467 128 436 117 q 517 158 497 139 q 546 201 536 176 q 556 250 556 225 q 540 318 556 289 q 497 369 525 347 q 429 406 468 390 q 343 435 390 422 q 263 358 293 403 q 232 250 232 313 m 535 725 q 527 765 535 743 q 502 804 519 786 q 458 835 485 822 q 394 847 432 847 q 330 835 357 847 q 286 805 303 824 q 261 765 269 786 q 253 722 253 743 q 292 622 253 669 q 425 547 332 575 q 506 620 476 579 q 535 725 535 661 z "},"9":{"ha":789,"x_min":60,"x_max":718,"o":"m 399 499 q 478 506 439 499 q 544 529 517 514 q 546 556 546 544 q 546 575 546 567 q 538 680 546 631 q 512 766 531 729 q 460 824 493 803 q 379 846 428 846 q 310 829 339 846 q 264 786 282 813 q 238 729 246 760 q 229 669 229 699 q 270 542 229 585 q 399 499 311 499 m 531 397 q 457 374 497 382 q 379 365 417 365 q 233 388 293 365 q 134 452 172 411 q 78 547 96 493 q 60 664 60 601 q 78 774 60 718 q 135 878 96 831 q 233 955 174 925 q 375 985 293 985 q 631 876 544 985 q 718 568 718 767 q 574 143 718 288 q 131 -3 429 -1 l 124 138 q 274 151 207 138 q 392 196 342 165 q 478 276 443 226 q 531 397 513 325 z "},"\u0000":{"ha":0,"x_min":0,"x_max":0,"o":""},"\b":{"ha":0,"x_min":0,"x_max":0,"o":""},"\u001d":{"ha":0,"x_min":0,"x_max":0,"o":""},"\t":{"ha":324,"x_min":0,"x_max":0,"o":""},"\r":{"ha":324,"x_min":0,"x_max":0,"o":""}," ":{"ha":324,"x_min":0,"x_max":0,"o":""},"!":{"ha":425,"x_min":101,"x_max":324,"o":"m 303 704 q 294 493 303 589 q 274 300 286 397 l 154 300 q 132 494 140 397 q 124 704 124 590 l 124 963 l 303 963 l 303 704 m 324 92 q 292 13 324 43 q 213 -18 260 -18 q 134 13 167 -18 q 101 92 101 43 q 134 172 101 140 q 213 203 167 203 q 292 172 260 203 q 324 92 324 140 z "},"\"":{"ha":635,"x_min":96,"x_max":539,"o":"m 539 1056 l 539 969 q 529 826 539 903 q 507 671 519 749 l 400 671 q 378 825 386 749 q 369 971 369 901 l 369 1056 l 539 1056 m 265 1056 l 265 969 q 256 826 265 903 q 233 671 246 749 l 126 671 q 104 825 113 749 q 96 971 96 901 l 96 1056 l 265 1056 z "},"#":{"ha":932,"x_min":64,"x_max":868,"o":"m 517 244 l 324 244 l 276 0 l 128 0 l 175 244 l 64 244 l 64 376 l 200 376 l 240 586 l 64 586 l 64 717 l 265 717 l 313 963 l 461 963 l 414 717 l 607 717 l 654 963 l 803 963 l 756 717 l 868 717 l 868 586 l 731 586 l 690 376 l 868 376 l 868 244 l 665 244 l 618 0 l 469 0 l 517 244 m 349 376 l 542 376 l 582 586 l 389 586 l 349 376 z "},"$":{"ha":789,"x_min":71,"x_max":714,"o":"m 325 18 q 163 45 225 25 q 71 82 101 65 l 118 214 q 226 174 163 192 q 369 156 289 156 q 502 184 465 156 q 539 260 539 213 q 524 315 539 292 q 481 357 508 339 q 415 390 453 375 q 331 422 376 406 q 245 457 288 438 q 169 505 203 476 q 114 574 135 533 q 93 672 93 614 q 150 835 93 768 q 325 922 207 903 l 325 1078 l 469 1078 l 469 928 q 589 909 536 922 q 672 883 642 896 l 638 746 q 542 775 597 761 q 417 789 488 789 q 304 762 342 789 q 267 688 267 735 q 278 641 267 660 q 311 608 289 622 q 365 580 333 593 q 438 553 397 567 q 545 506 494 531 q 633 449 596 482 q 692 372 671 417 q 714 267 714 328 q 657 108 714 175 q 469 22 600 42 l 469 -151 l 325 -151 l 325 18 z "},"%":{"ha":1246,"x_min":65,"x_max":1181,"o":"m 532 721 q 467 526 532 594 q 299 458 403 458 q 204 476 247 458 q 131 526 161 493 q 83 609 100 560 q 65 721 65 658 q 130 916 65 849 q 299 983 194 983 q 467 916 403 983 q 532 721 532 849 m 400 721 q 373 831 400 794 q 299 868 346 868 q 225 831 251 868 q 199 721 199 794 q 225 610 199 647 q 299 574 251 574 q 373 610 346 574 q 400 721 400 647 m 814 963 l 974 963 l 431 0 l 271 0 l 814 963 m 1181 240 q 1116 46 1181 114 q 947 -22 1051 -22 q 853 -5 896 -22 q 779 46 810 13 q 731 128 749 79 q 714 240 714 178 q 778 435 714 368 q 947 503 843 503 q 1116 435 1051 503 q 1181 240 1181 368 m 1049 240 q 1022 351 1049 314 q 947 388 994 388 q 874 351 900 388 q 847 240 847 314 q 874 130 847 167 q 947 93 900 93 q 1022 130 994 93 q 1049 240 1049 167 z "},"&":{"ha":950,"x_min":60,"x_max":939,"o":"m 60 256 q 76 351 60 308 q 119 429 92 394 q 181 490 146 464 q 256 538 217 517 q 188 632 214 582 q 163 738 163 682 q 234 919 163 854 q 422 985 306 985 q 528 968 482 985 q 606 922 575 951 q 652 853 636 893 q 668 769 668 814 q 653 686 668 725 q 614 615 639 647 q 556 555 589 582 q 486 507 524 528 l 676 315 q 708 397 696 351 q 728 485 721 442 l 868 467 q 839 344 861 411 q 781 215 817 276 q 869 109 826 164 q 939 0 911 54 l 764 0 q 728 51 750 24 q 683 103 707 79 q 553 19 626 51 q 386 -12 479 -12 q 231 13 293 -12 q 130 76 168 38 q 76 163 92 115 q 60 256 60 210 m 221 267 q 230 218 221 243 q 259 172 239 193 q 312 136 279 150 q 390 122 344 122 q 503 142 453 122 q 590 197 554 161 l 346 446 q 303 419 325 435 q 263 383 281 404 q 233 333 244 361 q 221 267 221 304 m 522 763 q 496 831 522 803 q 419 860 469 860 q 339 828 367 860 q 311 747 311 796 q 333 667 311 707 q 394 592 356 628 q 444 622 421 606 q 484 660 467 639 q 512 706 501 681 q 522 763 522 731 z "},"'":{"ha":361,"x_min":96,"x_max":265,"o":"m 265 1056 l 265 969 q 256 826 265 903 q 233 671 246 749 l 126 671 q 104 825 113 749 q 96 971 96 901 l 96 1056 l 265 1056 z "},"(":{"ha":471,"x_min":104,"x_max":465,"o":"m 271 415 q 322 94 271 244 q 465 -179 374 -56 l 347 -257 q 169 49 235 -122 q 104 415 104 221 q 169 781 104 610 q 347 1088 235 953 l 465 1010 q 322 735 374 885 q 271 415 271 586 z "},")":{"ha":471,"x_min":6,"x_max":367,"o":"m 200 415 q 149 735 200 586 q 6 1010 97 885 l 124 1088 q 301 781 236 953 q 367 415 367 610 q 301 49 367 221 q 124 -257 236 -122 l 6 -179 q 149 94 97 -56 q 200 415 200 244 z "},"*":{"ha":669,"x_min":47,"x_max":622,"o":"m 372 736 q 460 792 413 763 q 554 836 508 821 l 575 843 l 622 699 l 600 692 q 499 673 556 678 q 394 667 443 668 q 476 601 433 636 q 547 525 518 565 l 561 506 l 438 418 l 424 436 q 375 528 396 476 q 335 624 354 579 q 295 528 317 579 q 246 436 274 476 l 233 418 l 108 506 l 124 525 q 194 601 151 565 q 276 667 236 636 q 172 672 228 668 q 69 692 115 675 l 47 699 l 94 843 l 115 836 q 210 792 163 821 q 297 736 257 763 q 272 838 285 785 q 258 939 258 890 l 258 963 l 411 963 l 411 939 q 398 838 411 890 q 372 736 385 785 z "},"+":{"ha":789,"x_min":72,"x_max":717,"o":"m 72 468 l 319 468 l 319 740 l 469 740 l 469 468 l 717 468 l 717 326 l 469 326 l 469 54 l 319 54 l 319 326 l 72 326 l 72 468 z "},",":{"ha":372,"x_min":49,"x_max":283,"o":"m 281 185 q 283 150 283 161 q 283 128 283 139 q 256 -50 283 42 q 181 -224 229 -142 l 49 -187 q 94 -30 82 -107 q 106 106 106 47 q 105 147 106 122 q 103 185 104 172 l 281 185 z "},"-":{"ha":438,"x_min":32,"x_max":406,"o":"m 32 474 l 406 474 l 406 319 l 32 319 l 32 474 z "},".":{"ha":369,"x_min":74,"x_max":296,"o":"m 296 92 q 263 13 296 43 q 185 -18 231 -18 q 106 13 138 -18 q 74 92 74 43 q 106 172 74 140 q 185 203 138 203 q 263 172 231 203 q 296 92 296 140 z "},"/":{"ha":578,"x_min":-37,"x_max":601,"o":"m 135 -257 l -37 -257 l 432 1088 l 601 1088 l 135 -257 z "},":":{"ha":369,"x_min":74,"x_max":296,"o":"m 296 611 q 263 532 296 563 q 185 501 231 501 q 106 532 138 501 q 74 611 74 563 q 106 691 74 660 q 185 722 138 722 q 263 691 231 722 q 296 611 296 660 m 296 92 q 263 13 296 43 q 185 -18 231 -18 q 106 13 138 -18 q 74 92 74 43 q 106 172 74 140 q 185 203 138 203 q 263 172 231 203 q 296 92 296 140 z "},";":{"ha":367,"x_min":49,"x_max":294,"o":"m 281 185 q 283 150 283 161 q 283 128 283 139 q 256 -50 283 42 q 181 -224 229 -142 l 49 -187 q 94 -30 82 -107 q 106 106 106 47 q 105 147 106 122 q 103 185 104 172 l 281 185 m 294 611 q 262 532 294 563 q 183 501 229 501 q 104 532 136 501 q 72 611 72 563 q 104 691 72 660 q 183 722 136 722 q 262 691 229 722 q 294 611 294 660 z "},"<":{"ha":789,"x_min":72,"x_max":717,"o":"m 72 467 l 671 719 l 717 582 l 251 396 l 717 210 l 671 72 l 72 325 l 72 467 z "},"=":{"ha":789,"x_min":72,"x_max":717,"o":"m 72 318 l 717 318 l 717 176 l 72 176 l 72 318 m 72 618 l 717 618 l 717 476 l 72 476 l 72 618 z "},">":{"ha":789,"x_min":72,"x_max":717,"o":"m 717 325 l 118 72 l 72 210 l 538 396 l 72 582 l 118 719 l 717 467 l 717 325 z "},"?":{"ha":589,"x_min":22,"x_max":556,"o":"m 256 842 q 163 830 207 842 q 69 792 118 818 l 22 921 q 140 967 74 950 q 275 985 206 985 q 413 962 358 985 q 499 904 467 939 q 543 828 531 869 q 556 747 556 786 q 538 663 556 700 q 494 593 521 625 q 438 533 468 561 q 381 474 407 504 q 337 411 354 444 q 319 336 319 378 q 319 320 319 329 q 321 303 319 311 l 176 303 q 172 333 174 317 q 171 363 171 349 q 186 444 171 408 q 225 511 201 481 q 276 568 249 542 q 326 621 303 594 q 365 675 350 647 q 381 736 381 703 q 349 812 381 782 q 256 842 318 842 m 364 92 q 332 13 364 43 q 253 -18 300 -18 q 174 13 207 -18 q 142 92 142 43 q 174 172 142 140 q 253 203 207 203 q 332 172 300 203 q 364 92 364 140 z "},"@":{"ha":1349,"x_min":86,"x_max":1263,"o":"m 972 49 q 896 60 931 49 q 838 97 861 72 q 766 64 807 75 q 681 53 725 53 q 556 74 613 53 q 459 136 500 94 q 396 240 418 178 q 374 383 374 301 q 396 512 374 451 q 460 617 418 572 q 565 687 503 661 q 706 713 626 713 q 843 700 782 713 q 940 674 904 688 l 940 243 q 955 190 940 204 q 994 175 969 175 q 1088 249 1054 175 q 1122 463 1122 324 q 1092 623 1122 549 q 1006 751 1063 697 q 867 837 949 806 q 685 868 786 868 q 501 835 585 868 q 356 739 417 801 q 262 586 296 676 q 228 382 228 496 q 263 173 228 263 q 360 24 297 83 q 512 -67 424 -36 q 708 -97 600 -97 q 841 -88 783 -97 q 928 -72 899 -79 l 944 -189 q 905 -199 929 -193 q 849 -209 881 -204 q 782 -217 818 -214 q 708 -221 746 -221 q 466 -186 579 -221 q 269 -78 353 -151 q 135 110 185 -4 q 86 382 86 224 q 136 648 86 533 q 269 838 186 763 q 460 952 353 914 q 685 990 568 990 q 911 954 806 990 q 1094 849 1017 918 q 1217 681 1172 781 q 1263 453 1263 581 q 1241 279 1263 354 q 1181 153 1219 204 q 1089 75 1142 101 q 972 49 1036 49 m 793 200 q 788 235 790 215 q 786 272 786 254 l 786 578 q 714 585 758 585 q 633 569 667 585 q 576 527 599 554 q 544 463 554 500 q 533 383 533 426 q 571 239 533 296 q 688 182 608 182 q 740 185 713 182 q 793 200 767 189 z "},"A":{"ha":950,"x_min":7,"x_max":943,"o":"m 754 0 q 714 113 735 57 q 674 226 693 168 l 268 226 q 228 112 249 168 q 189 0 208 56 l 7 0 q 110 285 61 154 q 205 532 158 415 q 297 754 251 649 q 392 963 343 860 l 557 963 q 651 754 606 860 q 744 532 697 649 q 840 285 790 415 q 943 0 889 154 l 754 0 m 471 776 q 398 597 439 703 q 313 368 357 492 l 629 368 q 543 599 585 492 q 471 776 501 706 z "},"B":{"ha":913,"x_min":115,"x_max":846,"o":"m 406 -11 q 251 -6 329 -11 q 115 14 174 -1 l 115 949 q 181 959 146 954 q 251 967 215 964 q 323 971 288 969 q 390 972 358 972 q 553 959 478 972 q 683 915 628 946 q 768 835 738 885 q 799 711 799 785 q 766 594 799 643 q 675 517 733 546 q 804 431 763 488 q 846 286 846 374 q 738 63 846 138 q 406 -11 629 -11 m 288 433 l 288 140 q 350 136 317 138 q 411 135 383 135 q 512 142 465 135 q 592 166 558 149 q 647 213 626 183 q 667 288 667 242 q 607 401 667 369 q 442 433 547 433 l 288 433 m 288 571 l 411 571 q 568 599 511 571 q 625 701 625 628 q 566 800 625 771 q 413 829 507 829 q 341 828 372 829 q 288 824 310 826 l 288 571 z "},"C":{"ha":886,"x_min":79,"x_max":847,"o":"m 543 -21 q 349 13 435 -21 q 203 110 263 46 q 111 268 143 175 q 79 482 79 361 q 116 696 79 603 q 217 853 153 789 q 367 951 281 918 q 551 985 453 985 q 660 976 611 985 q 744 956 708 967 q 804 932 781 944 q 838 914 828 919 l 786 771 q 691 810 753 792 q 557 829 629 829 q 440 808 494 829 q 347 743 386 786 q 285 635 307 700 q 263 483 263 569 q 280 343 263 407 q 333 233 297 279 q 425 160 369 186 q 558 135 481 135 q 710 153 651 135 q 800 189 768 172 l 847 46 q 802 24 831 35 q 735 2 774 13 q 647 -15 696 -8 q 543 -21 599 -21 z "},"D":{"ha":1008,"x_min":115,"x_max":932,"o":"m 290 144 q 331 142 306 143 q 399 142 356 142 q 662 231 575 142 q 749 482 749 321 q 664 733 749 646 q 401 821 579 821 q 290 817 324 821 l 290 144 m 932 482 q 893 265 932 357 q 783 110 854 172 q 610 19 711 49 q 388 -11 510 -11 q 256 -6 329 -11 q 115 14 182 -1 l 115 949 q 257 968 182 964 q 390 972 332 972 q 611 944 511 972 q 783 855 711 915 q 893 702 854 794 q 932 482 932 610 z "},"E":{"ha":814,"x_min":115,"x_max":767,"o":"m 115 0 l 115 963 l 733 963 l 733 814 l 290 814 l 290 576 l 685 576 l 685 431 l 290 431 l 290 149 l 767 149 l 767 0 l 115 0 z "},"F":{"ha":765,"x_min":115,"x_max":724,"o":"m 115 0 l 115 963 l 724 963 l 724 814 l 290 814 l 290 568 l 675 568 l 675 419 l 290 419 l 290 0 l 115 0 z "},"G":{"ha":949,"x_min":76,"x_max":861,"o":"m 565 831 q 338 738 417 831 q 260 482 260 646 q 278 340 260 404 q 334 229 297 275 q 426 158 371 183 q 554 132 481 132 q 633 135 600 132 q 686 144 667 139 l 686 490 l 861 490 l 861 28 q 739 -3 825 14 q 540 -19 653 -19 q 350 14 436 -19 q 203 111 264 47 q 110 268 143 175 q 76 482 76 361 q 113 696 76 603 q 214 853 150 789 q 364 951 278 918 q 547 985 450 985 q 666 976 614 985 q 756 956 718 967 q 817 932 793 944 q 851 914 842 919 l 799 771 q 695 813 757 796 q 565 831 633 831 z "},"H":{"ha":999,"x_min":115,"x_max":883,"o":"m 708 963 l 883 963 l 883 0 l 708 0 l 708 426 l 290 426 l 290 0 l 115 0 l 115 963 l 290 963 l 290 578 l 708 578 l 708 963 z "},"I":{"ha":406,"x_min":115,"x_max":290,"o":"m 115 963 l 290 963 l 290 0 l 115 0 l 115 963 z "},"J":{"ha":713,"x_min":7,"x_max":604,"o":"m 604 317 q 589 185 604 246 q 535 78 574 124 q 433 6 497 32 q 269 -21 368 -21 q 110 5 178 -21 q 7 60 43 31 l 69 197 q 155 152 104 174 q 258 131 206 131 q 388 175 347 131 q 428 328 428 219 l 428 963 l 604 963 l 604 317 z "},"K":{"ha":904,"x_min":115,"x_max":897,"o":"m 690 0 q 607 117 654 56 q 508 235 560 178 q 400 343 456 292 q 290 432 344 394 l 290 0 l 115 0 l 115 963 l 290 963 l 290 565 q 386 663 336 611 q 485 769 436 715 q 579 872 535 822 q 660 963 624 922 l 869 963 q 772 853 824 910 q 667 738 721 796 q 558 624 613 681 q 450 515 503 567 q 569 412 508 471 q 688 285 629 353 q 799 145 746 218 q 897 0 853 72 l 690 0 z "},"L":{"ha":742,"x_min":115,"x_max":724,"o":"m 724 151 l 724 0 l 115 0 l 115 963 l 290 963 l 290 151 l 724 151 z "},"M":{"ha":1228,"x_min":89,"x_max":1139,"o":"m 325 963 q 393 833 356 910 q 469 673 431 757 q 547 502 508 589 q 617 342 585 415 q 686 502 649 415 q 763 673 724 589 q 839 833 801 757 q 907 963 876 910 l 1065 963 q 1089 738 1078 857 q 1109 495 1100 619 q 1126 245 1118 371 q 1139 0 1133 119 l 967 0 q 953 346 961 168 q 931 690 946 524 q 894 614 915 658 q 850 517 874 569 q 802 410 826 465 q 755 302 778 354 q 713 205 732 250 q 679 128 693 160 l 549 128 q 515 206 535 160 q 473 303 496 251 q 426 411 450 356 q 378 518 401 467 q 333 615 354 569 q 297 690 313 660 q 274 346 282 524 q 261 0 267 168 l 89 0 q 102 247 94 119 q 119 501 110 375 q 139 744 128 626 q 163 963 150 863 l 325 963 z "},"N":{"ha":1028,"x_min":115,"x_max":913,"o":"m 764 0 q 658 170 717 79 q 538 353 600 261 q 410 533 475 446 q 288 689 346 619 l 288 0 l 115 0 l 115 963 l 258 963 q 378 824 314 904 q 506 658 442 744 q 631 485 571 572 q 739 324 692 399 l 739 963 l 913 963 l 913 0 l 764 0 z "},"O":{"ha":1086,"x_min":76,"x_max":1010,"o":"m 258 482 q 278 338 258 403 q 334 228 297 274 q 424 158 371 183 q 543 133 476 133 q 661 158 608 133 q 751 228 714 183 q 807 338 788 274 q 826 482 826 403 q 807 626 826 561 q 751 735 788 690 q 661 806 714 781 q 543 831 608 831 q 424 806 476 831 q 334 735 371 781 q 278 625 297 689 q 258 482 258 561 m 1010 482 q 973 264 1010 358 q 873 106 936 169 q 725 11 810 43 q 544 -21 640 -21 q 363 11 449 -21 q 215 106 278 43 q 114 264 151 169 q 76 482 76 358 q 114 699 76 606 q 216 857 151 793 q 365 953 281 921 q 544 985 450 985 q 724 953 639 985 q 872 857 808 921 q 972 699 935 793 q 1010 482 1010 606 z "},"P":{"ha":865,"x_min":115,"x_max":821,"o":"m 388 972 q 709 896 597 972 q 821 657 821 819 q 791 512 821 572 q 704 413 761 451 q 565 357 647 375 q 378 339 483 339 l 290 339 l 290 0 l 115 0 l 115 949 q 251 967 176 963 q 388 972 325 972 m 400 821 q 290 817 333 821 l 290 489 l 375 489 q 569 524 501 489 q 638 658 638 560 q 619 738 638 706 q 569 788 601 769 q 494 813 538 806 q 400 821 450 821 z "},"Q":{"ha":1086,"x_min":76,"x_max":1010,"o":"m 258 482 q 278 338 258 403 q 334 228 297 274 q 424 158 371 183 q 543 133 476 133 q 661 158 608 133 q 751 228 714 183 q 807 338 788 274 q 826 482 826 403 q 807 626 826 561 q 751 735 788 690 q 661 806 714 781 q 543 831 608 831 q 424 806 476 831 q 334 735 371 781 q 278 625 297 689 q 258 482 258 561 m 1010 482 q 983 294 1010 378 q 910 149 957 211 q 799 49 863 88 q 661 -7 736 10 q 690 -57 665 -36 q 753 -92 715 -78 q 841 -115 792 -106 q 944 -128 890 -124 l 906 -260 q 621 -191 726 -246 q 486 -17 515 -136 q 326 28 400 -8 q 196 126 251 64 q 108 278 140 189 q 76 482 76 367 q 114 699 76 606 q 216 857 151 793 q 365 953 281 921 q 544 985 450 985 q 724 953 639 985 q 872 857 808 921 q 972 699 935 793 q 1010 482 1010 606 z "},"R":{"ha":889,"x_min":115,"x_max":868,"o":"m 381 972 q 699 896 589 972 q 810 663 810 819 q 617 397 810 467 q 676 319 643 365 q 744 220 710 274 q 811 110 779 167 q 868 0 843 54 l 672 0 q 615 101 646 50 q 553 199 585 151 q 492 290 522 247 q 435 365 461 332 q 401 364 415 364 q 375 364 388 364 l 290 364 l 290 0 l 115 0 l 115 949 q 251 967 179 963 q 381 972 324 972 m 393 821 q 290 817 338 821 l 290 506 l 367 506 q 479 513 431 506 q 560 538 528 519 q 610 586 593 556 q 626 664 626 617 q 610 739 626 708 q 562 788 593 769 q 488 813 531 806 q 393 821 444 821 z "},"S":{"ha":750,"x_min":42,"x_max":711,"o":"m 349 131 q 486 163 443 131 q 529 253 529 194 q 515 313 529 288 q 473 358 500 338 q 407 395 446 378 q 318 429 368 413 q 222 469 268 447 q 140 522 175 490 q 83 599 104 554 q 61 706 61 643 q 151 910 61 836 q 397 985 242 985 q 558 965 488 985 q 668 921 628 944 l 614 779 q 510 819 567 806 q 394 833 454 833 q 284 804 324 833 q 244 722 244 775 q 258 667 244 690 q 295 626 271 644 q 352 593 319 608 q 424 564 385 578 q 545 513 492 539 q 635 452 599 488 q 692 369 672 417 q 711 253 711 321 q 619 51 711 122 q 349 -21 526 -21 q 240 -13 289 -21 q 152 6 190 -6 q 86 28 114 17 q 42 50 58 40 l 93 193 q 194 151 131 172 q 349 131 258 131 z "},"T":{"ha":804,"x_min":18,"x_max":786,"o":"m 786 963 l 786 811 l 490 811 l 490 0 l 314 0 l 314 811 l 18 811 l 18 963 l 786 963 z "},"U":{"ha":976,"x_min":108,"x_max":868,"o":"m 486 -21 q 317 8 388 -21 q 199 88 246 36 q 131 208 153 139 q 108 361 108 278 l 108 963 l 285 963 l 285 378 q 299 266 285 313 q 341 190 314 219 q 405 147 368 161 q 488 133 442 133 q 571 147 533 133 q 635 190 608 161 q 677 266 663 219 q 692 378 692 313 l 692 963 l 868 963 l 868 361 q 845 208 868 278 q 776 88 822 139 q 657 8 729 36 q 486 -21 585 -21 z "},"V":{"ha":949,"x_min":10,"x_max":939,"o":"m 390 0 q 190 471 286 225 q 10 963 93 717 l 203 963 q 271 764 236 865 q 340 565 306 663 q 410 375 375 467 q 478 207 444 283 q 544 374 510 283 q 615 564 579 465 q 685 764 650 663 q 751 963 719 865 l 939 963 q 758 471 854 717 q 558 0 663 225 l 390 0 z "},"W":{"ha":1303,"x_min":35,"x_max":1271,"o":"m 732 854 q 779 698 754 779 q 831 535 804 617 q 885 376 858 454 q 938 228 913 297 q 978 391 958 303 q 1017 574 997 479 q 1055 768 1036 669 q 1090 963 1074 867 l 1271 963 q 1163 460 1222 701 q 1029 0 1103 219 l 863 0 q 653 613 754 281 q 549 293 601 444 q 443 0 496 142 l 276 0 q 142 460 201 219 q 35 963 83 701 l 222 963 q 258 769 239 868 q 297 576 276 671 q 338 392 317 481 q 379 228 358 303 q 433 377 406 299 q 486 537 460 456 q 537 699 513 618 q 582 854 561 779 l 732 854 z "},"X":{"ha":913,"x_min":28,"x_max":892,"o":"m 686 0 q 585 181 646 82 q 457 371 524 279 q 397 285 429 335 q 331 183 364 235 q 271 82 299 131 q 226 0 243 33 l 28 0 q 172 242 90 118 q 350 503 254 367 l 42 963 l 250 963 l 463 633 l 672 963 l 872 963 l 568 504 q 755 233 674 361 q 892 0 836 106 l 686 0 z "},"Y":{"ha":868,"x_min":4,"x_max":864,"o":"m 439 536 q 561 747 501 640 q 669 963 621 854 l 864 963 q 702 670 786 815 q 522 378 618 525 l 522 0 l 347 0 l 347 375 q 167 669 251 524 q 4 963 82 815 l 210 963 q 317 747 258 854 q 439 536 375 640 z "},"Z":{"ha":817,"x_min":42,"x_max":769,"o":"m 754 833 q 643 703 708 783 q 508 530 578 624 q 372 337 439 436 q 253 149 304 238 l 769 149 l 769 0 l 42 0 l 42 110 q 106 222 69 161 q 185 346 143 282 q 272 475 226 410 q 361 601 317 540 q 448 716 406 661 q 528 814 490 771 l 65 814 l 65 963 l 754 963 l 754 833 z "},"[":{"ha":481,"x_min":129,"x_max":474,"o":"m 129 1088 l 474 1088 l 474 954 l 288 954 l 288 -124 l 474 -124 l 474 -257 l 129 -257 l 129 1088 z "},"\\":{"ha":578,"x_min":-24,"x_max":615,"o":"m 146 1088 l 615 -257 l 443 -257 l -24 1088 l 146 1088 z "},"]":{"ha":481,"x_min":7,"x_max":351,"o":"m 7 -257 l 7 -124 l 192 -124 l 192 954 l 7 954 l 7 1088 l 351 1088 l 351 -257 l 7 -257 z "},"^":{"ha":789,"x_min":46,"x_max":742,"o":"m 742 485 l 604 417 l 394 782 l 185 417 l 46 485 l 325 963 l 464 963 l 742 485 z "},"_":{"ha":694,"x_min":0,"x_max":694,"o":"m 0 -117 l 694 -117 l 694 -257 l 0 -257 l 0 -117 z "},"`":{"ha":544,"x_min":107,"x_max":415,"o":"m 214 1122 l 415 879 l 332 804 l 107 1025 l 214 1122 z "},"a":{"ha":742,"x_min":56,"x_max":643,"o":"m 363 118 q 481 126 440 118 l 481 313 q 440 321 467 317 q 382 325 414 325 q 326 321 354 325 q 274 306 297 317 q 238 274 251 294 q 224 224 224 254 q 261 141 224 164 q 363 118 299 118 m 349 744 q 489 724 432 744 q 580 665 546 703 q 628 574 614 628 q 643 457 643 521 l 643 17 q 526 -3 604 8 q 349 -15 447 -15 q 229 -3 283 -15 q 137 38 175 10 q 77 110 99 65 q 56 219 56 154 q 80 325 56 282 q 146 395 104 368 q 242 434 188 422 q 357 446 297 446 q 415 442 385 446 q 481 431 446 439 l 481 458 q 474 514 481 488 q 449 560 467 540 q 403 592 432 581 q 332 603 375 603 q 225 594 274 603 q 146 575 176 586 l 125 711 q 218 733 157 722 q 349 744 279 744 z "},"b":{"ha":828,"x_min":107,"x_max":761,"o":"m 589 365 q 547 535 589 472 q 413 597 504 597 q 334 585 371 597 q 275 557 297 572 l 275 139 q 322 131 293 135 q 390 128 350 128 q 536 191 483 128 q 589 365 589 254 m 761 363 q 735 205 761 275 q 662 85 710 135 q 546 8 614 35 q 392 -18 478 -18 q 233 -6 308 -18 q 107 22 157 7 l 107 1050 l 275 1078 l 275 701 q 347 729 304 717 q 440 742 389 742 q 577 715 517 742 q 678 638 638 688 q 740 517 718 588 q 761 363 761 447 z "},"c":{"ha":656,"x_min":67,"x_max":632,"o":"m 67 363 q 92 513 67 443 q 163 635 117 583 q 276 715 210 686 q 426 744 343 744 q 621 707 529 744 l 585 569 q 519 590 556 582 q 440 599 482 599 q 290 537 342 599 q 239 363 239 475 q 288 191 239 254 q 451 128 336 128 q 536 136 494 128 q 608 157 578 144 l 632 18 q 548 -7 604 4 q 432 -18 492 -18 q 270 10 339 -18 q 156 90 201 39 q 89 210 111 140 q 67 363 67 281 z "},"d":{"ha":828,"x_min":67,"x_max":721,"o":"m 239 365 q 292 191 239 254 q 438 128 344 128 q 506 131 478 128 q 553 139 535 135 l 553 556 q 494 584 531 571 q 415 597 457 597 q 281 535 324 597 q 239 365 239 472 m 721 22 q 595 -6 671 7 q 436 -18 519 -18 q 282 8 350 -18 q 166 84 214 35 q 92 203 118 133 q 67 361 67 274 q 88 517 67 447 q 151 638 110 588 q 253 715 193 688 q 390 742 313 742 q 483 729 443 742 q 553 701 524 717 l 553 1050 l 721 1078 l 721 22 z "},"e":{"ha":793,"x_min":67,"x_max":722,"o":"m 67 360 q 95 528 67 456 q 171 648 124 600 q 279 720 218 696 q 404 744 340 744 q 638 651 554 744 q 722 374 722 558 q 722 342 722 360 q 719 311 721 325 l 240 311 q 302 176 247 224 q 461 128 357 128 q 573 139 522 128 q 653 163 624 150 l 675 25 q 637 10 661 18 q 581 -3 613 3 q 514 -14 550 -10 q 440 -18 478 -18 q 274 10 344 -18 q 157 90 203 39 q 89 209 111 140 q 67 360 67 278 m 554 435 q 544 501 554 469 q 516 555 535 532 q 470 591 497 578 q 406 604 443 604 q 338 590 367 604 q 288 551 308 575 q 257 497 268 528 q 242 435 246 467 l 554 435 z "},"f":{"ha":556,"x_min":107,"x_max":572,"o":"m 403 1078 q 506 1067 461 1078 q 572 1049 550 1057 l 540 910 q 485 928 517 921 q 418 935 454 935 q 350 923 378 935 q 306 890 322 911 q 282 840 289 869 q 275 775 275 810 l 275 726 l 539 726 l 539 586 l 275 586 l 275 0 l 107 0 l 107 778 q 181 998 107 918 q 403 1078 254 1078 z "},"g":{"ha":814,"x_min":67,"x_max":707,"o":"m 239 382 q 285 226 239 275 q 406 176 332 176 q 481 188 446 176 q 539 214 517 199 l 539 590 q 494 598 521 594 q 428 601 468 601 q 288 541 336 601 q 239 382 239 481 m 707 74 q 619 -181 707 -100 q 349 -261 531 -261 q 219 -250 282 -261 q 104 -221 156 -239 l 135 -78 q 233 -107 178 -96 q 351 -118 288 -118 q 496 -76 453 -118 q 539 47 539 -35 l 539 75 q 473 50 514 63 q 379 38 432 38 q 252 60 310 38 q 153 125 194 82 q 90 233 113 168 q 67 382 67 297 q 91 528 67 461 q 162 642 115 594 q 275 715 208 689 q 426 742 342 742 q 582 729 508 742 q 707 703 656 717 l 707 74 z "},"h":{"ha":808,"x_min":107,"x_max":714,"o":"m 107 0 l 107 1050 l 275 1078 l 275 718 q 340 735 303 728 q 413 742 376 742 q 558 717 500 742 q 650 649 615 693 q 699 544 685 606 q 714 408 714 483 l 714 0 l 546 0 l 546 382 q 538 481 546 440 q 513 548 531 522 q 467 585 496 574 q 394 597 438 597 q 326 590 361 597 q 275 578 292 583 l 275 0 l 107 0 z "},"i":{"ha":383,"x_min":88,"x_max":294,"o":"m 276 0 l 108 0 l 108 726 l 276 726 l 276 0 m 294 939 q 264 864 294 892 q 192 836 233 836 q 118 864 149 836 q 88 939 88 892 q 118 1015 88 988 q 192 1043 149 1043 q 264 1015 233 1043 q 294 939 294 988 z "},"j":{"ha":382,"x_min":-94,"x_max":293,"o":"m 14 -258 q -37 -255 -4 -258 q -94 -242 -69 -251 l -72 -104 q 1 -114 -42 -114 q 83 -80 60 -114 q 107 22 107 -46 l 107 726 l 275 726 l 275 19 q 208 -190 275 -122 q 14 -258 140 -258 m 293 939 q 263 864 293 892 q 190 836 232 836 q 117 864 147 836 q 86 939 86 892 q 117 1015 86 988 q 190 1043 147 1043 q 263 1015 232 1043 q 293 939 293 988 z "},"k":{"ha":765,"x_min":107,"x_max":750,"o":"m 275 443 q 343 515 307 476 q 414 591 379 553 q 480 665 449 629 q 533 726 511 700 l 732 726 q 585 565 663 649 q 431 403 508 482 q 518 319 472 368 q 607 214 564 269 q 688 103 650 158 q 750 0 725 47 l 556 0 q 498 90 531 43 q 428 182 465 138 q 351 266 390 226 q 275 333 313 306 l 275 0 l 107 0 l 107 1050 l 275 1078 l 275 443 z "},"l":{"ha":413,"x_min":104,"x_max":383,"o":"m 360 -14 q 235 3 285 -12 q 157 47 186 18 q 116 117 128 75 q 104 214 104 160 l 104 1050 l 272 1078 l 272 246 q 277 194 272 215 q 294 159 282 174 q 328 137 307 144 q 383 125 350 129 l 360 -14 z "},"m":{"ha":1201,"x_min":107,"x_max":1103,"o":"m 521 382 q 492 547 521 496 q 386 597 464 597 q 325 593 358 597 q 275 586 292 589 l 275 0 l 107 0 l 107 703 q 234 729 156 717 q 400 742 313 742 q 523 722 475 742 q 603 671 571 703 q 642 694 618 682 q 694 717 665 707 q 756 735 724 728 q 822 742 789 742 q 962 717 907 742 q 1048 649 1017 693 q 1091 544 1079 606 q 1103 408 1103 482 l 1103 0 l 935 0 l 935 382 q 907 547 935 496 q 800 597 879 597 q 724 584 760 597 q 669 558 688 571 q 685 485 681 524 q 689 401 689 446 l 689 0 l 521 0 l 521 382 z "},"n":{"ha":813,"x_min":107,"x_max":714,"o":"m 107 703 q 233 729 156 717 q 406 742 311 742 q 554 717 494 742 q 649 649 614 693 q 699 544 685 606 q 714 408 714 482 l 714 0 l 546 0 l 546 382 q 538 481 546 440 q 513 548 531 522 q 466 585 496 574 q 393 597 436 597 q 326 593 361 597 q 275 586 292 589 l 275 0 l 107 0 l 107 703 z "},"o":{"ha":831,"x_min":67,"x_max":764,"o":"m 764 364 q 739 207 764 278 q 668 86 714 136 q 558 8 622 36 q 415 -19 493 -19 q 274 8 338 -19 q 164 86 210 36 q 92 207 118 136 q 67 364 67 278 q 92 520 67 450 q 165 640 118 590 q 275 717 211 690 q 415 744 339 744 q 556 717 492 744 q 667 640 621 690 q 738 520 713 590 q 764 364 764 450 m 592 364 q 545 535 592 472 q 415 599 499 599 q 285 535 332 599 q 239 364 239 472 q 285 190 239 254 q 415 126 332 126 q 545 190 499 126 q 592 364 592 254 z "},"p":{"ha":828,"x_min":107,"x_max":761,"o":"m 589 360 q 538 535 589 472 q 375 597 488 597 q 326 595 351 597 q 275 586 300 593 l 275 171 q 334 142 297 156 q 413 129 371 129 q 547 192 504 129 q 589 360 589 254 m 761 363 q 740 210 761 279 q 678 90 718 140 q 577 13 638 40 q 440 -15 517 -15 q 346 -3 389 -15 q 275 25 303 10 l 275 -257 l 107 -257 l 107 703 q 233 729 158 717 q 392 742 308 742 q 546 715 478 742 q 662 640 614 689 q 735 520 710 590 q 761 363 761 450 z "},"q":{"ha":828,"x_min":67,"x_max":721,"o":"m 239 360 q 281 192 239 254 q 415 129 324 129 q 494 142 457 129 q 553 171 531 156 l 553 586 q 508 594 535 590 q 438 597 481 597 q 292 534 344 597 q 239 360 239 471 m 67 363 q 92 519 67 449 q 166 638 118 589 q 282 715 214 688 q 436 742 350 742 q 597 729 522 742 q 721 703 672 717 l 721 -257 l 553 -257 l 553 25 q 481 -3 524 10 q 388 -15 439 -15 q 250 12 310 -15 q 150 89 190 39 q 88 208 110 139 q 67 363 67 278 z "},"r":{"ha":560,"x_min":107,"x_max":550,"o":"m 521 575 q 463 590 500 582 q 378 597 426 597 q 319 592 350 597 q 275 582 288 586 l 275 0 l 107 0 l 107 692 q 228 726 156 710 q 390 742 301 742 q 429 740 407 742 q 474 734 451 738 q 517 726 496 731 q 550 717 538 721 l 521 575 z "},"s":{"ha":635,"x_min":51,"x_max":585,"o":"m 289 121 q 386 137 356 121 q 417 192 417 153 q 384 251 417 228 q 276 303 351 275 q 192 338 231 319 q 126 382 154 357 q 83 442 99 407 q 67 529 67 478 q 140 687 67 629 q 340 744 214 744 q 463 733 404 744 q 550 710 521 721 l 519 574 q 449 597 492 586 q 349 607 406 607 q 265 590 297 607 q 233 536 233 572 q 240 504 233 518 q 261 478 246 490 q 301 455 276 467 q 363 431 326 443 q 464 387 422 408 q 533 338 506 365 q 572 276 560 311 q 585 193 585 242 q 508 35 585 89 q 288 -18 431 -18 q 133 -2 192 -18 q 51 24 75 14 l 81 164 q 170 135 118 149 q 289 121 222 121 z "},"t":{"ha":581,"x_min":99,"x_max":554,"o":"m 99 918 l 267 946 l 267 726 l 525 726 l 525 586 l 267 586 l 267 290 q 294 165 267 203 q 389 128 322 128 q 470 138 435 128 q 526 156 506 147 l 554 22 q 478 -3 525 10 q 367 -17 431 -17 q 237 4 289 -17 q 154 65 185 25 q 111 160 124 104 q 99 289 99 217 l 99 918 z "},"u":{"ha":810,"x_min":99,"x_max":703,"o":"m 703 22 q 576 -3 654 10 q 406 -17 499 -17 q 259 8 318 -17 q 165 78 200 33 q 114 184 129 122 q 99 319 99 246 l 99 726 l 267 726 l 267 346 q 301 179 267 229 q 419 129 335 129 q 484 132 450 129 q 535 139 518 135 l 535 726 l 703 726 l 703 22 z "},"v":{"ha":731,"x_min":18,"x_max":713,"o":"m 293 0 q 151 328 224 143 q 18 726 78 514 l 197 726 q 233 595 213 665 q 276 455 253 525 q 323 319 299 385 q 368 200 347 253 q 413 319 389 253 q 459 455 436 385 q 503 595 482 525 q 539 726 524 665 l 713 726 q 580 328 653 514 q 438 0 507 143 l 293 0 z "},"w":{"ha":1083,"x_min":21,"x_max":1063,"o":"m 540 457 q 472 219 508 335 q 399 0 435 103 l 261 0 q 203 146 233 64 q 142 321 172 228 q 81 517 111 414 q 21 726 50 619 l 199 726 q 228 601 211 668 q 263 463 244 533 q 300 326 281 393 q 339 204 319 260 q 380 336 360 268 q 418 472 400 404 q 452 605 436 540 q 481 726 468 669 l 610 726 q 638 605 622 669 q 670 472 653 540 q 708 336 688 404 q 749 204 728 268 q 786 326 767 260 q 824 463 806 393 q 860 601 843 533 q 889 726 876 668 l 1063 726 q 1003 517 1033 619 q 942 321 972 414 q 881 146 911 228 q 821 0 850 64 l 685 0 q 610 219 649 103 q 540 457 572 335 z "},"x":{"ha":735,"x_min":18,"x_max":717,"o":"m 368 489 l 522 726 l 699 726 l 460 383 q 603 187 535 286 q 717 0 672 88 l 535 0 q 502 60 522 26 q 459 131 482 94 q 411 204 436 168 q 363 272 386 240 q 267 134 314 210 q 190 0 221 58 l 18 0 q 68 89 39 42 q 131 185 97 136 q 199 284 164 235 q 269 378 235 333 l 29 726 l 214 726 l 368 489 z "},"y":{"ha":721,"x_min":-1,"x_max":700,"o":"m 700 726 q 439 -24 588 313 q 382 -131 411 -86 q 317 -204 353 -175 q 236 -247 281 -233 q 133 -260 192 -260 q 56 -251 94 -260 q -1 -233 18 -243 l 29 -99 q 128 -118 79 -118 q 230 -87 193 -118 q 294 10 267 -56 q 142 343 215 163 q 13 726 69 524 l 192 726 q 226 600 206 668 q 269 462 246 532 q 319 322 293 392 q 372 193 346 253 q 456 456 417 317 q 526 726 494 596 l 700 726 z "},"z":{"ha":672,"x_min":46,"x_max":624,"o":"m 615 608 q 542 526 588 579 q 446 409 497 474 q 342 274 394 344 q 249 140 290 204 l 624 140 l 624 0 l 46 0 l 46 104 q 122 225 76 160 q 217 356 168 290 q 313 482 265 422 q 399 586 361 542 l 64 586 l 64 726 l 615 726 l 615 608 z "},"{":{"ha":483,"x_min":51,"x_max":476,"o":"m 51 481 q 145 520 115 481 q 175 614 175 560 l 175 818 q 188 934 175 883 q 232 1019 200 985 q 321 1070 264 1053 q 467 1088 378 1088 l 476 1088 l 476 954 q 408 949 436 954 q 364 928 381 943 q 340 890 347 914 q 332 828 332 865 l 332 629 q 310 497 332 546 q 238 415 289 447 q 310 333 289 383 q 332 201 332 283 l 332 1 q 340 -60 332 -36 q 364 -98 347 -83 q 408 -118 381 -112 q 476 -124 436 -124 l 476 -257 q 325 -240 383 -257 q 233 -190 267 -224 q 188 -106 200 -156 q 175 11 175 -56 l 175 217 q 145 309 175 269 q 51 349 115 349 l 51 481 z "},"|":{"ha":417,"x_min":129,"x_max":288,"o":"m 129 1088 l 288 1088 l 288 -257 l 129 -257 l 129 1088 z "},"}":{"ha":483,"x_min":7,"x_max":432,"o":"m 432 349 q 338 309 368 349 q 308 217 308 269 l 308 11 q 296 -106 308 -56 q 250 -190 283 -156 q 158 -240 217 -224 q 7 -257 100 -257 l 7 -124 q 119 -98 88 -124 q 151 1 151 -72 l 151 201 q 173 333 151 283 q 246 415 194 383 q 173 497 194 447 q 151 629 151 546 l 151 828 q 144 890 151 865 q 119 928 136 914 q 75 949 103 943 q 7 954 47 954 l 7 1088 l 17 1088 q 163 1070 106 1088 q 251 1019 219 1053 q 296 934 283 985 q 308 818 308 883 l 308 614 q 338 520 308 560 q 432 481 368 481 l 432 349 z "},"~":{"ha":789,"x_min":46,"x_max":740,"o":"m 535 288 q 455 305 492 288 q 383 343 418 322 q 317 381 349 364 q 251 399 285 399 q 197 373 218 399 q 161 294 176 347 l 46 326 q 66 398 53 360 q 103 469 79 436 q 164 524 128 501 q 251 546 200 546 q 331 528 294 546 q 403 490 368 511 q 469 451 438 468 q 535 433 501 433 q 590 460 569 433 q 625 539 611 486 l 740 507 q 720 435 733 474 q 683 365 707 397 q 622 310 658 332 q 535 288 586 288 z "},"€":{"ha":789,"x_min":53,"x_max":765,"o":"m 169 661 q 302 901 204 821 q 553 981 400 981 q 656 972 614 981 q 742 949 699 964 l 706 813 q 635 833 672 825 q 551 840 599 840 q 406 792 457 840 q 336 661 356 744 l 651 661 l 629 543 l 319 543 q 318 512 318 526 q 318 482 318 497 q 318 456 318 468 q 319 428 318 443 l 607 428 l 583 308 l 335 308 q 412 165 357 206 q 549 124 467 124 q 646 133 601 124 q 731 161 690 143 l 765 26 q 675 -3 733 11 q 542 -18 617 -18 q 283 68 374 -18 q 165 308 193 154 l 53 308 l 53 428 l 154 428 q 153 456 153 443 q 153 482 153 468 q 153 513 153 497 q 154 543 153 528 l 53 543 l 53 661 l 169 661 z "},"‚":{"ha":350,"x_min":42,"x_max":269,"o":"m 268 185 q 269 159 269 172 q 269 135 269 146 q 239 -33 269 47 q 164 -178 208 -114 l 42 -144 q 85 -15 69 -83 q 100 114 100 53 q 99 146 100 125 q 96 185 99 167 l 268 185 z "},"ƒ":{"ha":556,"x_min":-94,"x_max":572,"o":"m 107 778 q 181 998 107 918 q 403 1078 254 1078 q 506 1067 461 1078 q 572 1049 550 1057 l 540 910 q 485 928 517 921 q 418 935 454 935 q 350 923 378 935 q 306 890 322 911 q 282 840 289 869 q 275 775 275 810 l 275 726 l 539 726 l 539 586 l 275 586 l 275 19 q 208 -190 275 -122 q 14 -258 140 -258 q -37 -255 -4 -258 q -94 -242 -69 -251 l -72 -104 q 1 -114 -42 -114 q 83 -80 60 -114 q 107 22 107 -46 l 107 778 z "},"„":{"ha":626,"x_min":42,"x_max":546,"o":"m 544 185 q 546 159 546 172 q 546 135 546 146 q 515 -33 546 47 q 440 -178 485 -114 l 318 -144 q 361 -15 346 -83 q 376 114 376 53 q 376 146 376 125 q 372 185 375 167 l 544 185 m 268 185 q 269 159 269 172 q 269 135 269 146 q 239 -33 269 47 q 164 -178 208 -114 l 42 -144 q 85 -15 69 -83 q 100 114 100 53 q 99 146 100 125 q 96 185 99 167 l 268 185 z "},"…":{"ha":1389,"x_min":168,"x_max":1219,"o":"m 390 92 q 358 13 390 43 q 279 -18 325 -18 q 200 13 232 -18 q 168 92 168 43 q 200 172 168 140 q 279 203 232 203 q 358 172 325 203 q 390 92 390 140 m 1219 92 q 1187 13 1219 43 q 1108 -18 1154 -18 q 1029 13 1061 -18 q 997 92 997 43 q 1029 172 997 140 q 1108 203 1061 203 q 1187 172 1154 203 q 1219 92 1219 140 m 806 92 q 773 13 806 43 q 694 -18 740 -18 q 615 13 647 -18 q 583 92 583 43 q 615 172 583 140 q 694 203 647 203 q 773 172 740 203 q 806 92 806 140 z "},"†":{"ha":671,"x_min":50,"x_max":621,"o":"m 406 538 l 406 203 q 399 -8 406 88 q 379 -201 393 -103 l 290 -201 q 270 -8 276 -103 q 264 203 264 88 l 264 538 l 50 538 l 50 671 l 264 671 l 264 963 l 406 963 l 406 671 l 621 671 l 621 538 l 406 538 z "},"‡":{"ha":671,"x_min":50,"x_max":621,"o":"m 406 169 q 398 -22 404 65 q 379 -201 392 -110 l 290 -201 q 272 -22 278 -110 q 264 169 265 65 l 50 169 l 50 303 l 264 303 l 264 538 l 50 538 l 50 671 l 264 671 l 264 963 l 406 963 l 406 671 l 621 671 l 621 538 l 406 538 l 406 303 l 621 303 l 621 169 l 406 169 z "},"ˆ":{"ha":542,"x_min":68,"x_max":474,"o":"m 474 882 l 408 808 l 271 921 l 135 808 l 68 882 l 271 1076 l 474 882 z "},"‰":{"ha":1782,"x_min":65,"x_max":1717,"o":"m 532 721 q 467 526 532 594 q 299 458 403 458 q 204 476 247 458 q 131 526 161 493 q 83 609 100 560 q 65 721 65 658 q 130 916 65 849 q 299 983 194 983 q 467 916 403 983 q 532 721 532 849 m 400 721 q 373 831 400 794 q 299 868 346 868 q 225 831 251 868 q 199 721 199 794 q 225 610 199 647 q 299 574 251 574 q 373 610 346 574 q 400 721 400 647 m 814 963 l 974 963 l 431 0 l 271 0 l 814 963 m 1181 240 q 1116 46 1181 114 q 947 -22 1051 -22 q 853 -5 896 -22 q 779 46 810 13 q 731 128 749 79 q 714 240 714 178 q 778 435 714 368 q 947 503 843 503 q 1116 435 1051 503 q 1181 240 1181 368 m 1049 240 q 1022 351 1049 314 q 947 388 994 388 q 874 351 900 388 q 847 240 847 314 q 874 130 847 167 q 947 93 900 93 q 1022 130 994 93 q 1049 240 1049 167 m 1717 240 q 1652 46 1717 114 q 1483 -22 1588 -22 q 1389 -5 1432 -22 q 1315 46 1346 13 q 1267 128 1285 79 q 1250 240 1250 178 q 1315 435 1250 368 q 1483 503 1379 503 q 1652 435 1588 503 q 1717 240 1717 368 m 1585 240 q 1558 351 1585 314 q 1483 388 1531 388 q 1410 351 1436 388 q 1383 240 1383 314 q 1410 130 1383 167 q 1483 93 1436 93 q 1558 130 1531 93 q 1585 240 1585 167 z "},"Š":{"ha":750,"x_min":42,"x_max":711,"o":"m 349 131 q 486 163 443 131 q 529 253 529 194 q 515 313 529 288 q 473 358 500 338 q 407 395 446 378 q 318 429 368 413 q 222 469 268 447 q 140 522 175 490 q 83 599 104 554 q 61 706 61 643 q 151 910 61 836 q 397 985 242 985 q 558 965 488 985 q 668 921 628 944 l 614 779 q 510 819 567 806 q 394 833 454 833 q 284 804 324 833 q 244 722 244 775 q 258 667 244 690 q 295 626 271 644 q 352 593 319 608 q 424 564 385 578 q 545 513 492 539 q 635 452 599 488 q 692 369 672 417 q 711 253 711 321 q 619 51 711 122 q 349 -21 526 -21 q 240 -13 289 -21 q 152 6 190 -6 q 86 28 114 17 q 42 50 58 40 l 93 193 q 194 151 131 172 q 349 131 258 131 m 393 1033 l 190 1228 l 257 1301 l 393 1189 l 531 1301 l 596 1228 l 393 1033 z "},"‹":{"ha":435,"x_min":38,"x_max":383,"o":"m 383 135 l 260 74 l 38 394 l 260 714 l 383 653 l 236 394 l 383 135 z "},"Œ":{"ha":1381,"x_min":76,"x_max":1333,"o":"m 756 0 q 683 -7 722 -4 q 611 -10 643 -10 q 396 20 494 -10 q 226 111 297 50 q 116 265 156 172 q 76 482 76 357 q 116 699 76 607 q 227 851 156 790 q 397 941 299 911 q 611 971 494 971 q 683 969 643 971 q 756 963 722 967 l 1300 963 l 1300 815 l 879 815 l 879 575 l 1250 575 l 1250 432 l 879 432 l 879 147 l 1333 147 l 1333 0 l 756 0 m 610 140 q 707 144 661 140 l 707 817 q 656 820 678 819 q 610 821 633 821 q 349 733 440 821 q 258 482 258 644 q 349 229 258 318 q 610 140 440 140 z "},"‘":{"ha":350,"x_min":79,"x_max":308,"o":"m 82 704 q 79 740 79 722 q 79 769 79 758 q 112 929 82 853 q 185 1067 142 1006 l 308 1033 q 265 904 281 972 q 250 775 250 836 q 250 743 250 764 q 253 704 250 722 l 82 704 z "},"’":{"ha":350,"x_min":42,"x_max":271,"o":"m 268 1053 q 270 1018 269 1036 q 269 989 271 1000 q 237 828 267 906 q 164 692 207 751 l 42 724 q 85 853 69 785 q 100 983 100 921 q 99 1014 100 993 q 96 1053 99 1035 l 268 1053 z "},"“":{"ha":629,"x_min":79,"x_max":588,"o":"m 82 704 q 79 740 79 722 q 79 769 79 758 q 112 929 82 853 q 185 1067 142 1006 l 308 1033 q 265 904 281 972 q 250 775 250 836 q 250 743 250 764 q 253 704 250 722 l 82 704 m 361 704 q 358 740 358 722 q 358 769 358 758 q 391 929 361 853 q 464 1067 421 1006 l 588 1033 q 544 904 560 972 q 529 775 529 836 q 529 743 529 764 q 532 704 529 722 l 361 704 z "},"”":{"ha":631,"x_min":42,"x_max":551,"o":"m 268 1053 q 270 1018 269 1036 q 269 989 271 1000 q 237 828 267 906 q 164 692 207 751 l 42 724 q 85 853 69 785 q 100 983 100 921 q 99 1014 100 993 q 96 1053 99 1035 l 268 1053 m 549 1053 q 551 1018 550 1036 q 550 989 551 1000 q 517 828 547 906 q 444 692 488 751 l 322 724 q 365 853 350 785 q 381 983 381 921 q 380 1014 381 993 q 376 1053 379 1035 l 549 1053 z "},"•":{"ha":514,"x_min":68,"x_max":446,"o":"m 446 490 q 433 419 446 453 q 394 359 419 385 q 335 318 369 333 q 257 303 300 303 q 178 318 213 303 q 119 359 143 333 q 81 419 94 385 q 68 490 68 453 q 81 562 68 528 q 119 621 94 596 q 178 661 143 646 q 257 676 213 676 q 335 661 300 676 q 394 621 369 646 q 433 562 419 596 q 446 490 446 528 z "},"–":{"ha":694,"x_min":0,"x_max":694,"o":"m 0 468 l 694 468 l 694 326 l 0 326 l 0 468 z "},"—":{"ha":1389,"x_min":0,"x_max":1389,"o":"m 0 468 l 1389 468 l 1389 326 l 0 326 l 0 468 z "},"˜":{"ha":543,"x_min":28,"x_max":514,"o":"m 514 986 q 492 944 506 967 q 460 901 479 921 q 415 867 440 881 q 360 853 390 853 q 313 860 335 853 q 269 878 290 868 q 227 895 247 888 q 188 903 207 903 q 142 885 161 903 q 113 843 124 867 l 28 893 q 48 935 35 913 q 81 978 61 958 q 126 1013 101 999 q 182 1026 151 1026 q 229 1018 207 1026 q 273 1001 251 1010 q 315 983 294 992 q 354 975 335 975 q 399 994 381 975 q 429 1036 418 1013 l 514 986 z "},"™":{"ha":1156,"x_min":28,"x_max":1092,"o":"m 446 963 l 446 849 l 301 849 l 301 486 l 172 486 l 172 849 l 28 849 l 28 963 l 446 963 m 1053 963 q 1073 776 1065 889 q 1092 486 1081 663 l 969 486 q 963 644 967 560 q 953 800 958 729 q 917 736 936 772 q 879 665 897 700 q 846 598 861 629 q 822 549 831 567 l 750 549 q 726 597 742 567 q 692 663 711 628 q 654 735 674 699 q 619 800 635 771 q 610 644 614 729 q 603 486 606 560 l 479 486 q 502 776 493 663 q 522 963 511 889 l 651 963 q 713 842 676 913 q 785 696 749 771 q 860 842 822 771 q 921 963 897 913 l 1053 963 z "},"š":{"ha":635,"x_min":51,"x_max":585,"o":"m 289 121 q 386 137 356 121 q 417 192 417 153 q 384 251 417 228 q 276 303 351 275 q 192 338 231 319 q 126 382 154 357 q 83 442 99 407 q 67 529 67 478 q 140 687 67 629 q 340 744 214 744 q 463 733 404 744 q 550 710 521 721 l 519 574 q 449 597 492 586 q 349 607 406 607 q 265 590 297 607 q 233 536 233 572 q 240 504 233 518 q 261 478 246 490 q 301 455 276 467 q 363 431 326 443 q 464 387 422 408 q 533 338 506 365 q 572 276 560 311 q 585 193 585 242 q 508 35 585 89 q 288 -18 431 -18 q 133 -2 192 -18 q 51 24 75 14 l 81 164 q 170 135 118 149 q 289 121 222 121 m 331 814 l 128 1008 l 194 1082 l 331 969 l 468 1082 l 533 1008 l 331 814 z "},"›":{"ha":435,"x_min":51,"x_max":397,"o":"m 199 394 l 51 653 l 175 714 l 397 394 l 175 74 l 51 135 l 199 394 z "},"œ":{"ha":1310,"x_min":67,"x_max":1239,"o":"m 956 -18 q 784 16 856 -18 q 668 115 713 50 q 557 15 622 49 q 413 -19 492 -19 q 272 8 335 -19 q 163 86 208 36 q 92 207 117 136 q 67 364 67 278 q 92 520 67 450 q 164 640 118 590 q 273 717 210 690 q 413 744 336 744 q 563 710 497 744 q 672 608 628 675 q 786 713 721 681 q 921 744 851 744 q 1156 651 1072 744 q 1239 374 1239 558 q 1238 340 1239 357 q 1236 311 1238 324 l 754 311 q 817 176 761 224 q 976 128 872 128 q 1090 139 1039 128 q 1169 163 1140 150 l 1192 25 q 1153 10 1178 18 q 1098 -3 1129 3 q 1030 -14 1067 -10 q 956 -18 993 -18 m 1071 435 q 1061 501 1071 469 q 1033 555 1051 532 q 987 591 1014 578 q 922 604 960 604 q 854 590 883 604 q 805 551 825 575 q 774 497 785 528 q 758 435 763 467 l 1071 435 m 590 364 q 544 535 590 472 q 414 599 497 599 q 284 535 331 599 q 238 364 238 472 q 284 190 238 254 q 414 126 331 126 q 544 190 497 126 q 590 364 590 254 z "},"Ÿ":{"ha":868,"x_min":4,"x_max":864,"o":"m 439 536 q 561 747 501 640 q 669 963 621 854 l 864 963 q 702 670 786 815 q 522 378 618 525 l 522 0 l 347 0 l 347 375 q 167 669 251 524 q 4 963 82 815 l 210 963 q 317 747 258 854 q 439 536 375 640 m 290 1065 q 225 1090 253 1065 q 197 1158 197 1115 q 225 1227 197 1201 q 290 1253 253 1253 q 356 1227 328 1253 q 385 1158 385 1201 q 356 1090 385 1115 q 290 1065 328 1065 m 578 1065 q 512 1090 540 1065 q 483 1158 483 1115 q 512 1227 483 1201 q 578 1253 540 1253 q 643 1227 615 1253 q 671 1158 671 1201 q 643 1090 671 1115 q 578 1065 615 1065 z "}," ":{"ha":324,"x_min":0,"x_max":0,"o":""},"¡":{"ha":425,"x_min":101,"x_max":324,"o":"m 303 -254 l 124 -254 l 124 4 q 132 215 124 118 q 154 408 140 311 l 274 408 q 294 215 286 311 q 303 4 303 119 l 303 -254 m 324 617 q 292 537 324 568 q 213 506 260 506 q 134 537 167 506 q 101 617 101 568 q 134 696 101 665 q 213 726 167 726 q 292 696 260 726 q 324 617 324 665 z "},"¢":{"ha":789,"x_min":92,"x_max":661,"o":"m 350 50 q 156 176 219 79 q 92 406 92 272 q 109 528 92 469 q 160 633 126 586 q 241 712 193 679 q 350 760 289 744 l 350 961 l 507 961 l 507 771 q 650 738 581 765 l 613 601 q 547 621 583 613 q 468 629 511 629 q 317 571 369 629 q 265 406 265 513 q 315 242 265 301 q 478 183 364 183 q 565 192 522 183 q 638 213 607 200 l 661 75 q 596 54 638 64 q 507 40 554 44 l 507 -151 l 350 -151 l 350 50 z "},"£":{"ha":789,"x_min":69,"x_max":722,"o":"m 360 532 l 607 532 l 607 396 l 360 396 q 355 269 360 336 q 340 142 350 201 l 722 142 l 722 0 l 153 0 q 194 396 194 213 l 69 396 l 69 532 l 194 532 l 194 624 q 218 798 194 729 q 283 907 242 867 q 383 964 325 947 q 511 981 442 981 q 615 969 569 981 q 701 940 660 958 l 660 804 q 517 836 594 835 q 451 827 481 836 q 402 795 422 818 q 371 733 382 772 q 360 633 360 693 l 360 532 z "},"¤":{"ha":789,"x_min":49,"x_max":739,"o":"m 394 751 q 531 719 471 751 l 635 821 l 739 717 l 638 618 q 672 482 672 561 q 638 346 672 401 l 739 246 l 633 142 l 531 243 q 394 211 471 211 q 257 243 317 211 l 154 143 l 49 246 l 150 344 q 115 482 115 401 q 150 618 115 561 l 49 717 l 154 821 l 257 719 q 394 751 317 751 m 394 335 q 492 373 451 335 q 533 482 533 411 q 492 590 533 551 q 394 628 451 628 q 296 590 336 628 q 256 482 256 551 q 296 373 256 411 q 394 335 336 335 z "},"¥":{"ha":789,"x_min":10,"x_max":779,"o":"m 694 150 l 479 150 l 479 0 l 311 0 l 311 150 l 96 150 l 96 268 l 311 268 l 311 385 l 96 385 l 96 503 l 260 503 q 127 738 193 617 q 10 963 61 858 l 199 963 q 294 758 246 860 q 399 560 343 656 q 499 758 451 656 q 592 963 546 861 l 779 963 q 660 735 721 850 q 529 503 600 621 l 694 503 l 694 385 l 479 385 l 479 268 l 694 268 l 694 150 z "},"¦":{"ha":417,"x_min":129,"x_max":288,"o":"m 129 285 l 288 285 l 288 -257 l 129 -257 l 129 285 m 129 1088 l 288 1088 l 288 546 l 129 546 l 129 1088 z "},"§":{"ha":707,"x_min":56,"x_max":653,"o":"m 97 36 q 207 1 150 14 q 325 -11 264 -11 q 369 -8 346 -11 q 413 3 393 -6 q 447 26 433 11 q 460 64 460 40 q 428 122 460 100 q 315 174 396 144 q 217 212 263 192 q 136 260 171 232 q 81 329 101 289 q 61 428 61 369 q 71 492 61 463 q 97 545 81 521 q 135 590 114 569 q 176 626 156 610 q 124 689 143 654 q 106 767 106 724 q 178 926 106 868 q 386 985 251 985 q 517 971 453 985 q 626 940 582 957 l 586 803 q 499 831 547 818 q 385 844 451 844 q 301 827 332 844 q 269 775 269 810 q 299 715 269 736 q 399 669 328 693 q 501 630 454 650 q 581 581 547 610 q 634 512 615 551 q 653 417 653 472 q 619 305 653 350 q 542 226 586 260 q 626 67 626 165 q 601 -39 626 3 q 534 -106 576 -81 q 438 -141 492 -131 q 325 -151 383 -151 q 167 -134 238 -151 q 56 -97 97 -117 l 97 36 m 283 557 q 232 504 251 533 q 213 442 213 475 q 259 355 213 385 q 385 299 306 325 l 426 283 q 478 336 458 307 q 497 399 497 365 q 481 456 497 433 q 437 494 465 478 q 369 525 408 511 q 283 557 331 539 z "},"¨":{"ha":563,"x_min":44,"x_max":518,"o":"m 138 846 q 72 871 100 846 q 44 939 44 896 q 72 1008 44 982 q 138 1033 100 1033 q 203 1008 175 1033 q 232 939 232 982 q 203 871 232 896 q 138 846 175 846 m 425 846 q 359 871 388 846 q 331 939 331 896 q 359 1008 331 982 q 425 1033 388 1033 q 490 1008 463 1033 q 518 939 518 982 q 490 871 518 896 q 425 846 463 846 z "},"©":{"ha":1131,"x_min":86,"x_max":1044,"o":"m 1044 482 q 1006 269 1044 363 q 901 112 967 176 q 748 13 835 47 q 565 -21 661 -21 q 384 13 471 -21 q 231 112 297 47 q 126 269 165 176 q 86 482 86 363 q 126 694 86 600 q 231 852 165 788 q 384 951 297 917 q 565 985 471 985 q 748 951 661 985 q 901 852 835 917 q 1006 694 967 788 q 1044 482 1044 600 m 924 482 q 897 641 924 569 q 823 764 871 713 q 710 843 775 815 q 565 871 644 871 q 421 843 486 871 q 308 764 356 815 q 235 641 261 713 q 208 482 208 569 q 235 322 208 394 q 308 199 261 250 q 421 119 356 147 q 565 92 486 92 q 710 119 644 92 q 823 199 775 147 q 897 322 871 250 q 924 482 924 394 m 585 208 q 394 280 463 208 q 325 483 325 351 q 344 599 325 547 q 399 685 364 650 q 481 738 433 719 q 583 757 528 757 q 696 738 653 757 q 753 711 739 719 l 714 608 q 666 630 696 619 q 592 640 636 640 q 496 601 533 640 q 458 486 458 561 q 466 423 458 453 q 490 372 474 393 q 531 338 506 350 q 593 325 557 325 q 673 335 642 325 q 725 356 704 346 l 758 250 q 696 225 742 242 q 585 208 650 208 z "},"ª":{"ha":558,"x_min":49,"x_max":489,"o":"m 175 607 q 185 574 175 586 q 213 555 196 561 q 252 547 231 549 q 296 544 274 544 q 338 546 319 544 q 367 550 357 547 l 367 672 q 334 677 354 675 q 294 679 314 679 q 257 677 278 679 q 218 667 236 675 q 188 645 200 660 q 175 607 175 631 m 269 982 q 373 967 331 982 q 441 926 415 953 q 478 863 467 900 q 489 779 489 825 l 489 464 q 399 449 457 457 q 271 442 340 442 q 110 480 171 442 q 49 611 49 518 q 67 688 49 657 q 116 737 85 718 q 188 764 147 756 q 275 772 229 772 q 322 770 299 772 q 367 765 344 768 l 367 774 q 344 843 367 814 q 258 872 322 872 q 184 867 222 872 q 118 853 146 863 l 100 958 q 174 974 126 967 q 269 982 221 982 z "},"«":{"ha":767,"x_min":38,"x_max":715,"o":"m 715 135 l 592 74 l 369 394 l 592 714 l 715 653 l 568 394 l 715 135 m 383 135 l 260 74 l 38 394 l 260 714 l 383 653 l 236 394 l 383 135 z "},"¬":{"ha":789,"x_min":72,"x_max":717,"o":"m 717 65 l 567 65 l 567 410 l 72 410 l 72 551 l 717 551 l 717 65 z "},"­":{"ha":438,"x_min":32,"x_max":406,"o":"m 32 474 l 406 474 l 406 319 l 32 319 l 32 474 z "},"®":{"ha":1131,"x_min":86,"x_max":1044,"o":"m 1044 482 q 1006 269 1044 363 q 901 112 967 176 q 748 13 835 47 q 565 -21 661 -21 q 384 13 471 -21 q 231 112 297 47 q 126 269 165 176 q 86 482 86 363 q 126 694 86 600 q 231 852 165 788 q 384 951 297 917 q 565 985 471 985 q 748 951 661 985 q 901 852 835 917 q 1006 694 967 788 q 1044 482 1044 600 m 924 482 q 897 641 924 569 q 823 764 871 713 q 710 843 775 815 q 565 871 644 871 q 421 843 486 871 q 308 764 356 815 q 235 641 261 713 q 208 482 208 569 q 235 322 208 394 q 308 199 261 250 q 421 119 356 147 q 565 92 486 92 q 710 119 644 92 q 823 199 775 147 q 897 322 871 250 q 924 482 924 394 m 676 225 q 621 331 649 283 q 568 411 593 379 l 493 411 l 493 225 l 376 225 l 376 732 q 461 747 419 743 q 535 751 503 751 q 709 708 650 751 q 768 578 768 665 q 745 495 768 531 q 679 440 722 460 q 739 347 707 400 q 801 225 771 294 l 676 225 m 493 506 l 532 506 q 618 520 586 506 q 650 579 650 535 q 620 634 650 618 q 544 650 590 650 q 520 650 532 650 q 493 647 508 650 l 493 506 z "},"¯":{"ha":540,"x_min":60,"x_max":481,"o":"m 481 997 l 481 876 l 60 876 l 60 997 l 481 997 z "},"°":{"ha":482,"x_min":32,"x_max":450,"o":"m 240 1081 q 320 1067 282 1081 q 388 1026 358 1053 q 433 962 417 1000 q 450 876 450 924 q 433 791 450 829 q 388 726 417 753 q 320 686 358 700 q 240 672 282 672 q 161 686 199 672 q 94 726 124 700 q 49 791 65 753 q 32 876 32 829 q 49 962 32 924 q 94 1026 65 1000 q 161 1067 124 1053 q 240 1081 199 1081 m 240 785 q 303 809 276 785 q 329 876 329 833 q 303 944 329 919 q 240 969 276 969 q 178 944 204 969 q 151 876 151 919 q 178 809 151 833 q 240 785 204 785 z "},"±":{"ha":789,"x_min":72,"x_max":717,"o":"m 72 607 l 319 607 l 319 864 l 469 864 l 469 607 l 717 607 l 717 465 l 469 465 l 469 207 l 319 207 l 319 465 l 72 465 l 72 607 m 72 142 l 717 142 l 717 0 l 72 0 l 72 142 z "},"²":{"ha":504,"x_min":39,"x_max":447,"o":"m 429 822 q 419 768 429 793 q 389 718 408 743 q 341 667 369 693 q 275 607 313 640 q 235 569 254 589 q 210 535 217 550 l 447 535 l 447 428 l 63 428 q 63 476 61 454 q 106 592 68 543 q 204 690 144 640 q 272 756 246 726 q 299 814 299 785 q 281 856 299 842 q 232 871 264 871 q 153 852 188 871 q 100 818 119 833 l 39 907 q 120 960 68 935 q 235 985 172 985 q 383 941 338 985 q 429 822 429 897 z "},"³":{"ha":504,"x_min":44,"x_max":449,"o":"m 214 525 q 299 544 276 525 q 322 592 322 563 q 287 647 322 631 q 197 664 251 664 l 156 664 l 156 761 l 201 761 q 268 775 238 761 q 299 822 299 789 q 222 876 299 876 q 155 865 186 876 q 97 840 124 853 l 53 933 q 131 969 81 953 q 229 985 181 985 q 319 973 282 985 q 378 940 356 961 q 411 892 401 919 q 421 833 421 864 q 353 725 421 769 q 424 671 400 706 q 449 590 449 636 q 436 522 449 554 q 396 467 424 490 q 324 430 368 443 q 215 417 279 417 q 122 427 171 417 q 44 451 74 438 l 71 556 q 144 533 111 540 q 214 525 176 525 z "},"´":{"ha":544,"x_min":129,"x_max":439,"o":"m 439 1024 l 213 804 l 129 879 l 333 1122 l 439 1024 z "},"µ":{"ha":821,"x_min":107,"x_max":714,"o":"m 275 726 l 275 338 q 284 238 275 278 q 312 174 293 199 q 360 140 331 150 q 429 129 389 129 q 495 132 461 129 q 546 139 529 135 l 546 726 l 714 726 l 714 22 q 591 -3 664 10 q 433 -15 518 -15 q 335 -3 376 -15 q 267 29 294 8 q 272 -41 271 -4 q 274 -126 274 -78 l 274 -244 l 107 -244 l 107 726 l 275 726 z "},"¶":{"ha":949,"x_min":56,"x_max":814,"o":"m 371 361 q 135 451 215 379 q 56 663 56 522 q 176 893 56 814 q 511 972 297 972 q 666 965 583 972 q 814 943 749 958 l 814 -257 l 663 -257 l 663 828 q 622 832 647 831 q 578 833 597 833 q 549 833 564 833 q 524 832 535 833 l 524 -257 l 371 -257 l 371 361 z "},"·":{"ha":292,"x_min":36,"x_max":258,"o":"m 258 408 q 226 329 258 360 q 147 299 193 299 q 68 329 100 299 q 36 408 36 360 q 68 488 36 457 q 147 519 100 519 q 226 488 193 519 q 258 408 258 457 z "},"¸":{"ha":542,"x_min":92,"x_max":376,"o":"m 297 -54 q 359 -101 342 -75 q 376 -167 376 -128 q 335 -250 376 -215 q 210 -285 293 -285 q 92 -267 143 -285 l 111 -167 q 147 -176 125 -171 q 193 -182 169 -182 q 230 -174 217 -182 q 243 -149 243 -165 q 224 -116 243 -126 q 185 -99 204 -106 l 171 -94 q 183 -62 175 -81 q 200 -26 192 -44 q 215 6 208 -8 q 226 28 222 21 l 338 28 q 317 -12 329 13 q 297 -54 304 -37 z "},"¹":{"ha":504,"x_min":65,"x_max":360,"o":"m 65 860 q 174 910 121 881 q 265 974 226 939 l 360 974 l 360 428 l 232 428 l 232 819 q 169 788 204 803 q 100 763 135 774 l 65 860 l 65 860 z "},"º":{"ha":632,"x_min":56,"x_max":576,"o":"m 576 711 q 557 599 576 649 q 503 513 538 549 q 422 459 469 478 q 317 440 374 440 q 212 459 260 440 q 129 513 164 478 q 75 599 94 549 q 56 711 56 649 q 75 824 56 774 q 129 910 94 875 q 212 965 164 946 q 317 983 260 983 q 422 965 374 983 q 503 910 469 946 q 557 824 538 875 q 576 711 576 774 m 446 711 q 413 826 446 783 q 317 868 379 868 q 220 826 254 868 q 186 711 186 783 q 220 598 186 640 q 317 556 254 556 q 413 598 379 556 q 446 711 446 640 z "},"»":{"ha":767,"x_min":51,"x_max":729,"o":"m 199 394 l 51 653 l 175 714 l 397 394 l 175 74 l 51 135 l 199 394 m 531 394 l 383 653 l 507 714 l 729 394 l 507 74 l 383 135 l 531 394 z "},"¼":{"ha":1219,"x_min":50,"x_max":1190,"o":"m 940 963 l 422 0 l 265 0 l 785 963 l 940 963 m 50 860 q 158 910 106 881 q 250 974 211 939 l 344 974 l 344 428 l 217 428 l 217 819 q 154 788 189 803 q 85 763 119 774 l 50 860 l 50 860 m 1011 415 q 938 325 975 375 q 872 224 900 275 l 1011 224 l 1011 415 m 1124 224 l 1190 224 l 1190 125 l 1124 125 l 1124 1 l 1011 1 l 1011 125 l 747 125 l 747 207 q 801 293 771 249 q 865 382 831 338 q 935 469 899 426 q 1010 547 972 511 l 1124 547 l 1124 224 z "},"½":{"ha":1219,"x_min":50,"x_max":1157,"o":"m 906 963 l 388 0 l 231 0 l 750 963 l 906 963 m 50 860 q 158 910 106 881 q 250 974 211 939 l 344 974 l 344 428 l 217 428 l 217 819 q 154 788 189 803 q 85 763 119 774 l 50 860 l 50 860 m 1139 396 q 1128 342 1139 367 q 1099 292 1118 317 q 1051 240 1079 267 q 985 181 1022 214 q 945 143 964 163 q 919 108 926 124 l 1157 108 l 1157 1 l 772 1 q 772 50 771 28 q 816 165 778 117 q 914 264 854 214 q 982 329 956 300 q 1008 388 1008 358 q 991 430 1008 415 q 942 444 974 444 q 863 426 897 444 q 810 392 829 407 l 749 481 q 830 533 778 508 q 944 558 882 558 q 1093 515 1047 558 q 1139 396 1139 471 z "},"¾":{"ha":1219,"x_min":40,"x_max":1190,"o":"m 965 963 l 447 0 l 290 0 l 810 963 l 965 963 m 1011 415 q 938 325 975 375 q 872 224 900 275 l 1011 224 l 1011 415 m 1124 224 l 1190 224 l 1190 125 l 1124 125 l 1124 1 l 1011 1 l 1011 125 l 747 125 l 747 207 q 801 293 771 249 q 865 382 831 338 q 935 469 899 426 q 1010 547 972 511 l 1124 547 l 1124 224 m 210 525 q 295 544 272 525 q 318 592 318 563 q 283 647 318 631 q 193 664 247 664 l 151 664 l 151 761 l 197 761 q 264 775 233 761 q 294 822 294 789 q 218 876 294 876 q 151 865 182 876 q 93 840 119 853 l 49 933 q 126 969 76 953 q 225 985 176 985 q 315 973 278 985 q 374 940 351 961 q 407 892 397 919 q 417 833 417 864 q 349 725 417 769 q 420 671 396 706 q 444 590 444 636 q 432 522 444 554 q 392 467 419 490 q 319 430 364 443 q 211 417 275 417 q 118 427 167 417 q 40 451 69 438 l 67 556 q 140 533 107 540 q 210 525 172 525 z "},"¿":{"ha":589,"x_min":33,"x_max":567,"o":"m 333 -133 q 426 -122 382 -133 q 519 -83 471 -110 l 567 -212 q 449 -259 515 -242 q 314 -276 383 -276 q 176 -253 231 -276 q 90 -196 122 -231 q 46 -119 58 -161 q 33 -39 33 -78 q 51 46 33 8 q 94 115 68 83 q 151 176 121 147 q 208 234 182 204 q 252 297 235 264 q 269 372 269 331 q 269 388 269 379 q 268 406 269 397 l 413 406 q 417 376 415 392 q 418 346 418 360 q 403 264 418 300 q 364 197 388 228 q 313 140 340 167 q 263 88 286 114 q 224 33 239 61 q 208 -28 208 6 q 240 -103 208 -74 q 333 -133 271 -133 m 225 617 q 257 696 225 665 q 336 726 289 726 q 415 696 382 726 q 447 617 447 665 q 415 537 447 568 q 336 506 382 506 q 257 537 289 506 q 225 617 225 568 z "},"À":{"ha":950,"x_min":7,"x_max":943,"o":"m 754 0 q 714 113 735 57 q 674 226 693 168 l 268 226 q 228 112 249 168 q 189 0 208 56 l 7 0 q 110 285 61 154 q 205 532 158 415 q 297 754 251 649 q 392 963 343 860 l 557 963 q 651 754 606 860 q 744 532 697 649 q 840 285 790 415 q 943 0 889 154 l 754 0 m 471 776 q 398 597 439 703 q 313 368 357 492 l 629 368 q 543 599 585 492 q 471 776 501 706 m 364 1347 l 565 1104 l 482 1029 l 257 1250 l 364 1347 z "},"Á":{"ha":950,"x_min":7,"x_max":943,"o":"m 754 0 q 714 113 735 57 q 674 226 693 168 l 268 226 q 228 112 249 168 q 189 0 208 56 l 7 0 q 110 285 61 154 q 205 532 158 415 q 297 754 251 649 q 392 963 343 860 l 557 963 q 651 754 606 860 q 744 532 697 649 q 840 285 790 415 q 943 0 889 154 l 754 0 m 471 776 q 398 597 439 703 q 313 368 357 492 l 629 368 q 543 599 585 492 q 471 776 501 706 m 696 1249 l 469 1029 l 386 1104 l 590 1347 l 696 1249 z "},"Â":{"ha":950,"x_min":7,"x_max":943,"o":"m 754 0 q 714 113 735 57 q 674 226 693 168 l 268 226 q 228 112 249 168 q 189 0 208 56 l 7 0 q 110 285 61 154 q 205 532 158 415 q 297 754 251 649 q 392 963 343 860 l 557 963 q 651 754 606 860 q 744 532 697 649 q 840 285 790 415 q 943 0 889 154 l 754 0 m 471 776 q 398 597 439 703 q 313 368 357 492 l 629 368 q 543 599 585 492 q 471 776 501 706 m 676 1106 l 611 1032 l 474 1144 l 338 1032 l 271 1106 l 474 1300 l 676 1106 z "},"Ã":{"ha":950,"x_min":7,"x_max":943,"o":"m 754 0 q 714 113 735 57 q 674 226 693 168 l 268 226 q 228 112 249 168 q 189 0 208 56 l 7 0 q 110 285 61 154 q 205 532 158 415 q 297 754 251 649 q 392 963 343 860 l 557 963 q 651 754 606 860 q 744 532 697 649 q 840 285 790 415 q 943 0 889 154 l 754 0 m 471 776 q 398 597 439 703 q 313 368 357 492 l 629 368 q 543 599 585 492 q 471 776 501 706 m 719 1207 q 698 1165 711 1188 q 665 1122 685 1142 q 621 1088 646 1101 q 565 1074 596 1074 q 518 1081 540 1074 q 474 1099 496 1089 q 433 1116 453 1108 q 393 1124 413 1124 q 348 1106 367 1124 q 318 1064 329 1088 l 233 1114 q 253 1156 240 1133 q 287 1199 267 1179 q 332 1233 307 1219 q 388 1247 357 1247 q 435 1239 413 1247 q 478 1222 457 1231 q 520 1204 500 1213 q 560 1196 540 1196 q 605 1215 586 1196 q 635 1257 624 1233 l 719 1207 z "},"Ä":{"ha":950,"x_min":7,"x_max":943,"o":"m 754 0 q 714 113 735 57 q 674 226 693 168 l 268 226 q 228 112 249 168 q 189 0 208 56 l 7 0 q 110 285 61 154 q 205 532 158 415 q 297 754 251 649 q 392 963 343 860 l 557 963 q 651 754 606 860 q 744 532 697 649 q 840 285 790 415 q 943 0 889 154 l 754 0 m 471 776 q 398 597 439 703 q 313 368 357 492 l 629 368 q 543 599 585 492 q 471 776 501 706 m 325 1065 q 260 1090 288 1065 q 232 1158 232 1115 q 260 1227 232 1201 q 325 1253 288 1253 q 391 1227 363 1253 q 419 1158 419 1201 q 391 1090 419 1115 q 325 1065 363 1065 m 613 1065 q 547 1090 575 1065 q 518 1158 518 1115 q 547 1227 518 1201 q 613 1253 575 1253 q 678 1227 650 1253 q 706 1158 706 1201 q 678 1090 706 1115 q 613 1065 650 1065 z "},"Å":{"ha":950,"x_min":7,"x_max":943,"o":"m 628 1044 q 613 975 628 1004 q 574 926 599 946 q 663 726 619 828 q 752 511 707 624 q 844 273 797 399 q 943 0 890 147 l 754 0 q 714 113 735 57 q 674 226 693 168 l 268 226 q 228 112 249 168 q 189 0 208 56 l 7 0 q 105 273 58 147 q 196 511 151 399 q 284 726 240 624 q 374 926 328 828 q 335 975 350 946 q 321 1044 321 1004 q 333 1108 321 1079 q 367 1155 346 1136 q 415 1184 388 1174 q 474 1194 443 1194 q 532 1184 504 1194 q 581 1155 560 1174 q 615 1108 603 1136 q 628 1044 628 1079 m 471 776 q 398 597 439 703 q 313 368 357 492 l 629 368 q 543 599 585 492 q 471 776 501 706 m 544 1044 q 524 1099 544 1079 q 474 1119 503 1119 q 425 1099 446 1119 q 404 1044 404 1079 q 425 989 404 1008 q 474 969 446 969 q 524 989 503 969 q 544 1044 544 1008 z "},"Æ":{"ha":1329,"x_min":4,"x_max":1282,"o":"m 664 238 l 321 238 q 256 119 289 179 q 194 0 222 58 l 4 0 q 313 537 168 301 q 592 963 457 772 l 1249 963 l 1249 815 l 835 815 l 835 575 l 1200 575 l 1200 432 l 835 432 l 835 147 l 1282 147 l 1282 0 l 664 0 l 664 238 m 664 804 q 601 713 635 763 q 533 607 568 663 q 464 493 499 551 q 396 378 429 435 l 664 378 l 664 804 z "},"Ç":{"ha":886,"x_min":79,"x_max":847,"o":"m 557 -54 q 619 -101 601 -75 q 636 -167 636 -128 q 594 -250 636 -215 q 469 -285 553 -285 q 351 -267 403 -285 l 371 -167 q 407 -176 385 -171 q 453 -182 429 -182 q 490 -174 476 -182 q 503 -149 503 -165 q 483 -116 503 -126 q 444 -99 464 -106 l 431 -94 q 445 -56 436 -78 q 464 -15 454 -35 q 181 135 282 7 q 79 482 79 263 q 116 696 79 603 q 217 853 153 789 q 367 951 281 918 q 551 985 453 985 q 660 976 611 985 q 744 956 708 967 q 804 932 781 944 q 838 914 828 919 l 786 771 q 691 810 753 792 q 557 829 629 829 q 440 808 494 829 q 347 743 386 786 q 285 635 307 700 q 263 483 263 569 q 280 343 263 407 q 333 233 297 279 q 425 160 369 186 q 558 135 481 135 q 710 153 651 135 q 800 189 768 172 l 847 46 q 744 5 817 26 q 572 -21 672 -17 q 563 -39 567 -31 q 557 -54 560 -47 z "},"È":{"ha":814,"x_min":115,"x_max":767,"o":"m 115 0 l 115 963 l 733 963 l 733 814 l 290 814 l 290 576 l 685 576 l 685 431 l 290 431 l 290 149 l 767 149 l 767 0 l 115 0 m 325 1347 l 526 1104 l 443 1029 l 218 1250 l 325 1347 z "},"É":{"ha":814,"x_min":115,"x_max":767,"o":"m 115 0 l 115 963 l 733 963 l 733 814 l 290 814 l 290 576 l 685 576 l 685 431 l 290 431 l 290 149 l 767 149 l 767 0 l 115 0 m 665 1249 l 439 1029 l 356 1104 l 560 1347 l 665 1249 z "},"Ê":{"ha":814,"x_min":115,"x_max":767,"o":"m 115 0 l 115 963 l 733 963 l 733 814 l 290 814 l 290 576 l 685 576 l 685 431 l 290 431 l 290 149 l 767 149 l 767 0 l 115 0 m 628 1106 l 563 1032 l 425 1144 l 289 1032 l 222 1106 l 425 1300 l 628 1106 z "},"Ë":{"ha":814,"x_min":115,"x_max":767,"o":"m 115 0 l 115 963 l 733 963 l 733 814 l 290 814 l 290 576 l 685 576 l 685 431 l 290 431 l 290 149 l 767 149 l 767 0 l 115 0 m 278 1065 q 213 1090 240 1065 q 185 1158 185 1115 q 213 1227 185 1201 q 278 1253 240 1253 q 344 1227 315 1253 q 372 1158 372 1201 q 344 1090 372 1115 q 278 1065 315 1065 m 565 1065 q 499 1090 528 1065 q 471 1158 471 1115 q 499 1227 471 1201 q 565 1253 528 1253 q 631 1227 603 1253 q 658 1158 658 1201 q 631 1090 658 1115 q 565 1065 603 1065 z "},"Ì":{"ha":406,"x_min":-18,"x_max":290,"o":"m 115 963 l 290 963 l 290 0 l 115 0 l 115 963 m 89 1347 l 290 1104 l 207 1029 l -18 1250 l 89 1347 z "},"Í":{"ha":406,"x_min":115,"x_max":429,"o":"m 115 963 l 290 963 l 290 0 l 115 0 l 115 963 m 429 1249 l 203 1029 l 119 1104 l 324 1347 l 429 1249 z "},"Î":{"ha":406,"x_min":1,"x_max":407,"o":"m 115 963 l 290 963 l 290 0 l 115 0 l 115 963 m 407 1106 l 342 1032 l 204 1144 l 68 1032 l 1 1106 l 204 1300 l 407 1106 z "},"Ï":{"ha":406,"x_min":-32,"x_max":442,"o":"m 115 963 l 290 963 l 290 0 l 115 0 l 115 963 m 61 1065 q -4 1090 24 1065 q -32 1158 -32 1115 q -4 1227 -32 1201 q 61 1253 24 1253 q 127 1227 99 1253 q 156 1158 156 1201 q 127 1090 156 1115 q 61 1065 99 1065 m 349 1065 q 283 1090 311 1065 q 254 1158 254 1115 q 283 1227 254 1201 q 349 1253 311 1253 q 414 1227 386 1253 q 442 1158 442 1201 q 414 1090 442 1115 q 349 1065 386 1065 z "},"Ð":{"ha":1028,"x_min":22,"x_max":951,"o":"m 22 567 l 135 567 l 135 949 q 276 968 201 964 q 410 972 351 972 q 631 944 531 972 q 802 855 731 915 q 913 702 874 794 q 951 482 951 610 q 913 265 951 357 q 802 110 874 172 q 630 19 731 49 q 407 -11 529 -11 q 275 -6 349 -11 q 135 14 201 -1 l 135 435 l 22 435 l 22 567 m 310 567 l 488 567 l 488 435 l 310 435 l 310 144 q 350 142 325 143 q 418 142 375 142 q 681 231 594 142 q 768 482 768 321 q 683 733 768 646 q 421 821 599 821 q 310 817 343 821 l 310 567 z "},"Ñ":{"ha":1028,"x_min":115,"x_max":913,"o":"m 764 0 q 658 170 717 79 q 538 353 600 261 q 410 533 475 446 q 288 689 346 619 l 288 0 l 115 0 l 115 963 l 258 963 q 378 824 314 904 q 506 658 442 744 q 631 485 571 572 q 739 324 692 399 l 739 963 l 913 963 l 913 0 l 764 0 m 758 1207 q 737 1165 750 1188 q 704 1122 724 1142 q 660 1088 685 1101 q 604 1074 635 1074 q 557 1081 579 1074 q 513 1099 535 1089 q 472 1116 492 1108 q 432 1124 451 1124 q 387 1106 406 1124 q 357 1064 368 1088 l 272 1114 q 292 1156 279 1133 q 326 1199 306 1179 q 371 1233 346 1219 q 426 1247 396 1247 q 474 1239 451 1247 q 517 1222 496 1231 q 559 1204 539 1213 q 599 1196 579 1196 q 644 1215 625 1196 q 674 1257 663 1233 l 758 1207 z "},"Ò":{"ha":1086,"x_min":76,"x_max":1010,"o":"m 258 482 q 278 338 258 403 q 334 228 297 274 q 424 158 371 183 q 543 133 476 133 q 661 158 608 133 q 751 228 714 183 q 807 338 788 274 q 826 482 826 403 q 807 626 826 561 q 751 735 788 690 q 661 806 714 781 q 543 831 608 831 q 424 806 476 831 q 334 735 371 781 q 278 625 297 689 q 258 482 258 561 m 1010 482 q 973 264 1010 358 q 873 106 936 169 q 725 11 810 43 q 544 -21 640 -21 q 363 11 449 -21 q 215 106 278 43 q 114 264 151 169 q 76 482 76 358 q 114 699 76 606 q 216 857 151 793 q 365 953 281 921 q 544 985 450 985 q 724 953 639 985 q 872 857 808 921 q 972 699 935 793 q 1010 482 1010 606 m 428 1347 l 629 1104 l 546 1029 l 321 1250 l 428 1347 z "},"Ó":{"ha":1086,"x_min":76,"x_max":1010,"o":"m 258 482 q 278 338 258 403 q 334 228 297 274 q 424 158 371 183 q 543 133 476 133 q 661 158 608 133 q 751 228 714 183 q 807 338 788 274 q 826 482 826 403 q 807 626 826 561 q 751 735 788 690 q 661 806 714 781 q 543 831 608 831 q 424 806 476 831 q 334 735 371 781 q 278 625 297 689 q 258 482 258 561 m 1010 482 q 973 264 1010 358 q 873 106 936 169 q 725 11 810 43 q 544 -21 640 -21 q 363 11 449 -21 q 215 106 278 43 q 114 264 151 169 q 76 482 76 358 q 114 699 76 606 q 216 857 151 793 q 365 953 281 921 q 544 985 450 985 q 724 953 639 985 q 872 857 808 921 q 972 699 935 793 q 1010 482 1010 606 m 763 1249 l 536 1029 l 453 1104 l 657 1347 l 763 1249 z "},"Ô":{"ha":1086,"x_min":76,"x_max":1010,"o":"m 258 482 q 278 338 258 403 q 334 228 297 274 q 424 158 371 183 q 543 133 476 133 q 661 158 608 133 q 751 228 714 183 q 807 338 788 274 q 826 482 826 403 q 807 626 826 561 q 751 735 788 690 q 661 806 714 781 q 543 831 608 831 q 424 806 476 831 q 334 735 371 781 q 278 625 297 689 q 258 482 258 561 m 1010 482 q 973 264 1010 358 q 873 106 936 169 q 725 11 810 43 q 544 -21 640 -21 q 363 11 449 -21 q 215 106 278 43 q 114 264 151 169 q 76 482 76 358 q 114 699 76 606 q 216 857 151 793 q 365 953 281 921 q 544 985 450 985 q 724 953 639 985 q 872 857 808 921 q 972 699 935 793 q 1010 482 1010 606 m 746 1106 l 681 1032 l 543 1144 l 407 1032 l 340 1106 l 543 1300 l 746 1106 z "},"Õ":{"ha":1086,"x_min":76,"x_max":1010,"o":"m 258 482 q 278 338 258 403 q 334 228 297 274 q 424 158 371 183 q 543 133 476 133 q 661 158 608 133 q 751 228 714 183 q 807 338 788 274 q 826 482 826 403 q 807 626 826 561 q 751 735 788 690 q 661 806 714 781 q 543 831 608 831 q 424 806 476 831 q 334 735 371 781 q 278 625 297 689 q 258 482 258 561 m 1010 482 q 973 264 1010 358 q 873 106 936 169 q 725 11 810 43 q 544 -21 640 -21 q 363 11 449 -21 q 215 106 278 43 q 114 264 151 169 q 76 482 76 358 q 114 699 76 606 q 216 857 151 793 q 365 953 281 921 q 544 985 450 985 q 724 953 639 985 q 872 857 808 921 q 972 699 935 793 q 1010 482 1010 606 m 788 1207 q 766 1165 779 1188 q 733 1122 753 1142 q 689 1088 714 1101 q 633 1074 664 1074 q 586 1081 608 1074 q 542 1099 564 1089 q 501 1116 521 1108 q 461 1124 481 1124 q 416 1106 435 1124 q 386 1064 397 1088 l 301 1114 q 322 1156 308 1133 q 355 1199 335 1179 q 400 1233 375 1219 q 456 1247 425 1247 q 503 1239 481 1247 q 547 1222 525 1231 q 588 1204 568 1213 q 628 1196 608 1196 q 673 1215 654 1196 q 703 1257 692 1233 l 788 1207 z "},"Ö":{"ha":1086,"x_min":76,"x_max":1010,"o":"m 258 482 q 278 338 258 403 q 334 228 297 274 q 424 158 371 183 q 543 133 476 133 q 661 158 608 133 q 751 228 714 183 q 807 338 788 274 q 826 482 826 403 q 807 626 826 561 q 751 735 788 690 q 661 806 714 781 q 543 831 608 831 q 424 806 476 831 q 334 735 371 781 q 278 625 297 689 q 258 482 258 561 m 1010 482 q 973 264 1010 358 q 873 106 936 169 q 725 11 810 43 q 544 -21 640 -21 q 363 11 449 -21 q 215 106 278 43 q 114 264 151 169 q 76 482 76 358 q 114 699 76 606 q 216 857 151 793 q 365 953 281 921 q 544 985 450 985 q 724 953 639 985 q 872 857 808 921 q 972 699 935 793 q 1010 482 1010 606 m 394 1065 q 329 1090 357 1065 q 301 1158 301 1115 q 329 1227 301 1201 q 394 1253 357 1253 q 460 1227 432 1253 q 489 1158 489 1201 q 460 1090 489 1115 q 394 1065 432 1065 m 682 1065 q 616 1090 644 1065 q 588 1158 588 1115 q 616 1227 588 1201 q 682 1253 644 1253 q 747 1227 719 1253 q 775 1158 775 1201 q 747 1090 775 1115 q 682 1065 719 1065 z "},"×":{"ha":789,"x_min":100,"x_max":689,"o":"m 590 704 l 689 604 l 493 408 l 689 214 l 590 114 l 394 310 l 199 114 l 100 214 l 296 408 l 100 604 l 199 704 l 394 508 l 590 704 z "},"Ø":{"ha":1086,"x_min":76,"x_max":1010,"o":"m 1010 482 q 973 264 1010 358 q 873 106 936 169 q 725 11 810 43 q 544 -21 640 -21 q 408 -3 474 -21 q 288 49 343 14 l 207 -57 l 106 19 l 192 131 q 107 281 138 193 q 76 482 76 369 q 114 699 76 606 q 216 857 151 793 q 365 953 281 921 q 544 985 450 985 q 678 967 614 985 q 797 915 742 950 l 878 1019 l 981 943 l 894 832 q 978 682 947 769 q 1010 482 1010 594 m 258 482 q 303 276 258 361 l 696 785 q 543 831 631 831 q 424 806 476 831 q 334 735 371 781 q 278 625 297 689 q 258 482 258 561 m 826 482 q 815 593 826 542 q 782 686 803 644 l 389 178 q 543 133 453 133 q 661 158 608 133 q 751 228 714 183 q 807 338 788 274 q 826 482 826 403 z "},"Ù":{"ha":976,"x_min":108,"x_max":868,"o":"m 486 -21 q 317 8 388 -21 q 199 88 246 36 q 131 208 153 139 q 108 361 108 278 l 108 963 l 285 963 l 285 378 q 299 266 285 313 q 341 190 314 219 q 405 147 368 161 q 488 133 442 133 q 571 147 533 133 q 635 190 608 161 q 677 266 663 219 q 692 378 692 313 l 692 963 l 868 963 l 868 361 q 845 208 868 278 q 776 88 822 139 q 657 8 729 36 q 486 -21 585 -21 m 358 1347 l 560 1104 l 476 1029 l 251 1250 l 358 1347 z "},"Ú":{"ha":976,"x_min":108,"x_max":868,"o":"m 486 -21 q 317 8 388 -21 q 199 88 246 36 q 131 208 153 139 q 108 361 108 278 l 108 963 l 285 963 l 285 378 q 299 266 285 313 q 341 190 314 219 q 405 147 368 161 q 488 133 442 133 q 571 147 533 133 q 635 190 608 161 q 677 266 663 219 q 692 378 692 313 l 692 963 l 868 963 l 868 361 q 845 208 868 278 q 776 88 822 139 q 657 8 729 36 q 486 -21 585 -21 m 721 1249 l 494 1029 l 411 1104 l 615 1347 l 721 1249 z "},"Û":{"ha":976,"x_min":108,"x_max":868,"o":"m 486 -21 q 317 8 388 -21 q 199 88 246 36 q 131 208 153 139 q 108 361 108 278 l 108 963 l 285 963 l 285 378 q 299 266 285 313 q 341 190 314 219 q 405 147 368 161 q 488 133 442 133 q 571 147 533 133 q 635 190 608 161 q 677 266 663 219 q 692 378 692 313 l 692 963 l 868 963 l 868 361 q 845 208 868 278 q 776 88 822 139 q 657 8 729 36 q 486 -21 585 -21 m 690 1106 l 625 1032 l 488 1144 l 351 1032 l 285 1106 l 488 1300 l 690 1106 z "},"Ü":{"ha":976,"x_min":108,"x_max":868,"o":"m 486 -21 q 317 8 388 -21 q 199 88 246 36 q 131 208 153 139 q 108 361 108 278 l 108 963 l 285 963 l 285 378 q 299 266 285 313 q 341 190 314 219 q 405 147 368 161 q 488 133 442 133 q 571 147 533 133 q 635 190 608 161 q 677 266 663 219 q 692 378 692 313 l 692 963 l 868 963 l 868 361 q 845 208 868 278 q 776 88 822 139 q 657 8 729 36 q 486 -21 585 -21 m 344 1065 q 279 1090 307 1065 q 251 1158 251 1115 q 279 1227 251 1201 q 344 1253 307 1253 q 410 1227 382 1253 q 439 1158 439 1201 q 410 1090 439 1115 q 344 1065 382 1065 m 632 1065 q 566 1090 594 1065 q 538 1158 538 1115 q 566 1227 538 1201 q 632 1253 594 1253 q 697 1227 669 1253 q 725 1158 725 1201 q 697 1090 725 1115 q 632 1065 669 1065 z "},"Ý":{"ha":868,"x_min":4,"x_max":864,"o":"m 439 536 q 561 747 501 640 q 669 963 621 854 l 864 963 q 702 670 786 815 q 522 378 618 525 l 522 0 l 347 0 l 347 375 q 167 669 251 524 q 4 963 82 815 l 210 963 q 317 747 258 854 q 439 536 375 640 m 643 1249 l 417 1029 l 333 1104 l 538 1347 l 643 1249 z "},"Þ":{"ha":872,"x_min":117,"x_max":822,"o":"m 397 818 q 710 743 597 818 q 822 504 822 668 q 792 359 822 419 q 706 260 763 299 q 567 205 649 222 q 379 188 485 188 l 292 188 l 292 0 l 117 0 l 117 963 l 292 963 l 292 814 q 345 817 317 817 q 397 818 374 818 m 388 668 q 329 667 356 668 q 292 665 303 667 l 292 335 l 376 335 q 488 342 439 335 q 571 370 538 350 q 622 423 604 390 q 639 506 639 456 q 621 585 639 553 q 569 635 603 617 q 490 660 536 653 q 388 668 443 668 z "},"ß":{"ha":881,"x_min":107,"x_max":839,"o":"m 715 851 q 693 749 715 789 q 642 676 671 708 q 586 613 610 640 q 563 550 563 586 q 573 514 563 529 q 601 486 583 499 q 641 462 618 474 q 688 438 664 450 q 746 401 718 421 q 794 356 774 382 q 827 297 815 331 q 839 219 839 264 q 774 45 839 107 q 564 -17 708 -17 q 465 -7 517 -17 q 364 22 413 3 l 393 161 q 422 150 404 157 q 463 137 440 143 q 509 126 485 131 q 557 122 533 122 q 643 147 615 122 q 671 217 671 172 q 637 292 671 261 q 533 356 603 324 q 463 395 490 375 q 422 436 436 415 q 401 480 407 457 q 396 528 396 503 q 424 624 396 583 q 488 701 453 664 q 533 759 513 729 q 554 825 554 789 q 522 907 554 879 q 428 935 489 935 q 310 888 347 935 q 272 756 272 840 l 272 0 l 107 0 l 107 754 q 126 885 107 826 q 185 988 146 944 q 283 1054 224 1031 q 419 1078 342 1078 q 553 1060 497 1078 q 646 1011 610 1042 q 699 940 682 981 q 715 851 715 899 z "},"à":{"ha":742,"x_min":56,"x_max":643,"o":"m 363 118 q 481 126 440 118 l 481 313 q 440 321 467 317 q 382 325 414 325 q 326 321 354 325 q 274 306 297 317 q 238 274 251 294 q 224 224 224 254 q 261 141 224 164 q 363 118 299 118 m 349 744 q 489 724 432 744 q 580 665 546 703 q 628 574 614 628 q 643 457 643 521 l 643 17 q 526 -3 604 8 q 349 -15 447 -15 q 229 -3 283 -15 q 137 38 175 10 q 77 110 99 65 q 56 219 56 154 q 80 325 56 282 q 146 395 104 368 q 242 434 188 422 q 357 446 297 446 q 415 442 385 446 q 481 431 446 439 l 481 458 q 474 514 481 488 q 449 560 467 540 q 403 592 432 581 q 332 603 375 603 q 225 594 274 603 q 146 575 176 586 l 125 711 q 218 733 157 722 q 349 744 279 744 m 276 1122 l 478 879 l 394 804 l 169 1025 l 276 1122 z "},"á":{"ha":742,"x_min":56,"x_max":643,"o":"m 363 118 q 481 126 440 118 l 481 313 q 440 321 467 317 q 382 325 414 325 q 326 321 354 325 q 274 306 297 317 q 238 274 251 294 q 224 224 224 254 q 261 141 224 164 q 363 118 299 118 m 349 744 q 489 724 432 744 q 580 665 546 703 q 628 574 614 628 q 643 457 643 521 l 643 17 q 526 -3 604 8 q 349 -15 447 -15 q 229 -3 283 -15 q 137 38 175 10 q 77 110 99 65 q 56 219 56 154 q 80 325 56 282 q 146 395 104 368 q 242 434 188 422 q 357 446 297 446 q 415 442 385 446 q 481 431 446 439 l 481 458 q 474 514 481 488 q 449 560 467 540 q 403 592 432 581 q 332 603 375 603 q 225 594 274 603 q 146 575 176 586 l 125 711 q 218 733 157 722 q 349 744 279 744 m 558 1024 l 332 804 l 249 879 l 453 1122 l 558 1024 z "},"â":{"ha":742,"x_min":56,"x_max":643,"o":"m 363 118 q 481 126 440 118 l 481 313 q 440 321 467 317 q 382 325 414 325 q 326 321 354 325 q 274 306 297 317 q 238 274 251 294 q 224 224 224 254 q 261 141 224 164 q 363 118 299 118 m 349 744 q 489 724 432 744 q 580 665 546 703 q 628 574 614 628 q 643 457 643 521 l 643 17 q 526 -3 604 8 q 349 -15 447 -15 q 229 -3 283 -15 q 137 38 175 10 q 77 110 99 65 q 56 219 56 154 q 80 325 56 282 q 146 395 104 368 q 242 434 188 422 q 357 446 297 446 q 415 442 385 446 q 481 431 446 439 l 481 458 q 474 514 481 488 q 449 560 467 540 q 403 592 432 581 q 332 603 375 603 q 225 594 274 603 q 146 575 176 586 l 125 711 q 218 733 157 722 q 349 744 279 744 m 576 882 l 511 808 l 374 921 l 238 808 l 171 882 l 374 1076 l 576 882 z "},"ã":{"ha":742,"x_min":56,"x_max":643,"o":"m 363 118 q 481 126 440 118 l 481 313 q 440 321 467 317 q 382 325 414 325 q 326 321 354 325 q 274 306 297 317 q 238 274 251 294 q 224 224 224 254 q 261 141 224 164 q 363 118 299 118 m 349 744 q 489 724 432 744 q 580 665 546 703 q 628 574 614 628 q 643 457 643 521 l 643 17 q 526 -3 604 8 q 349 -15 447 -15 q 229 -3 283 -15 q 137 38 175 10 q 77 110 99 65 q 56 219 56 154 q 80 325 56 282 q 146 395 104 368 q 242 434 188 422 q 357 446 297 446 q 415 442 385 446 q 481 431 446 439 l 481 458 q 474 514 481 488 q 449 560 467 540 q 403 592 432 581 q 332 603 375 603 q 225 594 274 603 q 146 575 176 586 l 125 711 q 218 733 157 722 q 349 744 279 744 m 617 986 q 595 944 608 967 q 563 901 582 921 q 518 867 543 881 q 463 853 493 853 q 415 860 438 853 q 372 878 393 868 q 330 895 350 888 q 290 903 310 903 q 245 885 264 903 q 215 843 226 867 l 131 893 q 151 935 138 913 q 184 978 164 958 q 229 1013 204 999 q 285 1026 254 1026 q 332 1018 310 1026 q 376 1001 354 1010 q 417 983 397 992 q 457 975 438 975 q 502 994 483 975 q 532 1036 521 1013 l 617 986 z "},"ä":{"ha":742,"x_min":56,"x_max":643,"o":"m 363 118 q 481 126 440 118 l 481 313 q 440 321 467 317 q 382 325 414 325 q 326 321 354 325 q 274 306 297 317 q 238 274 251 294 q 224 224 224 254 q 261 141 224 164 q 363 118 299 118 m 349 744 q 489 724 432 744 q 580 665 546 703 q 628 574 614 628 q 643 457 643 521 l 643 17 q 526 -3 604 8 q 349 -15 447 -15 q 229 -3 283 -15 q 137 38 175 10 q 77 110 99 65 q 56 219 56 154 q 80 325 56 282 q 146 395 104 368 q 242 434 188 422 q 357 446 297 446 q 415 442 385 446 q 481 431 446 439 l 481 458 q 474 514 481 488 q 449 560 467 540 q 403 592 432 581 q 332 603 375 603 q 225 594 274 603 q 146 575 176 586 l 125 711 q 218 733 157 722 q 349 744 279 744 m 225 846 q 160 871 188 846 q 132 939 132 896 q 160 1008 132 982 q 225 1033 188 1033 q 291 1008 263 1033 q 319 939 319 982 q 291 871 319 896 q 225 846 263 846 m 513 846 q 447 871 475 846 q 418 939 418 896 q 447 1008 418 982 q 513 1033 475 1033 q 578 1008 550 1033 q 606 939 606 982 q 578 871 606 896 q 513 846 550 846 z "},"å":{"ha":742,"x_min":56,"x_max":643,"o":"m 363 118 q 481 126 440 118 l 481 313 q 440 321 467 317 q 382 325 414 325 q 326 321 354 325 q 274 306 297 317 q 238 274 251 294 q 224 224 224 254 q 261 141 224 164 q 363 118 299 118 m 349 744 q 489 724 432 744 q 580 665 546 703 q 628 574 614 628 q 643 457 643 521 l 643 17 q 526 -3 604 8 q 349 -15 447 -15 q 229 -3 283 -15 q 137 38 175 10 q 77 110 99 65 q 56 219 56 154 q 80 325 56 282 q 146 395 104 368 q 242 434 188 422 q 357 446 297 446 q 415 442 385 446 q 481 431 446 439 l 481 458 q 474 514 481 488 q 449 560 467 540 q 403 592 432 581 q 332 603 375 603 q 225 594 274 603 q 146 575 176 586 l 125 711 q 218 733 157 722 q 349 744 279 744 m 529 956 q 517 892 529 919 q 483 844 504 864 q 433 815 461 825 q 375 804 406 804 q 317 815 344 804 q 268 844 289 825 q 235 892 247 864 q 222 956 222 919 q 235 1019 222 990 q 268 1066 247 1047 q 317 1095 289 1085 q 375 1106 344 1106 q 433 1095 406 1106 q 483 1066 461 1085 q 517 1019 504 1047 q 529 956 529 990 m 444 956 q 424 1008 444 989 q 375 1026 403 1026 q 328 1008 349 1026 q 307 956 307 989 q 328 903 307 921 q 375 885 349 885 q 424 903 403 885 q 444 956 444 921 z "},"æ":{"ha":1207,"x_min":56,"x_max":1136,"o":"m 351 744 q 497 717 443 744 q 585 633 551 689 q 693 718 632 692 q 822 744 754 744 q 1053 651 969 744 q 1136 374 1136 558 q 1135 342 1136 357 q 1133 311 1133 326 l 654 311 q 716 176 661 224 q 874 128 771 128 q 987 139 936 128 q 1067 163 1038 150 l 1089 25 q 1051 10 1075 18 q 995 -3 1026 3 q 927 -14 964 -10 q 853 -18 890 -18 q 713 1 772 -18 q 608 56 653 21 q 490 2 554 21 q 351 -17 425 -17 q 230 -3 285 -17 q 136 38 175 10 q 76 111 97 67 q 56 219 56 156 q 81 325 56 282 q 149 395 106 368 q 247 434 192 422 q 363 446 301 446 q 438 440 401 446 q 489 431 474 435 l 489 461 q 481 517 489 490 q 456 562 474 543 q 409 592 439 581 q 336 603 379 603 q 228 594 278 603 q 147 575 179 586 l 126 711 q 220 733 158 722 q 351 744 282 744 m 371 118 q 467 128 429 118 q 529 153 506 139 q 501 235 510 197 q 489 314 492 274 q 444 322 471 318 q 388 325 417 325 q 329 321 358 325 q 276 306 300 317 q 238 274 253 294 q 224 224 224 254 q 263 141 224 164 q 371 118 301 118 m 968 435 q 958 501 968 469 q 930 555 949 532 q 884 591 911 578 q 819 604 857 604 q 751 590 781 604 q 702 551 722 575 q 671 497 682 528 q 656 435 660 467 l 968 435 z "},"ç":{"ha":656,"x_min":67,"x_max":632,"o":"m 440 -54 q 502 -101 485 -75 q 519 -167 519 -128 q 478 -250 519 -215 q 353 -285 436 -285 q 235 -267 286 -285 l 254 -167 q 290 -176 268 -171 q 336 -182 313 -182 q 373 -174 360 -182 q 386 -149 386 -165 q 367 -116 386 -126 q 328 -99 347 -106 l 314 -94 q 329 -53 319 -76 q 349 -11 339 -31 q 224 33 276 1 q 136 115 171 65 q 84 226 101 164 q 67 363 67 289 q 92 513 67 443 q 163 635 117 583 q 276 715 210 686 q 426 744 343 744 q 621 707 529 744 l 585 569 q 519 590 556 582 q 440 599 482 599 q 290 537 342 599 q 239 363 239 475 q 288 191 239 254 q 451 128 336 128 q 536 136 494 128 q 608 157 578 144 l 632 18 q 558 -4 607 6 q 457 -17 510 -14 q 447 -37 451 -28 q 440 -54 443 -47 z "},"è":{"ha":793,"x_min":67,"x_max":722,"o":"m 67 360 q 95 528 67 456 q 171 648 124 600 q 279 720 218 696 q 404 744 340 744 q 638 651 554 744 q 722 374 722 558 q 722 342 722 360 q 719 311 721 325 l 240 311 q 302 176 247 224 q 461 128 357 128 q 573 139 522 128 q 653 163 624 150 l 675 25 q 637 10 661 18 q 581 -3 613 3 q 514 -14 550 -10 q 440 -18 478 -18 q 274 10 344 -18 q 157 90 203 39 q 89 209 111 140 q 67 360 67 278 m 554 435 q 544 501 554 469 q 516 555 535 532 q 470 591 497 578 q 406 604 443 604 q 338 590 367 604 q 288 551 308 575 q 257 497 268 528 q 242 435 246 467 l 554 435 m 326 1122 l 528 879 l 444 804 l 219 1025 l 326 1122 z "},"é":{"ha":793,"x_min":67,"x_max":722,"o":"m 67 360 q 95 528 67 456 q 171 648 124 600 q 279 720 218 696 q 404 744 340 744 q 638 651 554 744 q 722 374 722 558 q 722 342 722 360 q 719 311 721 325 l 240 311 q 302 176 247 224 q 461 128 357 128 q 573 139 522 128 q 653 163 624 150 l 675 25 q 637 10 661 18 q 581 -3 613 3 q 514 -14 550 -10 q 440 -18 478 -18 q 274 10 344 -18 q 157 90 203 39 q 89 209 111 140 q 67 360 67 278 m 554 435 q 544 501 554 469 q 516 555 535 532 q 470 591 497 578 q 406 604 443 604 q 338 590 367 604 q 288 551 308 575 q 257 497 268 528 q 242 435 246 467 l 554 435 m 583 1024 l 357 804 l 274 879 l 478 1122 l 583 1024 z "},"ê":{"ha":793,"x_min":67,"x_max":722,"o":"m 67 360 q 95 528 67 456 q 171 648 124 600 q 279 720 218 696 q 404 744 340 744 q 638 651 554 744 q 722 374 722 558 q 722 342 722 360 q 719 311 721 325 l 240 311 q 302 176 247 224 q 461 128 357 128 q 573 139 522 128 q 653 163 624 150 l 675 25 q 637 10 661 18 q 581 -3 613 3 q 514 -14 550 -10 q 440 -18 478 -18 q 274 10 344 -18 q 157 90 203 39 q 89 209 111 140 q 67 360 67 278 m 554 435 q 544 501 554 469 q 516 555 535 532 q 470 591 497 578 q 406 604 443 604 q 338 590 367 604 q 288 551 308 575 q 257 497 268 528 q 242 435 246 467 l 554 435 m 601 882 l 536 808 l 399 921 l 263 808 l 196 882 l 399 1076 l 601 882 z "},"ë":{"ha":793,"x_min":67,"x_max":722,"o":"m 67 360 q 95 528 67 456 q 171 648 124 600 q 279 720 218 696 q 404 744 340 744 q 638 651 554 744 q 722 374 722 558 q 722 342 722 360 q 719 311 721 325 l 240 311 q 302 176 247 224 q 461 128 357 128 q 573 139 522 128 q 653 163 624 150 l 675 25 q 637 10 661 18 q 581 -3 613 3 q 514 -14 550 -10 q 440 -18 478 -18 q 274 10 344 -18 q 157 90 203 39 q 89 209 111 140 q 67 360 67 278 m 554 435 q 544 501 554 469 q 516 555 535 532 q 470 591 497 578 q 406 604 443 604 q 338 590 367 604 q 288 551 308 575 q 257 497 268 528 q 242 435 246 467 l 554 435 m 260 846 q 194 871 222 846 q 167 939 167 896 q 194 1008 167 982 q 260 1033 222 1033 q 326 1008 297 1033 q 354 939 354 982 q 326 871 354 896 q 260 846 297 846 m 547 846 q 481 871 510 846 q 453 939 453 896 q 481 1008 453 982 q 547 1033 510 1033 q 613 1008 585 1033 q 640 939 640 982 q 613 871 640 896 q 547 846 585 846 z "},"ì":{"ha":383,"x_min":-7,"x_max":301,"o":"m 276 0 l 108 0 l 108 726 l 276 726 l 276 0 m 100 1122 l 301 879 l 218 804 l -7 1025 l 100 1122 z "},"í":{"ha":383,"x_min":82,"x_max":392,"o":"m 276 0 l 108 0 l 108 726 l 276 726 l 276 0 m 392 1024 l 165 804 l 82 879 l 286 1122 l 392 1024 z "},"î":{"ha":383,"x_min":-10,"x_max":396,"o":"m 276 0 l 108 0 l 108 726 l 276 726 l 276 0 m 396 882 l 331 808 l 193 921 l 57 808 l -10 882 l 193 1076 l 396 882 z "},"ï":{"ha":383,"x_min":-39,"x_max":435,"o":"m 276 0 l 108 0 l 108 726 l 276 726 l 276 0 m 54 846 q -11 871 17 846 q -39 939 -39 896 q -11 1008 -39 982 q 54 1033 17 1033 q 120 1008 92 1033 q 149 939 149 982 q 120 871 149 896 q 54 846 92 846 m 342 846 q 276 871 304 846 q 247 939 247 896 q 276 1008 247 982 q 342 1033 304 1033 q 407 1008 379 1033 q 435 939 435 982 q 407 871 435 896 q 342 846 379 846 z "},"ð":{"ha":821,"x_min":65,"x_max":788,"o":"m 651 849 q 729 656 703 757 q 756 442 756 554 q 737 260 756 344 q 676 114 718 176 q 567 16 635 51 q 403 -19 500 -19 q 255 10 318 -19 q 149 88 192 39 q 86 200 107 136 q 65 335 65 264 q 86 474 65 411 q 149 581 107 536 q 251 649 190 625 q 392 674 313 674 q 487 660 438 674 q 574 625 536 647 q 506 799 557 718 l 344 744 l 308 847 l 435 890 q 325 985 390 939 l 424 1081 q 504 1022 463 1057 q 585 940 546 988 l 751 997 l 788 896 l 651 849 m 585 443 q 585 458 585 447 q 583 476 585 468 q 499 523 543 511 q 417 535 456 535 q 332 519 367 535 q 276 477 297 504 q 244 414 254 450 q 235 336 235 378 q 245 254 235 292 q 276 188 256 217 q 329 144 297 160 q 403 128 361 128 q 495 152 460 128 q 551 219 531 176 q 578 320 571 263 q 585 443 585 378 z "},"ñ":{"ha":813,"x_min":107,"x_max":714,"o":"m 107 703 q 233 729 156 717 q 406 742 311 742 q 554 717 494 742 q 649 649 614 693 q 699 544 685 606 q 714 408 714 482 l 714 0 l 546 0 l 546 382 q 538 481 546 440 q 513 548 531 522 q 466 585 496 574 q 393 597 436 597 q 326 593 361 597 q 275 586 292 589 l 275 0 l 107 0 l 107 703 m 653 986 q 631 944 644 967 q 599 901 618 921 q 554 867 579 881 q 499 853 529 853 q 451 860 474 853 q 408 878 429 868 q 366 895 386 888 q 326 903 346 903 q 281 885 300 903 q 251 843 263 867 l 167 893 q 187 935 174 913 q 220 978 200 958 q 265 1013 240 999 q 321 1026 290 1026 q 368 1018 346 1026 q 412 1001 390 1010 q 453 983 433 992 q 493 975 474 975 q 538 994 519 975 q 568 1036 557 1013 l 653 986 z "},"ò":{"ha":831,"x_min":67,"x_max":764,"o":"m 764 364 q 739 207 764 278 q 668 86 714 136 q 558 8 622 36 q 415 -19 493 -19 q 274 8 338 -19 q 164 86 210 36 q 92 207 118 136 q 67 364 67 278 q 92 520 67 450 q 165 640 118 590 q 275 717 211 690 q 415 744 339 744 q 556 717 492 744 q 667 640 621 690 q 738 520 713 590 q 764 364 764 450 m 592 364 q 545 535 592 472 q 415 599 499 599 q 285 535 332 599 q 239 364 239 472 q 285 190 239 254 q 415 126 332 126 q 545 190 499 126 q 592 364 592 254 m 349 1122 l 550 879 l 467 804 l 242 1025 l 349 1122 z "},"ó":{"ha":831,"x_min":67,"x_max":764,"o":"m 764 364 q 739 207 764 278 q 668 86 714 136 q 558 8 622 36 q 415 -19 493 -19 q 274 8 338 -19 q 164 86 210 36 q 92 207 118 136 q 67 364 67 278 q 92 520 67 450 q 165 640 118 590 q 275 717 211 690 q 415 744 339 744 q 556 717 492 744 q 667 640 621 690 q 738 520 713 590 q 764 364 764 450 m 592 364 q 545 535 592 472 q 415 599 499 599 q 285 535 332 599 q 239 364 239 472 q 285 190 239 254 q 415 126 332 126 q 545 190 499 126 q 592 364 592 254 m 597 1024 l 371 804 l 288 879 l 492 1122 l 597 1024 z "},"ô":{"ha":831,"x_min":67,"x_max":764,"o":"m 764 364 q 739 207 764 278 q 668 86 714 136 q 558 8 622 36 q 415 -19 493 -19 q 274 8 338 -19 q 164 86 210 36 q 92 207 118 136 q 67 364 67 278 q 92 520 67 450 q 165 640 118 590 q 275 717 211 690 q 415 744 339 744 q 556 717 492 744 q 667 640 621 690 q 738 520 713 590 q 764 364 764 450 m 592 364 q 545 535 592 472 q 415 599 499 599 q 285 535 332 599 q 239 364 239 472 q 285 190 239 254 q 415 126 332 126 q 545 190 499 126 q 592 364 592 254 m 617 882 l 551 808 l 414 921 l 278 808 l 211 882 l 414 1076 l 617 882 z "},"õ":{"ha":831,"x_min":67,"x_max":764,"o":"m 764 364 q 739 207 764 278 q 668 86 714 136 q 558 8 622 36 q 415 -19 493 -19 q 274 8 338 -19 q 164 86 210 36 q 92 207 118 136 q 67 364 67 278 q 92 520 67 450 q 165 640 118 590 q 275 717 211 690 q 415 744 339 744 q 556 717 492 744 q 667 640 621 690 q 738 520 713 590 q 764 364 764 450 m 592 364 q 545 535 592 472 q 415 599 499 599 q 285 535 332 599 q 239 364 239 472 q 285 190 239 254 q 415 126 332 126 q 545 190 499 126 q 592 364 592 254 m 658 986 q 637 944 650 967 q 604 901 624 921 q 560 867 585 881 q 504 853 535 853 q 457 860 479 853 q 413 878 435 868 q 372 895 392 888 q 332 903 351 903 q 287 885 306 903 q 257 843 268 867 l 172 893 q 192 935 179 913 q 226 978 206 958 q 271 1013 246 999 q 326 1026 296 1026 q 374 1018 351 1026 q 417 1001 396 1010 q 459 983 439 992 q 499 975 479 975 q 544 994 525 975 q 574 1036 563 1013 l 658 986 z "},"ö":{"ha":831,"x_min":67,"x_max":764,"o":"m 764 364 q 739 207 764 278 q 668 86 714 136 q 558 8 622 36 q 415 -19 493 -19 q 274 8 338 -19 q 164 86 210 36 q 92 207 118 136 q 67 364 67 278 q 92 520 67 450 q 165 640 118 590 q 275 717 211 690 q 415 744 339 744 q 556 717 492 744 q 667 640 621 690 q 738 520 713 590 q 764 364 764 450 m 592 364 q 545 535 592 472 q 415 599 499 599 q 285 535 332 599 q 239 364 239 472 q 285 190 239 254 q 415 126 332 126 q 545 190 499 126 q 592 364 592 254 m 271 846 q 206 871 233 846 q 178 939 178 896 q 206 1008 178 982 q 271 1033 233 1033 q 337 1008 308 1033 q 365 939 365 982 q 337 871 365 896 q 271 846 308 846 m 558 846 q 492 871 521 846 q 464 939 464 896 q 492 1008 464 982 q 558 1033 521 1033 q 624 1008 596 1033 q 651 939 651 982 q 624 871 651 896 q 558 846 596 846 z "},"÷":{"ha":789,"x_min":72,"x_max":717,"o":"m 496 683 q 465 608 496 635 q 394 582 435 582 q 324 608 354 582 q 294 683 294 635 q 324 757 294 731 q 394 783 354 783 q 465 757 435 783 q 496 683 496 731 m 496 133 q 465 60 496 86 q 394 33 435 33 q 324 60 354 33 q 294 133 294 86 q 324 208 294 182 q 394 235 354 235 q 465 208 435 235 q 496 133 496 182 m 72 479 l 717 479 l 717 338 l 72 338 l 72 479 z "},"ø":{"ha":831,"x_min":67,"x_max":764,"o":"m 764 364 q 739 207 764 278 q 668 86 714 136 q 558 8 622 36 q 415 -19 493 -19 q 315 -6 363 -19 q 228 32 268 8 l 163 -53 l 76 13 l 147 104 q 88 219 108 154 q 67 364 67 285 q 92 520 67 450 q 165 640 118 590 q 275 717 211 690 q 415 744 339 744 q 603 693 521 744 l 668 778 l 753 714 l 682 622 q 742 508 721 574 q 764 364 764 443 m 597 364 q 578 486 597 432 l 317 149 q 415 119 358 119 q 550 185 503 119 q 597 364 597 251 m 233 364 q 253 240 233 294 l 513 576 q 415 606 468 606 q 281 541 329 606 q 233 364 233 476 z "},"ù":{"ha":810,"x_min":99,"x_max":703,"o":"m 703 22 q 576 -3 654 10 q 406 -17 499 -17 q 259 8 318 -17 q 165 78 200 33 q 114 184 129 122 q 99 319 99 246 l 99 726 l 267 726 l 267 346 q 301 179 267 229 q 419 129 335 129 q 484 132 450 129 q 535 139 518 135 l 535 726 l 703 726 l 703 22 m 313 1122 l 514 879 l 431 804 l 206 1025 l 313 1122 z "},"ú":{"ha":810,"x_min":99,"x_max":703,"o":"m 703 22 q 576 -3 654 10 q 406 -17 499 -17 q 259 8 318 -17 q 165 78 200 33 q 114 184 129 122 q 99 319 99 246 l 99 726 l 267 726 l 267 346 q 301 179 267 229 q 419 129 335 129 q 484 132 450 129 q 535 139 518 135 l 535 726 l 703 726 l 703 22 m 596 1024 l 369 804 l 286 879 l 490 1122 l 596 1024 z "},"û":{"ha":810,"x_min":99,"x_max":703,"o":"m 703 22 q 576 -3 654 10 q 406 -17 499 -17 q 259 8 318 -17 q 165 78 200 33 q 114 184 129 122 q 99 319 99 246 l 99 726 l 267 726 l 267 346 q 301 179 267 229 q 419 129 335 129 q 484 132 450 129 q 535 139 518 135 l 535 726 l 703 726 l 703 22 m 604 882 l 539 808 l 401 921 l 265 808 l 199 882 l 401 1076 l 604 882 z "},"ü":{"ha":810,"x_min":99,"x_max":703,"o":"m 703 22 q 576 -3 654 10 q 406 -17 499 -17 q 259 8 318 -17 q 165 78 200 33 q 114 184 129 122 q 99 319 99 246 l 99 726 l 267 726 l 267 346 q 301 179 267 229 q 419 129 335 129 q 484 132 450 129 q 535 139 518 135 l 535 726 l 703 726 l 703 22 m 257 846 q 192 871 219 846 q 164 939 164 896 q 192 1008 164 982 q 257 1033 219 1033 q 323 1008 294 1033 q 351 939 351 982 q 323 871 351 896 q 257 846 294 846 m 544 846 q 478 871 507 846 q 450 939 450 896 q 478 1008 450 982 q 544 1033 507 1033 q 610 1008 582 1033 q 638 939 638 982 q 610 871 638 896 q 544 846 582 846 z "},"ý":{"ha":721,"x_min":-1,"x_max":700,"o":"m 700 726 q 439 -24 588 313 q 382 -131 411 -86 q 317 -204 353 -175 q 236 -247 281 -233 q 133 -260 192 -260 q 56 -251 94 -260 q -1 -233 18 -243 l 29 -99 q 128 -118 79 -118 q 230 -87 193 -118 q 294 10 267 -56 q 142 343 215 163 q 13 726 69 524 l 192 726 q 226 600 206 668 q 269 462 246 532 q 319 322 293 392 q 372 193 346 253 q 456 456 417 317 q 526 726 494 596 l 700 726 m 571 1024 l 344 804 l 261 879 l 465 1122 l 571 1024 z "},"þ":{"ha":828,"x_min":107,"x_max":764,"o":"m 764 363 q 742 210 764 279 q 680 90 721 140 q 579 13 639 40 q 442 -15 519 -15 q 347 -3 389 -15 q 275 25 304 10 l 275 -257 l 107 -257 l 107 1050 l 275 1078 l 275 721 q 339 736 304 731 q 403 742 374 742 q 551 715 485 742 q 665 640 618 689 q 738 520 713 590 q 764 363 764 450 m 592 360 q 579 447 592 404 q 542 524 567 490 q 478 577 517 557 q 388 597 439 597 q 320 592 350 597 q 275 579 290 586 l 275 171 q 334 142 297 156 q 414 129 371 129 q 549 192 507 129 q 592 360 592 254 z "},"ÿ":{"ha":721,"x_min":-1,"x_max":700,"o":"m 700 726 q 439 -24 588 313 q 382 -131 411 -86 q 317 -204 353 -175 q 236 -247 281 -233 q 133 -260 192 -260 q 56 -251 94 -260 q -1 -233 18 -243 l 29 -99 q 128 -118 79 -118 q 230 -87 193 -118 q 294 10 267 -56 q 142 343 215 163 q 13 726 69 524 l 192 726 q 226 600 206 668 q 269 462 246 532 q 319 322 293 392 q 372 193 346 253 q 456 456 417 317 q 526 726 494 596 l 700 726 m 224 846 q 158 871 186 846 q 131 939 131 896 q 158 1008 131 982 q 224 1033 186 1033 q 290 1008 261 1033 q 318 939 318 982 q 290 871 318 896 q 224 846 261 846 m 511 846 q 445 871 474 846 q 417 939 417 896 q 445 1008 417 982 q 511 1033 474 1033 q 576 1008 549 1033 q 604 939 604 982 q 576 871 604 896 q 511 846 549 846 z "},"Ā":{"ha":950,"x_min":7,"x_max":943,"o":"m 754 0 q 714 113 735 57 q 674 226 693 168 l 268 226 q 228 112 249 168 q 189 0 208 56 l 7 0 q 110 285 61 154 q 205 532 158 415 q 297 754 251 649 q 392 963 343 860 l 557 963 q 651 754 606 860 q 744 532 697 649 q 840 285 790 415 q 943 0 889 154 l 754 0 m 471 776 q 398 597 439 703 q 313 368 357 492 l 629 368 q 543 599 585 492 q 471 776 501 706 m 683 1211 l 683 1090 l 263 1090 l 263 1211 l 683 1211 z "},"ā":{"ha":742,"x_min":56,"x_max":643,"o":"m 363 118 q 481 126 440 118 l 481 313 q 440 321 467 317 q 382 325 414 325 q 326 321 354 325 q 274 306 297 317 q 238 274 251 294 q 224 224 224 254 q 261 141 224 164 q 363 118 299 118 m 349 744 q 489 724 432 744 q 580 665 546 703 q 628 574 614 628 q 643 457 643 521 l 643 17 q 526 -3 604 8 q 349 -15 447 -15 q 229 -3 283 -15 q 137 38 175 10 q 77 110 99 65 q 56 219 56 154 q 80 325 56 282 q 146 395 104 368 q 242 434 188 422 q 357 446 297 446 q 415 442 385 446 q 481 431 446 439 l 481 458 q 474 514 481 488 q 449 560 467 540 q 403 592 432 581 q 332 603 375 603 q 225 594 274 603 q 146 575 176 586 l 125 711 q 218 733 157 722 q 349 744 279 744 m 583 997 l 583 876 l 163 876 l 163 997 l 583 997 z "},"Ă":{"ha":950,"x_min":7,"x_max":943,"o":"m 754 0 q 714 113 735 57 q 674 226 693 168 l 268 226 q 228 112 249 168 q 189 0 208 56 l 7 0 q 110 285 61 154 q 205 532 158 415 q 297 754 251 649 q 392 963 343 860 l 557 963 q 651 754 606 860 q 744 532 697 649 q 840 285 790 415 q 943 0 889 154 l 754 0 m 471 776 q 398 597 439 703 q 313 368 357 492 l 629 368 q 543 599 585 492 q 471 776 501 706 m 482 1053 q 400 1067 438 1053 q 335 1106 363 1081 q 292 1169 307 1132 q 276 1256 276 1207 l 276 1264 l 389 1264 q 413 1192 392 1219 q 482 1165 435 1165 q 549 1192 528 1165 q 575 1264 571 1219 l 686 1264 l 686 1254 q 628 1106 686 1158 q 482 1053 571 1053 z "},"ă":{"ha":742,"x_min":56,"x_max":643,"o":"m 363 118 q 481 126 440 118 l 481 313 q 440 321 467 317 q 382 325 414 325 q 326 321 354 325 q 274 306 297 317 q 238 274 251 294 q 224 224 224 254 q 261 141 224 164 q 363 118 299 118 m 349 744 q 489 724 432 744 q 580 665 546 703 q 628 574 614 628 q 643 457 643 521 l 643 17 q 526 -3 604 8 q 349 -15 447 -15 q 229 -3 283 -15 q 137 38 175 10 q 77 110 99 65 q 56 219 56 154 q 80 325 56 282 q 146 395 104 368 q 242 434 188 422 q 357 446 297 446 q 415 442 385 446 q 481 431 446 439 l 481 458 q 474 514 481 488 q 449 560 467 540 q 403 592 432 581 q 332 603 375 603 q 225 594 274 603 q 146 575 176 586 l 125 711 q 218 733 157 722 q 349 744 279 744 m 379 839 q 297 853 335 839 q 232 892 260 867 q 189 956 204 918 q 174 1042 174 993 l 174 1050 l 286 1050 q 310 978 289 1006 q 379 951 332 951 q 447 978 425 951 q 472 1050 468 1006 l 583 1050 l 583 1040 q 526 892 583 944 q 379 839 468 839 z "},"Ą":{"ha":950,"x_min":7,"x_max":958,"o":"m 471 776 q 398 597 439 703 q 313 368 357 492 l 629 368 q 544 597 585 492 q 471 776 503 703 m 754 0 q 714 113 735 57 q 674 226 693 168 l 268 226 q 228 112 249 168 q 189 0 208 56 l 7 0 q 110 285 61 154 q 205 532 158 415 q 297 754 251 649 q 392 963 343 860 l 557 963 q 651 754 606 860 q 744 533 697 649 q 839 286 790 417 q 942 1 888 156 q 909 -24 928 -8 q 874 -56 890 -39 q 845 -92 857 -74 q 833 -126 833 -110 q 882 -164 833 -164 q 910 -162 893 -164 q 946 -153 926 -160 l 958 -265 q 906 -278 938 -274 q 844 -283 874 -283 q 719 -252 758 -283 q 681 -168 681 -221 q 693 -115 681 -142 q 724 -67 706 -89 q 763 -28 743 -46 q 799 0 783 -11 l 754 0 z "},"ą":{"ha":742,"x_min":56,"x_max":644,"o":"m 349 744 q 489 724 432 744 q 580 665 546 703 q 628 574 614 628 q 643 457 643 521 l 643 17 q 605 -14 628 4 q 560 -56 582 -32 q 529 -92 540 -75 q 518 -126 518 -108 q 567 -164 518 -164 q 594 -162 578 -164 q 631 -153 611 -160 l 644 -265 q 591 -278 622 -274 q 529 -283 560 -283 q 405 -252 443 -283 q 367 -168 367 -221 q 382 -108 367 -136 q 421 -54 397 -79 q 468 -10 440 -31 q 410 -14 440 -12 q 349 -15 381 -15 q 229 -3 283 -15 q 137 38 175 10 q 77 110 99 65 q 56 219 56 154 q 80 325 56 282 q 146 395 104 368 q 242 434 188 422 q 357 446 297 446 q 415 442 385 446 q 481 431 446 439 l 481 458 q 474 514 481 488 q 449 560 467 540 q 403 592 432 581 q 332 603 375 603 q 225 594 274 603 q 146 575 176 586 l 125 711 q 218 733 157 722 q 349 744 279 744 m 363 118 q 481 126 440 118 l 481 313 q 440 321 467 317 q 382 325 414 325 q 326 321 354 325 q 274 306 297 317 q 238 274 251 294 q 224 224 224 254 q 261 141 224 164 q 363 118 299 118 z "},"Ć":{"ha":886,"x_min":79,"x_max":847,"o":"m 543 -21 q 349 13 435 -21 q 203 110 263 46 q 111 268 143 175 q 79 482 79 361 q 116 696 79 603 q 217 853 153 789 q 367 951 281 918 q 551 985 453 985 q 660 976 611 985 q 744 956 708 967 q 804 932 781 944 q 838 914 828 919 l 786 771 q 691 810 753 792 q 557 829 629 829 q 440 808 494 829 q 347 743 386 786 q 285 635 307 700 q 263 483 263 569 q 280 343 263 407 q 333 233 297 279 q 425 160 369 186 q 558 135 481 135 q 710 153 651 135 q 800 189 768 172 l 847 46 q 802 24 831 35 q 735 2 774 13 q 647 -15 696 -8 q 543 -21 599 -21 m 713 1249 l 486 1029 l 403 1104 l 607 1347 l 713 1249 z "},"ć":{"ha":656,"x_min":67,"x_max":632,"o":"m 67 363 q 92 513 67 443 q 163 635 117 583 q 276 715 210 686 q 426 744 343 744 q 621 707 529 744 l 585 569 q 519 590 556 582 q 440 599 482 599 q 290 537 342 599 q 239 363 239 475 q 288 191 239 254 q 451 128 336 128 q 536 136 494 128 q 608 157 578 144 l 632 18 q 548 -7 604 4 q 432 -18 492 -18 q 270 10 339 -18 q 156 90 201 39 q 89 210 111 140 q 67 363 67 281 m 594 1024 l 368 804 l 285 879 l 489 1122 l 594 1024 z "},"Ĉ":{"ha":886,"x_min":79,"x_max":847,"o":"m 543 -21 q 349 13 435 -21 q 203 110 263 46 q 111 268 143 175 q 79 482 79 361 q 116 696 79 603 q 217 853 153 789 q 367 951 281 918 q 551 985 453 985 q 660 976 611 985 q 744 956 708 967 q 804 932 781 944 q 838 914 828 919 l 786 771 q 691 810 753 792 q 557 829 629 829 q 440 808 494 829 q 347 743 386 786 q 285 635 307 700 q 263 483 263 569 q 280 343 263 407 q 333 233 297 279 q 425 160 369 186 q 558 135 481 135 q 710 153 651 135 q 800 189 768 172 l 847 46 q 802 24 831 35 q 735 2 774 13 q 647 -15 696 -8 q 543 -21 599 -21 m 735 1106 l 669 1032 l 532 1144 l 396 1032 l 329 1106 l 532 1300 l 735 1106 z "},"ĉ":{"ha":656,"x_min":67,"x_max":632,"o":"m 67 363 q 92 513 67 443 q 163 635 117 583 q 276 715 210 686 q 426 744 343 744 q 621 707 529 744 l 585 569 q 519 590 556 582 q 440 599 482 599 q 290 537 342 599 q 239 363 239 475 q 288 191 239 254 q 451 128 336 128 q 536 136 494 128 q 608 157 578 144 l 632 18 q 548 -7 604 4 q 432 -18 492 -18 q 270 10 339 -18 q 156 90 201 39 q 89 210 111 140 q 67 363 67 281 m 607 882 l 542 808 l 404 921 l 268 808 l 201 882 l 404 1076 l 607 882 z "},"Ċ":{"ha":886,"x_min":79,"x_max":847,"o":"m 543 -21 q 349 13 435 -21 q 203 110 263 46 q 111 268 143 175 q 79 482 79 361 q 116 696 79 603 q 217 853 153 789 q 367 951 281 918 q 551 985 453 985 q 660 976 611 985 q 744 956 708 967 q 804 932 781 944 q 838 914 828 919 l 786 771 q 691 810 753 792 q 557 829 629 829 q 440 808 494 829 q 347 743 386 786 q 285 635 307 700 q 263 483 263 569 q 280 343 263 407 q 333 233 297 279 q 425 160 369 186 q 558 135 481 135 q 710 153 651 135 q 800 189 768 172 l 847 46 q 802 24 831 35 q 735 2 774 13 q 647 -15 696 -8 q 543 -21 599 -21 m 631 1158 q 600 1083 631 1111 q 528 1056 569 1056 q 454 1083 485 1056 q 424 1158 424 1111 q 454 1235 424 1207 q 528 1263 485 1263 q 600 1235 569 1263 q 631 1158 631 1207 z "},"ċ":{"ha":656,"x_min":67,"x_max":632,"o":"m 67 363 q 92 513 67 443 q 163 635 117 583 q 276 715 210 686 q 426 744 343 744 q 621 707 529 744 l 585 569 q 519 590 556 582 q 440 599 482 599 q 290 537 342 599 q 239 363 239 475 q 288 191 239 254 q 451 128 336 128 q 536 136 494 128 q 608 157 578 144 l 632 18 q 548 -7 604 4 q 432 -18 492 -18 q 270 10 339 -18 q 156 90 201 39 q 89 210 111 140 q 67 363 67 281 m 508 939 q 478 864 508 892 q 406 836 447 836 q 332 864 363 836 q 301 939 301 892 q 332 1015 301 988 q 406 1043 363 1043 q 478 1015 447 1043 q 508 939 508 988 z "},"Č":{"ha":886,"x_min":79,"x_max":847,"o":"m 543 -21 q 349 13 435 -21 q 203 110 263 46 q 111 268 143 175 q 79 482 79 361 q 116 696 79 603 q 217 853 153 789 q 367 951 281 918 q 551 985 453 985 q 660 976 611 985 q 744 956 708 967 q 804 932 781 944 q 838 914 828 919 l 786 771 q 691 810 753 792 q 557 829 629 829 q 440 808 494 829 q 347 743 386 786 q 285 635 307 700 q 263 483 263 569 q 280 343 263 407 q 333 233 297 279 q 425 160 369 186 q 558 135 481 135 q 710 153 651 135 q 800 189 768 172 l 847 46 q 802 24 831 35 q 735 2 774 13 q 647 -15 696 -8 q 543 -21 599 -21 m 531 1033 l 328 1228 l 394 1301 l 531 1189 l 668 1301 l 733 1228 l 531 1033 z "},"č":{"ha":656,"x_min":67,"x_max":632,"o":"m 67 363 q 92 513 67 443 q 163 635 117 583 q 276 715 210 686 q 426 744 343 744 q 621 707 529 744 l 585 569 q 519 590 556 582 q 440 599 482 599 q 290 537 342 599 q 239 363 239 475 q 288 191 239 254 q 451 128 336 128 q 536 136 494 128 q 608 157 578 144 l 632 18 q 548 -7 604 4 q 432 -18 492 -18 q 270 10 339 -18 q 156 90 201 39 q 89 210 111 140 q 67 363 67 281 m 406 814 l 203 1008 l 269 1082 l 406 969 l 543 1082 l 608 1008 l 406 814 z "},"Ď":{"ha":1008,"x_min":115,"x_max":932,"o":"m 290 144 q 331 142 306 143 q 399 142 356 142 q 662 231 575 142 q 749 482 749 321 q 664 733 749 646 q 401 821 579 821 q 290 817 324 821 l 290 144 m 932 482 q 893 265 932 357 q 783 110 854 172 q 610 19 711 49 q 388 -11 510 -11 q 256 -6 329 -11 q 115 14 182 -1 l 115 949 q 257 968 182 964 q 390 972 332 972 q 611 944 511 972 q 783 855 711 915 q 893 702 854 794 q 932 482 932 610 m 467 1033 l 264 1228 l 331 1301 l 467 1189 l 604 1301 l 669 1228 l 467 1033 z "},"ď":{"ha":928,"x_min":67,"x_max":982,"o":"m 239 365 q 292 191 239 254 q 438 128 344 128 q 506 131 478 128 q 553 139 535 135 l 553 556 q 494 584 531 571 q 415 597 457 597 q 281 535 324 597 q 239 365 239 472 m 721 22 q 595 -6 671 7 q 436 -18 519 -18 q 282 8 350 -18 q 166 84 214 35 q 92 203 118 133 q 67 361 67 274 q 88 517 67 447 q 151 638 110 588 q 253 715 193 688 q 390 742 313 742 q 483 729 443 742 q 553 701 524 717 l 553 1050 l 721 1078 l 721 22 m 982 1078 l 942 753 l 828 753 l 828 1078 l 982 1078 z "},"Đ":{"ha":1028,"x_min":22,"x_max":951,"o":"m 22 567 l 135 567 l 135 949 q 276 968 201 964 q 410 972 351 972 q 631 944 531 972 q 802 855 731 915 q 913 702 874 794 q 951 482 951 610 q 913 265 951 357 q 802 110 874 172 q 630 19 731 49 q 407 -11 529 -11 q 275 -6 349 -11 q 135 14 201 -1 l 135 435 l 22 435 l 22 567 m 310 567 l 488 567 l 488 435 l 310 435 l 310 144 q 350 142 325 143 q 418 142 375 142 q 681 231 594 142 q 768 482 768 321 q 683 733 768 646 q 421 821 599 821 q 310 817 343 821 l 310 567 z "},"đ":{"ha":828,"x_min":67,"x_max":815,"o":"m 721 953 l 815 953 l 815 840 l 721 840 l 721 22 q 595 -6 671 7 q 436 -18 519 -18 q 282 8 350 -18 q 166 83 214 35 q 92 201 118 132 q 67 356 67 269 q 88 508 67 439 q 151 627 110 578 q 253 703 193 676 q 390 731 313 731 q 483 718 443 731 q 553 690 524 706 l 553 840 l 331 840 l 331 953 l 553 953 l 553 1050 l 721 1078 l 721 953 m 239 360 q 292 190 239 253 q 438 128 344 128 q 506 131 478 128 q 553 139 535 135 l 553 544 q 494 573 531 560 q 415 586 457 586 q 281 524 324 586 q 239 360 239 463 z "},"Ē":{"ha":814,"x_min":115,"x_max":767,"o":"m 115 0 l 115 963 l 733 963 l 733 814 l 290 814 l 290 576 l 685 576 l 685 431 l 290 431 l 290 149 l 767 149 l 767 0 l 115 0 m 635 1211 l 635 1090 l 214 1090 l 214 1211 l 635 1211 z "},"ē":{"ha":793,"x_min":67,"x_max":722,"o":"m 67 360 q 95 528 67 456 q 171 648 124 600 q 279 720 218 696 q 404 744 340 744 q 638 651 554 744 q 722 374 722 558 q 722 342 722 360 q 719 311 721 325 l 240 311 q 302 176 247 224 q 461 128 357 128 q 573 139 522 128 q 653 163 624 150 l 675 25 q 637 10 661 18 q 581 -3 613 3 q 514 -14 550 -10 q 440 -18 478 -18 q 274 10 344 -18 q 157 90 203 39 q 89 209 111 140 q 67 360 67 278 m 554 435 q 544 501 554 469 q 516 555 535 532 q 470 591 497 578 q 406 604 443 604 q 338 590 367 604 q 288 551 308 575 q 257 497 268 528 q 242 435 246 467 l 554 435 m 604 997 l 604 876 l 183 876 l 183 997 l 604 997 z "},"Ĕ":{"ha":814,"x_min":115,"x_max":767,"o":"m 115 0 l 115 963 l 733 963 l 733 814 l 290 814 l 290 576 l 685 576 l 685 431 l 290 431 l 290 149 l 767 149 l 767 0 l 115 0 m 422 1053 q 340 1067 378 1053 q 275 1106 303 1081 q 232 1169 247 1132 q 217 1256 217 1207 l 217 1264 l 329 1264 q 353 1192 332 1219 q 422 1165 375 1165 q 490 1192 468 1165 q 515 1264 511 1219 l 626 1264 l 626 1254 q 569 1106 626 1158 q 422 1053 511 1053 z "},"ĕ":{"ha":793,"x_min":67,"x_max":722,"o":"m 67 360 q 95 528 67 456 q 171 648 124 600 q 279 720 218 696 q 404 744 340 744 q 638 651 554 744 q 722 374 722 558 q 722 342 722 360 q 719 311 721 325 l 240 311 q 302 176 247 224 q 461 128 357 128 q 573 139 522 128 q 653 163 624 150 l 675 25 q 637 10 661 18 q 581 -3 613 3 q 514 -14 550 -10 q 440 -18 478 -18 q 274 10 344 -18 q 157 90 203 39 q 89 209 111 140 q 67 360 67 278 m 554 435 q 544 501 554 469 q 516 555 535 532 q 470 591 497 578 q 406 604 443 604 q 338 590 367 604 q 288 551 308 575 q 257 497 268 528 q 242 435 246 467 l 554 435 m 397 839 q 315 853 353 839 q 250 892 278 867 q 207 956 222 918 q 192 1042 192 993 l 192 1050 l 304 1050 q 328 978 307 1006 q 397 951 350 951 q 465 978 443 951 q 490 1050 486 1006 l 601 1050 l 601 1040 q 544 892 601 944 q 397 839 486 839 z "},"Ė":{"ha":814,"x_min":115,"x_max":767,"o":"m 115 0 l 115 963 l 733 963 l 733 814 l 290 814 l 290 576 l 685 576 l 685 431 l 290 431 l 290 149 l 767 149 l 767 0 l 115 0 m 532 1158 q 501 1083 532 1111 q 429 1056 471 1056 q 356 1083 386 1056 q 325 1158 325 1111 q 356 1235 325 1207 q 429 1263 386 1263 q 501 1235 471 1263 q 532 1158 532 1207 z "},"ė":{"ha":793,"x_min":67,"x_max":722,"o":"m 67 360 q 95 528 67 456 q 171 648 124 600 q 279 720 218 696 q 404 744 340 744 q 638 651 554 744 q 722 374 722 558 q 722 342 722 360 q 719 311 721 325 l 240 311 q 302 176 247 224 q 461 128 357 128 q 573 139 522 128 q 653 163 624 150 l 675 25 q 637 10 661 18 q 581 -3 613 3 q 514 -14 550 -10 q 440 -18 478 -18 q 274 10 344 -18 q 157 90 203 39 q 89 209 111 140 q 67 360 67 278 m 554 435 q 544 501 554 469 q 516 555 535 532 q 470 591 497 578 q 406 604 443 604 q 338 590 367 604 q 288 551 308 575 q 257 497 268 528 q 242 435 246 467 l 554 435 m 501 939 q 471 864 501 892 q 399 836 440 836 q 325 864 356 836 q 294 939 294 892 q 325 1015 294 988 q 399 1043 356 1043 q 471 1015 440 1043 q 501 939 501 988 z "},"Ę":{"ha":814,"x_min":115,"x_max":783,"o":"m 669 -283 q 544 -252 583 -283 q 506 -168 506 -221 q 520 -108 506 -136 q 558 -54 535 -79 q 585 -24 572 -37 q 614 0 599 -11 l 115 0 l 115 963 l 733 963 l 733 814 l 290 814 l 290 576 l 685 576 l 685 431 l 290 431 l 290 149 l 767 149 l 767 1 q 735 -22 754 -8 q 699 -56 717 -36 q 669 -92 679 -75 q 658 -126 658 -108 q 707 -164 658 -164 q 735 -162 718 -164 q 771 -153 751 -160 l 783 -265 q 731 -278 763 -274 q 669 -283 699 -283 z "},"ę":{"ha":793,"x_min":67,"x_max":722,"o":"m 67 360 q 95 528 67 456 q 171 648 124 600 q 279 720 218 696 q 404 744 340 744 q 638 651 554 744 q 722 374 722 558 q 722 342 722 360 q 719 311 721 325 l 240 311 q 302 176 247 224 q 461 128 357 128 q 573 139 522 128 q 653 163 624 150 l 675 25 q 631 -9 654 10 q 586 -49 607 -28 q 551 -90 565 -69 q 538 -126 538 -110 q 586 -164 538 -164 q 650 -153 614 -164 l 663 -265 q 608 -279 640 -275 q 549 -283 575 -283 q 426 -253 467 -283 q 385 -168 385 -224 q 410 -90 385 -128 q 476 -17 436 -53 q 458 -18 468 -18 q 440 -18 449 -18 q 274 10 344 -18 q 157 90 203 39 q 89 209 111 140 q 67 360 67 278 m 554 435 q 544 501 554 469 q 516 555 535 532 q 470 591 497 578 q 406 604 443 604 q 338 590 367 604 q 288 551 308 575 q 257 497 268 528 q 242 435 246 467 l 554 435 z "},"Ě":{"ha":814,"x_min":115,"x_max":767,"o":"m 115 0 l 115 963 l 733 963 l 733 814 l 290 814 l 290 576 l 685 576 l 685 431 l 290 431 l 290 149 l 767 149 l 767 0 l 115 0 m 426 1033 l 224 1228 l 290 1301 l 426 1189 l 564 1301 l 629 1228 l 426 1033 z "},"ě":{"ha":793,"x_min":67,"x_max":722,"o":"m 67 360 q 95 528 67 456 q 171 648 124 600 q 279 720 218 696 q 404 744 340 744 q 638 651 554 744 q 722 374 722 558 q 722 342 722 360 q 719 311 721 325 l 240 311 q 302 176 247 224 q 461 128 357 128 q 573 139 522 128 q 653 163 624 150 l 675 25 q 637 10 661 18 q 581 -3 613 3 q 514 -14 550 -10 q 440 -18 478 -18 q 274 10 344 -18 q 157 90 203 39 q 89 209 111 140 q 67 360 67 278 m 554 435 q 544 501 554 469 q 516 555 535 532 q 470 591 497 578 q 406 604 443 604 q 338 590 367 604 q 288 551 308 575 q 257 497 268 528 q 242 435 246 467 l 554 435 m 404 814 l 201 1008 l 268 1082 l 404 969 l 542 1082 l 607 1008 l 404 814 z "},"Ĝ":{"ha":949,"x_min":76,"x_max":861,"o":"m 565 831 q 338 738 417 831 q 260 482 260 646 q 278 340 260 404 q 334 229 297 275 q 426 158 371 183 q 554 132 481 132 q 633 135 600 132 q 686 144 667 139 l 686 490 l 861 490 l 861 28 q 739 -3 825 14 q 540 -19 653 -19 q 350 14 436 -19 q 203 111 264 47 q 110 268 143 175 q 76 482 76 361 q 113 696 76 603 q 214 853 150 789 q 364 951 278 918 q 547 985 450 985 q 666 976 614 985 q 756 956 718 967 q 817 932 793 944 q 851 914 842 919 l 799 771 q 695 813 757 796 q 565 831 633 831 m 735 1106 l 669 1032 l 532 1144 l 396 1032 l 329 1106 l 532 1300 l 735 1106 z "},"ĝ":{"ha":814,"x_min":67,"x_max":707,"o":"m 239 382 q 285 226 239 275 q 406 176 332 176 q 481 188 446 176 q 539 214 517 199 l 539 590 q 494 598 521 594 q 428 601 468 601 q 288 541 336 601 q 239 382 239 481 m 707 74 q 619 -181 707 -100 q 349 -261 531 -261 q 219 -250 282 -261 q 104 -221 156 -239 l 135 -78 q 233 -107 178 -96 q 351 -118 288 -118 q 496 -76 453 -118 q 539 47 539 -35 l 539 75 q 473 50 514 63 q 379 38 432 38 q 252 60 310 38 q 153 125 194 82 q 90 233 113 168 q 67 382 67 297 q 91 528 67 461 q 162 642 115 594 q 275 715 208 689 q 426 742 342 742 q 582 729 508 742 q 707 703 656 717 l 707 74 m 633 882 l 568 808 l 431 921 l 294 808 l 228 882 l 431 1076 l 633 882 z "},"Ğ":{"ha":949,"x_min":76,"x_max":861,"o":"m 565 831 q 338 738 417 831 q 260 482 260 646 q 278 340 260 404 q 334 229 297 275 q 426 158 371 183 q 554 132 481 132 q 633 135 600 132 q 686 144 667 139 l 686 490 l 861 490 l 861 28 q 739 -3 825 14 q 540 -19 653 -19 q 350 14 436 -19 q 203 111 264 47 q 110 268 143 175 q 76 482 76 361 q 113 696 76 603 q 214 853 150 789 q 364 951 278 918 q 547 985 450 985 q 666 976 614 985 q 756 956 718 967 q 817 932 793 944 q 851 914 842 919 l 799 771 q 695 813 757 796 q 565 831 633 831 m 531 1053 q 449 1067 486 1053 q 383 1106 411 1081 q 340 1169 356 1132 q 325 1256 325 1207 l 325 1264 l 438 1264 q 462 1192 440 1219 q 531 1165 483 1165 q 598 1192 576 1165 q 624 1264 619 1219 l 735 1264 l 735 1254 q 677 1106 735 1158 q 531 1053 619 1053 z "},"ğ":{"ha":814,"x_min":67,"x_max":707,"o":"m 239 382 q 285 226 239 275 q 406 176 332 176 q 481 188 446 176 q 539 214 517 199 l 539 590 q 494 598 521 594 q 428 601 468 601 q 288 541 336 601 q 239 382 239 481 m 707 74 q 619 -181 707 -100 q 349 -261 531 -261 q 219 -250 282 -261 q 104 -221 156 -239 l 135 -78 q 233 -107 178 -96 q 351 -118 288 -118 q 496 -76 453 -118 q 539 47 539 -35 l 539 75 q 473 50 514 63 q 379 38 432 38 q 252 60 310 38 q 153 125 194 82 q 90 233 113 168 q 67 382 67 297 q 91 528 67 461 q 162 642 115 594 q 275 715 208 689 q 426 742 342 742 q 582 729 508 742 q 707 703 656 717 l 707 74 m 429 839 q 347 853 385 839 q 282 892 310 867 q 239 956 254 918 q 224 1042 224 993 l 224 1050 l 336 1050 q 360 978 339 1006 q 429 951 382 951 q 497 978 475 951 q 522 1050 518 1006 l 633 1050 l 633 1040 q 576 892 633 944 q 429 839 518 839 z "},"Ġ":{"ha":949,"x_min":76,"x_max":861,"o":"m 565 831 q 338 738 417 831 q 260 482 260 646 q 278 340 260 404 q 334 229 297 275 q 426 158 371 183 q 554 132 481 132 q 633 135 600 132 q 686 144 667 139 l 686 490 l 861 490 l 861 28 q 739 -3 825 14 q 540 -19 653 -19 q 350 14 436 -19 q 203 111 264 47 q 110 268 143 175 q 76 482 76 361 q 113 696 76 603 q 214 853 150 789 q 364 951 278 918 q 547 985 450 985 q 666 976 614 985 q 756 956 718 967 q 817 932 793 944 q 851 914 842 919 l 799 771 q 695 813 757 796 q 565 831 633 831 m 635 1158 q 604 1083 635 1111 q 532 1056 574 1056 q 458 1083 489 1056 q 428 1158 428 1111 q 458 1235 428 1207 q 532 1263 489 1263 q 604 1235 574 1263 q 635 1158 635 1207 z "},"ġ":{"ha":814,"x_min":67,"x_max":707,"o":"m 239 382 q 285 226 239 275 q 406 176 332 176 q 481 188 446 176 q 539 214 517 199 l 539 590 q 494 598 521 594 q 428 601 468 601 q 288 541 336 601 q 239 382 239 481 m 707 74 q 619 -181 707 -100 q 349 -261 531 -261 q 219 -250 282 -261 q 104 -221 156 -239 l 135 -78 q 233 -107 178 -96 q 351 -118 288 -118 q 496 -76 453 -118 q 539 47 539 -35 l 539 75 q 473 50 514 63 q 379 38 432 38 q 252 60 310 38 q 153 125 194 82 q 90 233 113 168 q 67 382 67 297 q 91 528 67 461 q 162 642 115 594 q 275 715 208 689 q 426 742 342 742 q 582 729 508 742 q 707 703 656 717 l 707 74 m 533 939 q 503 864 533 892 q 431 836 472 836 q 357 864 388 836 q 326 939 326 892 q 357 1015 326 988 q 431 1043 388 1043 q 503 1015 472 1043 q 533 939 533 988 z "},"Ģ":{"ha":949,"x_min":76,"x_max":861,"o":"m 565 831 q 338 738 417 831 q 260 482 260 646 q 278 340 260 404 q 334 229 297 275 q 426 158 371 183 q 554 132 481 132 q 633 135 600 132 q 686 144 667 139 l 686 490 l 861 490 l 861 28 q 739 -3 825 14 q 540 -19 653 -19 q 350 14 436 -19 q 203 111 264 47 q 110 268 143 175 q 76 482 76 361 q 113 696 76 603 q 214 853 150 789 q 364 951 278 918 q 547 985 450 985 q 666 976 614 985 q 756 956 718 967 q 817 932 793 944 q 851 914 842 919 l 799 771 q 695 813 757 796 q 565 831 633 831 m 617 -71 q 619 -94 618 -82 q 619 -111 619 -107 q 604 -192 619 -160 q 564 -245 589 -225 q 506 -274 539 -265 q 439 -283 474 -283 q 402 -281 419 -283 q 378 -276 385 -279 l 378 -179 q 416 -176 399 -179 q 446 -165 433 -174 q 465 -138 458 -156 q 472 -90 472 -121 l 472 -71 l 617 -71 z "},"ģ":{"ha":814,"x_min":67,"x_max":707,"o":"m 239 382 q 285 226 239 275 q 406 176 332 176 q 481 188 446 176 q 539 214 517 199 l 539 590 q 494 598 521 594 q 428 601 468 601 q 288 541 336 601 q 239 382 239 481 m 707 74 q 619 -181 707 -100 q 349 -261 531 -261 q 219 -250 282 -261 q 104 -221 156 -239 l 135 -78 q 233 -107 178 -96 q 351 -118 288 -118 q 496 -76 453 -118 q 539 47 539 -35 l 539 75 q 473 50 514 63 q 379 38 432 38 q 252 60 310 38 q 153 125 194 82 q 90 233 113 168 q 67 382 67 297 q 91 528 67 461 q 162 642 115 594 q 275 715 208 689 q 426 742 342 742 q 582 729 508 742 q 707 703 656 717 l 707 74 m 354 839 q 353 854 353 846 q 353 869 353 863 q 397 1008 353 950 q 525 1093 440 1067 l 582 1014 q 547 986 563 1000 q 522 954 532 972 q 506 912 511 936 q 500 853 500 888 l 500 839 l 354 839 z "},"Ĥ":{"ha":999,"x_min":115,"x_max":883,"o":"m 708 963 l 883 963 l 883 0 l 708 0 l 708 426 l 290 426 l 290 0 l 115 0 l 115 963 l 290 963 l 290 578 l 708 578 l 708 963 m 701 1106 l 636 1032 l 499 1144 l 363 1032 l 296 1106 l 499 1300 l 701 1106 z "},"ĥ":{"ha":808,"x_min":78,"x_max":714,"o":"m 107 0 l 107 1050 l 275 1078 l 275 718 q 340 735 303 728 q 413 742 376 742 q 558 717 500 742 q 650 649 615 693 q 699 544 685 606 q 714 408 714 483 l 714 0 l 546 0 l 546 382 q 538 481 546 440 q 513 548 531 522 q 467 585 496 574 q 394 597 438 597 q 326 590 361 597 q 275 578 292 583 l 275 0 l 107 0 m 453 1197 l 403 1121 l 265 1204 l 128 1121 l 78 1197 l 265 1338 l 453 1197 z "},"Ħ":{"ha":1038,"x_min":22,"x_max":1015,"o":"m 22 838 l 135 838 l 135 963 l 310 963 l 310 838 l 728 838 l 728 963 l 903 963 l 903 838 l 1015 838 l 1015 711 l 903 711 l 903 0 l 728 0 l 728 426 l 310 426 l 310 0 l 135 0 l 135 711 l 22 711 l 22 838 m 728 711 l 310 711 l 310 578 l 728 578 l 728 711 z "},"ħ":{"ha":808,"x_min":13,"x_max":714,"o":"m 275 840 l 275 706 q 340 722 303 715 q 413 729 376 729 q 558 705 500 729 q 650 637 615 681 q 699 532 685 593 q 714 396 714 471 l 714 0 l 546 0 l 546 369 q 538 469 546 428 q 513 535 531 510 q 467 573 496 561 q 394 585 438 585 q 326 578 361 585 q 275 565 292 571 l 275 0 l 107 0 l 107 840 l 13 840 l 13 953 l 107 953 l 107 1050 l 275 1078 l 275 953 l 497 953 l 497 840 l 275 840 z "},"Ĩ":{"ha":406,"x_min":-39,"x_max":447,"o":"m 115 963 l 290 963 l 290 0 l 115 0 l 115 963 m 447 1207 q 426 1165 439 1188 q 393 1122 413 1142 q 349 1088 374 1101 q 293 1074 324 1074 q 246 1081 268 1074 q 202 1099 224 1089 q 160 1116 181 1108 q 121 1124 140 1124 q 76 1106 94 1124 q 46 1064 57 1088 l -39 1114 q -19 1156 -32 1133 q 15 1199 -6 1179 q 60 1233 35 1219 q 115 1247 85 1247 q 163 1239 140 1247 q 206 1222 185 1231 q 248 1204 228 1213 q 288 1196 268 1196 q 333 1215 314 1196 q 363 1257 351 1233 l 447 1207 z "},"ĩ":{"ha":383,"x_min":-71,"x_max":415,"o":"m 276 0 l 108 0 l 108 726 l 276 726 l 276 0 m 415 986 q 394 944 407 967 q 361 901 381 921 q 317 867 342 881 q 261 853 292 853 q 214 860 236 853 q 170 878 192 868 q 128 895 149 888 q 89 903 108 903 q 44 885 63 903 q 14 843 25 867 l -71 893 q -51 935 -64 913 q -17 978 -37 958 q 28 1013 3 999 q 83 1026 53 1026 q 131 1018 108 1026 q 174 1001 153 1010 q 216 983 196 992 q 256 975 236 975 q 301 994 282 975 q 331 1036 319 1013 l 415 986 z "},"Ī":{"ha":406,"x_min":-7,"x_max":414,"o":"m 115 963 l 290 963 l 290 0 l 115 0 l 115 963 m 414 1211 l 414 1090 l -7 1090 l -7 1211 l 414 1211 z "},"ī":{"ha":383,"x_min":-39,"x_max":382,"o":"m 276 0 l 108 0 l 108 726 l 276 726 l 276 0 m 382 997 l 382 876 l -39 876 l -39 997 l 382 997 z "},"Ĭ":{"ha":406,"x_min":6,"x_max":415,"o":"m 115 963 l 290 963 l 290 0 l 115 0 l 115 963 m 211 1053 q 129 1067 167 1053 q 64 1106 92 1081 q 21 1169 36 1132 q 6 1256 6 1207 l 6 1264 l 118 1264 q 142 1192 121 1219 q 211 1165 164 1165 q 278 1192 257 1165 q 304 1264 300 1219 l 415 1264 l 415 1254 q 358 1106 415 1158 q 211 1053 300 1053 z "},"ĭ":{"ha":383,"x_min":-33,"x_max":376,"o":"m 276 0 l 108 0 l 108 726 l 276 726 l 276 0 m 172 839 q 90 853 128 839 q 25 892 53 867 q -18 956 -3 918 q -33 1042 -33 993 l -33 1050 l 79 1050 q 103 978 82 1006 q 172 951 125 951 q 240 978 218 951 q 265 1050 261 1006 l 376 1050 l 376 1040 q 319 892 376 944 q 172 839 261 839 z "},"Į":{"ha":406,"x_min":38,"x_max":315,"o":"m 119 963 l 294 963 l 294 0 q 261 -28 279 -12 q 228 -60 243 -43 q 201 -95 213 -78 q 190 -126 190 -112 q 239 -164 190 -164 q 267 -162 250 -164 q 303 -153 283 -160 l 315 -265 q 263 -278 294 -274 q 201 -283 231 -283 q 78 -253 118 -283 q 38 -174 38 -224 q 49 -119 38 -144 q 81 -73 61 -94 q 124 -33 100 -51 q 174 0 149 -15 l 119 0 l 119 963 z "},"į":{"ha":383,"x_min":21,"x_max":299,"o":"m 183 -283 q 60 -253 100 -283 q 21 -174 21 -224 q 32 -121 21 -146 q 62 -74 43 -96 q 105 -34 81 -53 q 156 0 129 -15 l 108 0 l 108 726 l 276 726 l 276 0 q 242 -29 260 -12 q 208 -62 224 -46 q 183 -96 193 -79 q 172 -126 172 -112 q 221 -164 172 -164 q 249 -162 232 -164 q 285 -153 265 -160 l 299 -265 q 245 -278 276 -274 q 183 -283 214 -283 m 294 939 q 264 864 294 892 q 192 836 233 836 q 118 864 149 836 q 88 939 88 892 q 118 1015 88 988 q 192 1043 149 1043 q 264 1015 233 1043 q 294 939 294 988 z "},"İ":{"ha":406,"x_min":99,"x_max":306,"o":"m 115 963 l 290 963 l 290 0 l 115 0 l 115 963 m 306 1158 q 275 1083 306 1111 q 203 1056 244 1056 q 129 1083 160 1056 q 99 1158 99 1111 q 129 1235 99 1207 q 203 1263 160 1263 q 275 1235 244 1263 q 306 1158 306 1207 z "},"ı":{"ha":383,"x_min":108,"x_max":276,"o":"m 276 0 l 108 0 l 108 726 l 276 726 l 276 0 z "},"Ĳ":{"ha":1124,"x_min":115,"x_max":1015,"o":"m 115 963 l 290 963 l 290 0 l 115 0 l 115 963 m 1015 317 q 1000 185 1015 246 q 947 78 985 124 q 844 6 908 32 q 681 -21 779 -21 q 522 5 589 -21 q 418 60 454 31 l 481 197 q 566 152 515 174 q 669 131 617 131 q 799 175 758 131 q 839 328 839 219 l 839 963 l 1015 963 l 1015 317 z "},"ĳ":{"ha":761,"x_min":88,"x_max":672,"o":"m 276 0 l 108 0 l 108 726 l 276 726 l 276 0 m 294 939 q 264 864 294 892 q 192 836 233 836 q 118 864 149 836 q 88 939 88 892 q 118 1015 88 988 q 192 1043 149 1043 q 264 1015 233 1043 q 294 939 294 988 m 393 -258 q 342 -255 375 -258 q 285 -242 310 -251 l 307 -104 q 381 -114 338 -114 q 463 -80 439 -114 q 486 22 486 -46 l 486 726 l 654 726 l 654 19 q 587 -190 654 -122 q 393 -258 519 -258 m 672 939 q 642 864 672 892 q 569 836 611 836 q 496 864 526 836 q 465 939 465 892 q 496 1015 465 988 q 569 1043 526 1043 q 642 1015 611 1043 q 672 939 672 988 z "},"Ĵ":{"ha":713,"x_min":7,"x_max":717,"o":"m 604 317 q 589 185 604 246 q 535 78 574 124 q 433 6 497 32 q 269 -21 368 -21 q 110 5 178 -21 q 7 60 43 31 l 69 197 q 155 152 104 174 q 258 131 206 131 q 388 175 347 131 q 428 328 428 219 l 428 963 l 604 963 l 604 317 m 717 1106 l 651 1032 l 514 1144 l 378 1032 l 311 1106 l 514 1300 l 717 1106 z "},"ĵ":{"ha":382,"x_min":-94,"x_max":392,"o":"m 14 -258 q -37 -255 -4 -258 q -94 -242 -69 -251 l -72 -104 q 1 -114 -42 -114 q 83 -80 60 -114 q 107 22 107 -46 l 107 726 l 275 726 l 275 19 q 208 -190 275 -122 q 14 -258 140 -258 m 392 882 l 326 808 l 189 921 l 53 808 l -14 882 l 189 1076 l 392 882 z "},"Ķ":{"ha":904,"x_min":115,"x_max":897,"o":"m 690 0 q 607 117 654 56 q 508 235 560 178 q 400 343 456 292 q 290 432 344 394 l 290 0 l 115 0 l 115 963 l 290 963 l 290 565 q 386 663 336 611 q 485 769 436 715 q 579 872 535 822 q 660 963 624 922 l 869 963 q 772 853 824 910 q 667 738 721 796 q 558 624 613 681 q 450 515 503 567 q 569 412 508 471 q 688 285 629 353 q 799 145 746 218 q 897 0 853 72 l 690 0 m 558 -71 q 560 -94 560 -82 q 561 -111 561 -107 q 546 -192 561 -160 q 506 -245 531 -225 q 448 -274 481 -265 q 381 -283 415 -283 q 344 -281 361 -283 q 319 -276 326 -279 l 319 -179 q 358 -176 340 -179 q 388 -165 375 -174 q 407 -138 400 -156 q 414 -90 414 -121 l 414 -71 l 558 -71 z "},"ķ":{"ha":765,"x_min":107,"x_max":750,"o":"m 275 443 q 343 515 307 476 q 414 591 379 553 q 480 665 449 629 q 533 726 511 700 l 732 726 q 585 565 663 649 q 431 403 508 482 q 518 319 472 368 q 607 214 564 269 q 688 103 650 158 q 750 0 725 47 l 556 0 q 498 90 531 43 q 428 182 465 138 q 351 266 390 226 q 275 333 313 306 l 275 0 l 107 0 l 107 1050 l 275 1078 l 275 443 m 481 -71 q 483 -94 482 -82 q 483 -111 483 -107 q 468 -192 483 -160 q 428 -245 453 -225 q 370 -274 403 -265 q 303 -283 338 -283 q 266 -281 283 -283 q 242 -276 249 -279 l 242 -179 q 280 -176 263 -179 q 310 -165 297 -174 q 329 -138 322 -156 q 336 -90 336 -121 l 336 -71 l 481 -71 z "},"ĸ":{"ha":778,"x_min":107,"x_max":763,"o":"m 275 435 q 344 506 307 467 q 419 586 382 546 q 489 663 456 626 q 544 726 522 700 l 742 726 q 672 647 711 690 q 590 559 632 604 q 506 472 547 514 q 432 396 465 429 q 522 312 475 360 q 613 210 568 264 q 697 102 658 157 q 763 0 736 47 l 568 0 q 506 88 542 42 q 432 177 471 133 q 353 260 393 221 q 275 326 313 299 l 275 0 l 107 0 l 107 726 l 275 726 l 275 435 z "},"Ĺ":{"ha":742,"x_min":111,"x_max":724,"o":"m 724 151 l 724 0 l 115 0 l 115 963 l 290 963 l 290 151 l 724 151 m 421 1249 l 194 1029 l 111 1104 l 315 1347 l 421 1249 z "},"ĺ":{"ha":413,"x_min":69,"x_max":389,"o":"m 360 -14 q 235 3 285 -12 q 157 47 186 18 q 116 117 128 75 q 104 214 104 160 l 104 1050 l 272 1078 l 272 246 q 277 194 272 215 q 294 159 282 174 q 328 137 307 144 q 383 125 350 129 l 360 -14 m 113 1131 l 69 1226 l 333 1357 l 389 1233 l 113 1131 z "},"Ļ":{"ha":742,"x_min":115,"x_max":724,"o":"m 724 151 l 724 0 l 115 0 l 115 963 l 290 963 l 290 151 l 724 151 m 511 -71 q 513 -94 513 -82 q 514 -111 514 -107 q 499 -192 514 -160 q 458 -245 483 -225 q 401 -274 433 -265 q 333 -283 368 -283 q 297 -281 314 -283 q 272 -276 279 -279 l 272 -179 q 310 -176 293 -179 q 340 -165 328 -174 q 360 -138 353 -156 q 367 -90 367 -121 l 367 -71 l 511 -71 z "},"ļ":{"ha":413,"x_min":61,"x_max":383,"o":"m 360 -14 q 235 3 285 -12 q 157 47 186 18 q 116 117 128 75 q 104 214 104 160 l 104 1050 l 272 1078 l 272 246 q 277 194 272 215 q 294 159 282 174 q 328 137 307 144 q 383 125 350 129 l 360 -14 m 300 -71 q 302 -94 301 -82 q 303 -111 303 -107 q 288 -192 303 -160 q 247 -245 272 -225 q 190 -274 222 -265 q 122 -283 157 -283 q 85 -281 103 -283 q 61 -276 68 -279 l 61 -179 q 99 -176 82 -179 q 129 -165 117 -174 q 149 -138 142 -156 q 156 -90 156 -121 l 156 -71 l 300 -71 z "},"Ľ":{"ha":742,"x_min":115,"x_max":724,"o":"m 724 151 l 724 0 l 115 0 l 115 963 l 290 963 l 290 151 l 724 151 m 581 964 l 540 639 l 426 639 l 426 964 l 581 964 z "},"ľ":{"ha":499,"x_min":104,"x_max":546,"o":"m 360 -14 q 235 3 285 -12 q 157 47 186 18 q 116 117 128 75 q 104 214 104 160 l 104 1050 l 272 1078 l 272 246 q 277 194 272 215 q 294 159 282 174 q 328 137 307 144 q 383 125 350 129 l 360 -14 m 546 1078 l 506 753 l 392 753 l 392 1078 l 546 1078 z "},"Ŀ":{"ha":742,"x_min":115,"x_max":724,"o":"m 724 151 l 724 0 l 115 0 l 115 963 l 290 963 l 290 151 l 724 151 m 681 533 q 650 458 681 486 q 578 431 619 431 q 504 458 535 431 q 474 533 474 486 q 504 610 474 582 q 578 638 535 638 q 650 610 619 638 q 681 533 681 582 z "},"ŀ":{"ha":601,"x_min":104,"x_max":597,"o":"m 360 -14 q 235 3 285 -12 q 157 47 186 18 q 116 117 128 75 q 104 214 104 160 l 104 1050 l 272 1078 l 272 246 q 277 194 272 215 q 294 159 282 174 q 328 137 307 144 q 383 125 350 129 l 360 -14 m 597 540 q 567 465 597 493 q 494 438 536 438 q 421 465 451 438 q 390 540 390 493 q 421 617 390 589 q 494 644 451 644 q 567 617 536 644 q 597 540 597 589 z "},"Ł":{"ha":769,"x_min":-7,"x_max":751,"o":"m -7 443 l 143 519 l 143 963 l 318 963 l 318 608 l 485 693 l 540 578 l 318 464 l 318 151 l 751 151 l 751 0 l 143 0 l 143 375 l 50 328 l -7 443 z "},"ł":{"ha":450,"x_min":0,"x_max":457,"o":"m 0 532 l 136 600 l 136 1050 l 304 1078 l 304 685 l 404 736 l 457 629 l 304 551 l 304 246 q 309 194 304 215 q 326 159 314 174 q 360 137 339 144 q 415 125 382 129 l 392 -14 q 267 3 317 -12 q 189 47 218 18 q 148 117 160 75 q 136 214 136 160 l 136 467 l 54 425 l 0 532 z "},"Ń":{"ha":1028,"x_min":115,"x_max":913,"o":"m 764 0 q 658 170 717 79 q 538 353 600 261 q 410 533 475 446 q 288 689 346 619 l 288 0 l 115 0 l 115 963 l 258 963 q 378 824 314 904 q 506 658 442 744 q 631 485 571 572 q 739 324 692 399 l 739 963 l 913 963 l 913 0 l 764 0 m 697 1249 l 471 1029 l 388 1104 l 592 1347 l 697 1249 z "},"ń":{"ha":813,"x_min":107,"x_max":714,"o":"m 107 703 q 233 729 156 717 q 406 742 311 742 q 554 717 494 742 q 649 649 614 693 q 699 544 685 606 q 714 408 714 482 l 714 0 l 546 0 l 546 382 q 538 481 546 440 q 513 548 531 522 q 466 585 496 574 q 393 597 436 597 q 326 593 361 597 q 275 586 292 589 l 275 0 l 107 0 l 107 703 m 586 1024 l 360 804 l 276 879 l 481 1122 l 586 1024 z "},"Ņ":{"ha":1028,"x_min":115,"x_max":913,"o":"m 764 0 q 658 170 717 79 q 538 353 600 261 q 410 533 475 446 q 288 689 346 619 l 288 0 l 115 0 l 115 963 l 258 963 q 378 824 314 904 q 506 658 442 744 q 631 485 571 572 q 739 324 692 399 l 739 963 l 913 963 l 913 0 l 764 0 m 599 -71 q 601 -94 600 -82 q 601 -111 601 -107 q 586 -192 601 -160 q 546 -245 571 -225 q 488 -274 521 -265 q 421 -283 456 -283 q 384 -281 401 -283 q 360 -276 367 -279 l 360 -179 q 398 -176 381 -179 q 428 -165 415 -174 q 447 -138 440 -156 q 454 -90 454 -121 l 454 -71 l 599 -71 z "},"ņ":{"ha":813,"x_min":107,"x_max":714,"o":"m 107 703 q 233 729 156 717 q 406 742 311 742 q 554 717 494 742 q 649 649 614 693 q 699 544 685 606 q 714 408 714 482 l 714 0 l 546 0 l 546 382 q 538 481 546 440 q 513 548 531 522 q 466 585 496 574 q 393 597 436 597 q 326 593 361 597 q 275 586 292 589 l 275 0 l 107 0 l 107 703 m 485 -71 q 487 -94 486 -82 q 488 -111 488 -107 q 472 -192 488 -160 q 432 -245 457 -225 q 374 -274 407 -265 q 307 -283 342 -283 q 270 -281 288 -283 q 246 -276 253 -279 l 246 -179 q 284 -176 267 -179 q 314 -165 301 -174 q 333 -138 326 -156 q 340 -90 340 -121 l 340 -71 l 485 -71 z "},"Ň":{"ha":1028,"x_min":115,"x_max":913,"o":"m 764 0 q 658 170 717 79 q 538 353 600 261 q 410 533 475 446 q 288 689 346 619 l 288 0 l 115 0 l 115 963 l 258 963 q 378 824 314 904 q 506 658 442 744 q 631 485 571 572 q 739 324 692 399 l 739 963 l 913 963 l 913 0 l 764 0 m 504 1033 l 301 1228 l 368 1301 l 504 1189 l 642 1301 l 707 1228 l 504 1033 z "},"ň":{"ha":813,"x_min":107,"x_max":714,"o":"m 107 703 q 233 729 156 717 q 406 742 311 742 q 554 717 494 742 q 649 649 614 693 q 699 544 685 606 q 714 408 714 482 l 714 0 l 546 0 l 546 382 q 538 481 546 440 q 513 548 531 522 q 466 585 496 574 q 393 597 436 597 q 326 593 361 597 q 275 586 292 589 l 275 0 l 107 0 l 107 703 m 399 814 l 196 1008 l 263 1082 l 399 969 l 536 1082 l 601 1008 l 399 814 z "},"ŉ":{"ha":831,"x_min":-7,"x_max":733,"o":"m 126 703 q 253 729 175 717 q 425 742 331 742 q 574 717 514 742 q 669 649 633 693 q 719 544 704 606 q 733 408 733 482 l 733 0 l 565 0 l 565 382 q 558 481 565 440 q 533 548 550 522 q 485 585 515 574 q 413 597 456 597 q 346 593 381 597 q 294 586 311 589 l 294 0 l 126 0 l 126 703 m 197 1078 q 191 984 197 1026 q 174 905 185 942 q 146 835 163 868 q 107 768 129 801 l -7 803 q 33 912 21 861 q 44 1019 44 963 q 44 1051 44 1035 q 40 1078 43 1068 l 197 1078 z "},"Ŋ":{"ha":1028,"x_min":115,"x_max":913,"o":"m 739 46 q 635 208 690 122 q 519 380 579 294 q 401 545 460 465 q 288 689 342 625 l 288 0 l 115 0 l 115 963 l 257 963 q 377 825 313 904 q 506 660 442 746 q 631 486 571 574 q 739 324 690 399 l 739 963 l 913 963 l 913 11 q 901 -108 913 -57 q 860 -192 889 -158 q 786 -243 832 -226 q 674 -260 740 -260 q 624 -256 654 -260 q 569 -246 594 -253 l 590 -111 q 622 -118 606 -117 q 657 -119 638 -119 q 722 -88 704 -119 q 739 3 739 -57 l 739 46 z "},"ŋ":{"ha":813,"x_min":107,"x_max":714,"o":"m 546 382 q 538 481 546 440 q 513 548 531 522 q 466 585 496 574 q 393 597 436 597 q 326 593 361 597 q 275 586 292 589 l 275 0 l 107 0 l 107 703 q 233 729 156 717 q 406 742 311 742 q 554 717 494 742 q 649 649 614 693 q 699 544 685 606 q 714 408 714 482 l 714 1 q 702 -112 714 -64 q 663 -194 690 -161 q 592 -242 636 -226 q 481 -258 547 -258 q 433 -255 461 -258 q 382 -244 406 -251 l 400 -119 q 430 -126 414 -124 q 461 -128 446 -128 q 526 -99 507 -128 q 546 -14 546 -71 l 546 382 z "},"Ō":{"ha":1086,"x_min":76,"x_max":1010,"o":"m 258 482 q 278 338 258 403 q 334 228 297 274 q 424 158 371 183 q 543 133 476 133 q 661 158 608 133 q 751 228 714 183 q 807 338 788 274 q 826 482 826 403 q 807 626 826 561 q 751 735 788 690 q 661 806 714 781 q 543 831 608 831 q 424 806 476 831 q 334 735 371 781 q 278 625 297 689 q 258 482 258 561 m 1010 482 q 973 264 1010 358 q 873 106 936 169 q 725 11 810 43 q 544 -21 640 -21 q 363 11 449 -21 q 215 106 278 43 q 114 264 151 169 q 76 482 76 358 q 114 699 76 606 q 216 857 151 793 q 365 953 281 921 q 544 985 450 985 q 724 953 639 985 q 872 857 808 921 q 972 699 935 793 q 1010 482 1010 606 m 753 1211 l 753 1090 l 332 1090 l 332 1211 l 753 1211 z "},"ō":{"ha":831,"x_min":67,"x_max":764,"o":"m 764 364 q 739 207 764 278 q 668 86 714 136 q 558 8 622 36 q 415 -19 493 -19 q 274 8 338 -19 q 164 86 210 36 q 92 207 118 136 q 67 364 67 278 q 92 520 67 450 q 165 640 118 590 q 275 717 211 690 q 415 744 339 744 q 556 717 492 744 q 667 640 621 690 q 738 520 713 590 q 764 364 764 450 m 592 364 q 545 535 592 472 q 415 599 499 599 q 285 535 332 599 q 239 364 239 472 q 285 190 239 254 q 415 126 332 126 q 545 190 499 126 q 592 364 592 254 m 625 997 l 625 876 l 204 876 l 204 997 l 625 997 z "},"Ŏ":{"ha":1086,"x_min":76,"x_max":1010,"o":"m 258 482 q 278 338 258 403 q 334 228 297 274 q 424 158 371 183 q 543 133 476 133 q 661 158 608 133 q 751 228 714 183 q 807 338 788 274 q 826 482 826 403 q 807 626 826 561 q 751 735 788 690 q 661 806 714 781 q 543 831 608 831 q 424 806 476 831 q 334 735 371 781 q 278 625 297 689 q 258 482 258 561 m 1010 482 q 973 264 1010 358 q 873 106 936 169 q 725 11 810 43 q 544 -21 640 -21 q 363 11 449 -21 q 215 106 278 43 q 114 264 151 169 q 76 482 76 358 q 114 699 76 606 q 216 857 151 793 q 365 953 281 921 q 544 985 450 985 q 724 953 639 985 q 872 857 808 921 q 972 699 935 793 q 1010 482 1010 606 m 543 1053 q 461 1067 499 1053 q 396 1106 424 1081 q 353 1169 368 1132 q 338 1256 338 1207 l 338 1264 l 450 1264 q 474 1192 453 1219 q 543 1165 496 1165 q 610 1192 589 1165 q 636 1264 632 1219 l 747 1264 l 747 1254 q 690 1106 747 1158 q 543 1053 632 1053 z "},"ŏ":{"ha":831,"x_min":67,"x_max":764,"o":"m 764 364 q 739 207 764 278 q 668 86 714 136 q 558 8 622 36 q 415 -19 493 -19 q 274 8 338 -19 q 164 86 210 36 q 92 207 118 136 q 67 364 67 278 q 92 520 67 450 q 165 640 118 590 q 275 717 211 690 q 415 744 339 744 q 556 717 492 744 q 667 640 621 690 q 738 520 713 590 q 764 364 764 450 m 592 364 q 545 535 592 472 q 415 599 499 599 q 285 535 332 599 q 239 364 239 472 q 285 190 239 254 q 415 126 332 126 q 545 190 499 126 q 592 364 592 254 m 415 839 q 333 853 371 839 q 268 892 296 867 q 225 956 240 918 q 210 1042 210 993 l 210 1050 l 322 1050 q 347 978 325 1006 q 415 951 368 951 q 483 978 461 951 q 508 1050 504 1006 l 619 1050 l 619 1040 q 562 892 619 944 q 415 839 504 839 z "},"Ő":{"ha":1086,"x_min":76,"x_max":1010,"o":"m 258 482 q 278 338 258 403 q 334 228 297 274 q 424 158 371 183 q 543 133 476 133 q 661 158 608 133 q 751 228 714 183 q 807 338 788 274 q 826 482 826 403 q 807 626 826 561 q 751 735 788 690 q 661 806 714 781 q 543 831 608 831 q 424 806 476 831 q 334 735 371 781 q 278 625 297 689 q 258 482 258 561 m 1010 482 q 973 264 1010 358 q 873 106 936 169 q 725 11 810 43 q 544 -21 640 -21 q 363 11 449 -21 q 215 106 278 43 q 114 264 151 169 q 76 482 76 358 q 114 699 76 606 q 216 857 151 793 q 365 953 281 921 q 544 985 450 985 q 724 953 639 985 q 872 857 808 921 q 972 699 935 793 q 1010 482 1010 606 m 604 1226 l 422 1024 l 342 1085 l 506 1314 l 604 1226 m 860 1226 l 676 1024 l 597 1085 l 760 1314 l 860 1226 z "},"ő":{"ha":831,"x_min":67,"x_max":764,"o":"m 764 364 q 739 207 764 278 q 668 86 714 136 q 558 8 622 36 q 415 -19 493 -19 q 274 8 338 -19 q 164 86 210 36 q 92 207 118 136 q 67 364 67 278 q 92 520 67 450 q 165 640 118 590 q 275 717 211 690 q 415 744 339 744 q 556 717 492 744 q 667 640 621 690 q 738 520 713 590 q 764 364 764 450 m 592 364 q 545 535 592 472 q 415 599 499 599 q 285 535 332 599 q 239 364 239 472 q 285 190 239 254 q 415 126 332 126 q 545 190 499 126 q 592 364 592 254 m 471 1006 l 289 803 l 208 864 l 372 1093 l 471 1006 m 726 1006 l 543 803 l 464 864 l 626 1093 l 726 1006 z "},"Ŕ":{"ha":889,"x_min":115,"x_max":868,"o":"m 381 972 q 699 896 589 972 q 810 663 810 819 q 617 397 810 467 q 676 319 643 365 q 744 220 710 274 q 811 110 779 167 q 868 0 843 54 l 672 0 q 615 101 646 50 q 553 199 585 151 q 492 290 522 247 q 435 365 461 332 q 401 364 415 364 q 375 364 388 364 l 290 364 l 290 0 l 115 0 l 115 949 q 251 967 179 963 q 381 972 324 972 m 393 821 q 290 817 338 821 l 290 506 l 367 506 q 479 513 431 506 q 560 538 528 519 q 610 586 593 556 q 626 664 626 617 q 610 739 626 708 q 562 788 593 769 q 488 813 531 806 q 393 821 444 821 m 610 1249 l 383 1029 l 300 1104 l 504 1347 l 610 1249 z "},"ŕ":{"ha":560,"x_min":107,"x_max":550,"o":"m 521 575 q 463 590 500 582 q 378 597 426 597 q 319 592 350 597 q 275 582 288 586 l 275 0 l 107 0 l 107 692 q 228 726 156 710 q 390 742 301 742 q 429 740 407 742 q 474 734 451 738 q 517 726 496 731 q 550 717 538 721 l 521 575 m 513 1024 l 286 804 l 203 879 l 407 1122 l 513 1024 z "},"Ŗ":{"ha":889,"x_min":115,"x_max":868,"o":"m 381 972 q 699 896 589 972 q 810 663 810 819 q 617 397 810 467 q 676 319 643 365 q 744 220 710 274 q 811 110 779 167 q 868 0 843 54 l 672 0 q 615 101 646 50 q 553 199 585 151 q 492 290 522 247 q 435 365 461 332 q 401 364 415 364 q 375 364 388 364 l 290 364 l 290 0 l 115 0 l 115 949 q 251 967 179 963 q 381 972 324 972 m 393 821 q 290 817 338 821 l 290 506 l 367 506 q 479 513 431 506 q 560 538 528 519 q 610 586 593 556 q 626 664 626 617 q 610 739 626 708 q 562 788 593 769 q 488 813 531 806 q 393 821 444 821 m 546 -71 q 548 -94 547 -82 q 549 -111 549 -107 q 533 -192 549 -160 q 493 -245 518 -225 q 435 -274 468 -265 q 368 -283 403 -283 q 331 -281 349 -283 q 307 -276 314 -279 l 307 -179 q 345 -176 328 -179 q 375 -165 363 -174 q 394 -138 388 -156 q 401 -90 401 -121 l 401 -71 l 546 -71 z "},"ŗ":{"ha":560,"x_min":24,"x_max":550,"o":"m 521 575 q 463 590 500 582 q 378 597 426 597 q 319 592 350 597 q 275 582 288 586 l 275 0 l 107 0 l 107 692 q 228 726 156 710 q 390 742 301 742 q 429 740 407 742 q 474 734 451 738 q 517 726 496 731 q 550 717 538 721 l 521 575 m 263 -71 q 265 -94 264 -82 q 265 -111 265 -107 q 250 -192 265 -160 q 210 -245 235 -225 q 152 -274 185 -265 q 85 -283 119 -283 q 48 -281 65 -283 q 24 -276 31 -279 l 24 -179 q 62 -176 44 -179 q 92 -165 79 -174 q 111 -138 104 -156 q 118 -90 118 -121 l 118 -71 l 263 -71 z "},"Ř":{"ha":889,"x_min":115,"x_max":868,"o":"m 381 972 q 699 896 589 972 q 810 663 810 819 q 617 397 810 467 q 676 319 643 365 q 744 220 710 274 q 811 110 779 167 q 868 0 843 54 l 672 0 q 615 101 646 50 q 553 199 585 151 q 492 290 522 247 q 435 365 461 332 q 401 364 415 364 q 375 364 388 364 l 290 364 l 290 0 l 115 0 l 115 949 q 251 967 179 963 q 381 972 324 972 m 393 821 q 290 817 338 821 l 290 506 l 367 506 q 479 513 431 506 q 560 538 528 519 q 610 586 593 556 q 626 664 626 617 q 610 739 626 708 q 562 788 593 769 q 488 813 531 806 q 393 821 444 821 m 422 1033 l 219 1228 l 286 1301 l 422 1189 l 560 1301 l 625 1228 l 422 1033 z "},"ř":{"ha":560,"x_min":107,"x_max":550,"o":"m 521 575 q 463 590 500 582 q 378 597 426 597 q 319 592 350 597 q 275 582 288 586 l 275 0 l 107 0 l 107 692 q 228 726 156 710 q 390 742 301 742 q 429 740 407 742 q 474 734 451 738 q 517 726 496 731 q 550 717 538 721 l 521 575 m 332 814 l 129 1008 l 196 1082 l 332 969 l 469 1082 l 535 1008 l 332 814 z "},"Ś":{"ha":750,"x_min":42,"x_max":711,"o":"m 349 131 q 486 163 443 131 q 529 253 529 194 q 515 313 529 288 q 473 358 500 338 q 407 395 446 378 q 318 429 368 413 q 222 469 268 447 q 140 522 175 490 q 83 599 104 554 q 61 706 61 643 q 151 910 61 836 q 397 985 242 985 q 558 965 488 985 q 668 921 628 944 l 614 779 q 510 819 567 806 q 394 833 454 833 q 284 804 324 833 q 244 722 244 775 q 258 667 244 690 q 295 626 271 644 q 352 593 319 608 q 424 564 385 578 q 545 513 492 539 q 635 452 599 488 q 692 369 672 417 q 711 253 711 321 q 619 51 711 122 q 349 -21 526 -21 q 240 -13 289 -21 q 152 6 190 -6 q 86 28 114 17 q 42 50 58 40 l 93 193 q 194 151 131 172 q 349 131 258 131 m 579 1249 l 353 1029 l 269 1104 l 474 1347 l 579 1249 z "},"ś":{"ha":635,"x_min":51,"x_max":585,"o":"m 289 121 q 386 137 356 121 q 417 192 417 153 q 384 251 417 228 q 276 303 351 275 q 192 338 231 319 q 126 382 154 357 q 83 442 99 407 q 67 529 67 478 q 140 687 67 629 q 340 744 214 744 q 463 733 404 744 q 550 710 521 721 l 519 574 q 449 597 492 586 q 349 607 406 607 q 265 590 297 607 q 233 536 233 572 q 240 504 233 518 q 261 478 246 490 q 301 455 276 467 q 363 431 326 443 q 464 387 422 408 q 533 338 506 365 q 572 276 560 311 q 585 193 585 242 q 508 35 585 89 q 288 -18 431 -18 q 133 -2 192 -18 q 51 24 75 14 l 81 164 q 170 135 118 149 q 289 121 222 121 m 517 1024 l 290 804 l 207 879 l 411 1122 l 517 1024 z "},"Ŝ":{"ha":750,"x_min":42,"x_max":711,"o":"m 349 131 q 486 163 443 131 q 529 253 529 194 q 515 313 529 288 q 473 358 500 338 q 407 395 446 378 q 318 429 368 413 q 222 469 268 447 q 140 522 175 490 q 83 599 104 554 q 61 706 61 643 q 151 910 61 836 q 397 985 242 985 q 558 965 488 985 q 668 921 628 944 l 614 779 q 510 819 567 806 q 394 833 454 833 q 284 804 324 833 q 244 722 244 775 q 258 667 244 690 q 295 626 271 644 q 352 593 319 608 q 424 564 385 578 q 545 513 492 539 q 635 452 599 488 q 692 369 672 417 q 711 253 711 321 q 619 51 711 122 q 349 -21 526 -21 q 240 -13 289 -21 q 152 6 190 -6 q 86 28 114 17 q 42 50 58 40 l 93 193 q 194 151 131 172 q 349 131 258 131 m 594 1106 l 529 1032 l 392 1144 l 256 1032 l 189 1106 l 392 1300 l 594 1106 z "},"ŝ":{"ha":635,"x_min":51,"x_max":585,"o":"m 289 121 q 386 137 356 121 q 417 192 417 153 q 384 251 417 228 q 276 303 351 275 q 192 338 231 319 q 126 382 154 357 q 83 442 99 407 q 67 529 67 478 q 140 687 67 629 q 340 744 214 744 q 463 733 404 744 q 550 710 521 721 l 519 574 q 449 597 492 586 q 349 607 406 607 q 265 590 297 607 q 233 536 233 572 q 240 504 233 518 q 261 478 246 490 q 301 455 276 467 q 363 431 326 443 q 464 387 422 408 q 533 338 506 365 q 572 276 560 311 q 585 193 585 242 q 508 35 585 89 q 288 -18 431 -18 q 133 -2 192 -18 q 51 24 75 14 l 81 164 q 170 135 118 149 q 289 121 222 121 m 535 882 l 469 808 l 332 921 l 196 808 l 129 882 l 332 1076 l 535 882 z "},"Ş":{"ha":750,"x_min":42,"x_max":711,"o":"m 349 131 q 486 163 443 131 q 529 253 529 194 q 515 313 529 288 q 473 358 500 338 q 407 395 446 378 q 318 429 368 413 q 222 469 268 447 q 140 522 175 490 q 83 599 104 554 q 61 706 61 643 q 151 910 61 836 q 397 985 242 985 q 558 965 488 985 q 668 921 628 944 l 614 779 q 510 819 567 806 q 394 833 454 833 q 284 804 324 833 q 244 722 244 775 q 258 667 244 690 q 295 626 271 644 q 352 593 319 608 q 424 564 385 578 q 545 513 492 539 q 635 452 599 488 q 692 369 672 417 q 711 253 711 321 q 639 67 711 136 q 428 -17 567 -1 q 417 -37 422 -28 q 410 -54 413 -46 q 472 -101 454 -75 q 489 -167 489 -128 q 447 -250 489 -215 q 322 -285 406 -285 q 204 -267 256 -285 l 224 -167 q 260 -176 238 -171 q 306 -182 282 -182 q 342 -174 329 -182 q 356 -149 356 -165 q 336 -116 356 -126 q 297 -99 317 -106 l 283 -94 q 297 -59 289 -79 q 314 -19 306 -39 q 141 8 208 -15 q 42 50 74 32 l 93 193 q 194 151 131 172 q 349 131 258 131 z "},"ş":{"ha":635,"x_min":51,"x_max":585,"o":"m 349 -54 q 410 -101 393 -75 q 428 -167 428 -128 q 386 -250 428 -215 q 261 -285 344 -285 q 143 -267 194 -285 l 163 -167 q 199 -176 176 -171 q 244 -182 221 -182 q 281 -174 268 -182 q 294 -149 294 -165 q 275 -116 294 -126 q 236 -99 256 -106 l 222 -94 q 236 -58 228 -79 q 254 -17 244 -36 q 123 1 174 -14 q 51 24 72 15 l 81 164 q 170 135 118 149 q 289 121 222 121 q 386 137 356 121 q 417 192 417 153 q 384 251 417 228 q 276 303 351 275 q 192 338 231 319 q 126 382 154 357 q 83 442 99 407 q 67 529 67 478 q 140 687 67 629 q 340 744 214 744 q 463 733 404 744 q 550 710 521 721 l 519 574 q 449 597 492 586 q 349 607 406 607 q 265 590 297 607 q 233 536 233 572 q 240 504 233 518 q 261 478 246 490 q 301 455 276 467 q 363 431 326 443 q 464 387 422 408 q 533 338 506 365 q 572 276 560 311 q 585 193 585 242 q 528 53 585 104 q 368 -12 472 1 q 349 -54 356 -35 z "},"Ţ":{"ha":804,"x_min":18,"x_max":786,"o":"m 428 -54 q 490 -101 472 -75 q 507 -167 507 -128 q 465 -250 507 -215 q 340 -285 424 -285 q 222 -267 274 -285 l 242 -167 q 278 -176 256 -171 q 324 -182 300 -182 q 360 -174 347 -182 q 374 -149 374 -165 q 354 -116 374 -126 q 315 -99 335 -106 l 301 -94 q 320 -48 308 -75 q 343 0 332 -21 l 314 0 l 314 811 l 18 811 l 18 963 l 786 963 l 786 811 l 490 811 l 490 0 l 453 0 q 439 -28 446 -14 q 428 -54 432 -43 z "},"ţ":{"ha":581,"x_min":99,"x_max":554,"o":"m 394 -54 q 456 -101 439 -75 q 474 -167 474 -128 q 432 -250 474 -215 q 307 -285 390 -285 q 189 -267 240 -285 l 208 -167 q 244 -176 222 -171 q 290 -182 267 -182 q 327 -174 314 -182 q 340 -149 340 -165 q 321 -116 340 -126 q 282 -99 301 -106 l 268 -94 q 283 -55 274 -78 q 303 -12 293 -32 q 205 19 244 -4 q 142 82 165 43 q 108 173 118 121 q 99 289 99 225 l 99 918 l 267 946 l 267 726 l 525 726 l 525 586 l 267 586 l 267 290 q 294 165 267 203 q 389 128 322 128 q 470 138 435 128 q 526 156 506 147 l 554 22 q 495 1 531 11 q 413 -14 460 -10 q 402 -35 407 -25 q 394 -54 397 -46 z "},"Ť":{"ha":804,"x_min":18,"x_max":786,"o":"m 786 963 l 786 811 l 490 811 l 490 0 l 314 0 l 314 811 l 18 811 l 18 963 l 786 963 m 401 1033 l 199 1228 l 265 1301 l 401 1189 l 539 1301 l 604 1228 l 401 1033 z "},"ť":{"ha":581,"x_min":99,"x_max":554,"o":"m 99 918 l 267 946 l 267 726 l 525 726 l 525 586 l 267 586 l 267 290 q 294 165 267 203 q 389 128 322 128 q 470 138 435 128 q 526 156 506 147 l 554 22 q 478 -3 525 10 q 367 -17 431 -17 q 237 4 289 -17 q 154 65 185 25 q 111 160 124 104 q 99 289 99 217 l 99 918 m 511 1078 l 474 811 l 357 811 l 357 1078 l 511 1078 z "},"Ŧ":{"ha":804,"x_min":18,"x_max":786,"o":"m 786 963 l 786 811 l 490 811 l 490 535 l 678 535 l 678 406 l 490 406 l 490 0 l 314 0 l 314 406 l 126 406 l 126 535 l 314 535 l 314 811 l 18 811 l 18 963 l 786 963 z "},"ŧ":{"ha":581,"x_min":99,"x_max":554,"o":"m 99 918 l 267 946 l 267 726 l 525 726 l 525 586 l 267 586 l 267 435 l 525 435 l 525 322 l 267 322 l 267 290 q 294 165 267 203 q 389 128 322 128 q 470 138 435 128 q 526 156 506 147 l 554 22 q 478 -3 525 10 q 367 -17 431 -17 q 237 4 289 -17 q 154 65 185 25 q 111 160 124 104 q 99 289 99 217 l 99 918 z "},"Ũ":{"ha":976,"x_min":108,"x_max":868,"o":"m 486 -21 q 317 8 388 -21 q 199 88 246 36 q 131 208 153 139 q 108 361 108 278 l 108 963 l 285 963 l 285 378 q 299 266 285 313 q 341 190 314 219 q 405 147 368 161 q 488 133 442 133 q 571 147 533 133 q 635 190 608 161 q 677 266 663 219 q 692 378 692 313 l 692 963 l 868 963 l 868 361 q 845 208 868 278 q 776 88 822 139 q 657 8 729 36 q 486 -21 585 -21 m 733 1207 q 712 1165 725 1188 q 679 1122 699 1142 q 635 1088 660 1101 q 579 1074 610 1074 q 532 1081 554 1074 q 488 1099 510 1089 q 447 1116 467 1108 q 407 1124 426 1124 q 362 1106 381 1124 q 332 1064 343 1088 l 247 1114 q 267 1156 254 1133 q 301 1199 281 1179 q 346 1233 321 1219 q 401 1247 371 1247 q 449 1239 426 1247 q 492 1222 471 1231 q 534 1204 514 1213 q 574 1196 554 1196 q 619 1215 600 1196 q 649 1257 638 1233 l 733 1207 z "},"ũ":{"ha":810,"x_min":99,"x_max":703,"o":"m 703 22 q 576 -3 654 10 q 406 -17 499 -17 q 259 8 318 -17 q 165 78 200 33 q 114 184 129 122 q 99 319 99 246 l 99 726 l 267 726 l 267 346 q 301 179 267 229 q 419 129 335 129 q 484 132 450 129 q 535 139 518 135 l 535 726 l 703 726 l 703 22 m 646 986 q 624 944 638 967 q 592 901 611 921 q 547 867 572 881 q 492 853 522 853 q 444 860 467 853 q 401 878 422 868 q 359 895 379 888 q 319 903 339 903 q 274 885 293 903 q 244 843 256 867 l 160 893 q 180 935 167 913 q 213 978 193 958 q 258 1013 233 999 q 314 1026 283 1026 q 361 1018 339 1026 q 405 1001 383 1010 q 447 983 426 992 q 486 975 467 975 q 531 994 513 975 q 561 1036 550 1013 l 646 986 z "},"Ū":{"ha":976,"x_min":108,"x_max":868,"o":"m 486 -21 q 317 8 388 -21 q 199 88 246 36 q 131 208 153 139 q 108 361 108 278 l 108 963 l 285 963 l 285 378 q 299 266 285 313 q 341 190 314 219 q 405 147 368 161 q 488 133 442 133 q 571 147 533 133 q 635 190 608 161 q 677 266 663 219 q 692 378 692 313 l 692 963 l 868 963 l 868 361 q 845 208 868 278 q 776 88 822 139 q 657 8 729 36 q 486 -21 585 -21 m 697 1211 l 697 1090 l 276 1090 l 276 1211 l 697 1211 z "},"ū":{"ha":810,"x_min":99,"x_max":703,"o":"m 703 22 q 576 -3 654 10 q 406 -17 499 -17 q 259 8 318 -17 q 165 78 200 33 q 114 184 129 122 q 99 319 99 246 l 99 726 l 267 726 l 267 346 q 301 179 267 229 q 419 129 335 129 q 484 132 450 129 q 535 139 518 135 l 535 726 l 703 726 l 703 22 m 613 997 l 613 876 l 192 876 l 192 997 l 613 997 z "},"Ŭ":{"ha":976,"x_min":108,"x_max":868,"o":"m 486 -21 q 317 8 388 -21 q 199 88 246 36 q 131 208 153 139 q 108 361 108 278 l 108 963 l 285 963 l 285 378 q 299 266 285 313 q 341 190 314 219 q 405 147 368 161 q 488 133 442 133 q 571 147 533 133 q 635 190 608 161 q 677 266 663 219 q 692 378 692 313 l 692 963 l 868 963 l 868 361 q 845 208 868 278 q 776 88 822 139 q 657 8 729 36 q 486 -21 585 -21 m 488 1053 q 406 1067 443 1053 q 340 1106 368 1081 q 297 1169 313 1132 q 282 1256 282 1207 l 282 1264 l 394 1264 q 419 1192 397 1219 q 488 1165 440 1165 q 555 1192 533 1165 q 581 1264 576 1219 l 692 1264 l 692 1254 q 634 1106 692 1158 q 488 1053 576 1053 z "},"ŭ":{"ha":810,"x_min":99,"x_max":703,"o":"m 703 22 q 576 -3 654 10 q 406 -17 499 -17 q 259 8 318 -17 q 165 78 200 33 q 114 184 129 122 q 99 319 99 246 l 99 726 l 267 726 l 267 346 q 301 179 267 229 q 419 129 335 129 q 484 132 450 129 q 535 139 518 135 l 535 726 l 703 726 l 703 22 m 403 839 q 321 853 358 839 q 256 892 283 867 q 213 956 228 918 q 197 1042 197 993 l 197 1050 l 310 1050 q 334 978 313 1006 q 403 951 356 951 q 470 978 449 951 q 496 1050 492 1006 l 607 1050 l 607 1040 q 549 892 607 944 q 403 839 492 839 z "},"Ů":{"ha":976,"x_min":108,"x_max":868,"o":"m 486 -21 q 317 8 388 -21 q 199 88 246 36 q 131 208 153 139 q 108 361 108 278 l 108 963 l 285 963 l 285 378 q 299 266 285 313 q 341 190 314 219 q 405 147 368 161 q 488 133 442 133 q 571 147 533 133 q 635 190 608 161 q 677 266 663 219 q 692 378 692 313 l 692 963 l 868 963 l 868 361 q 845 208 868 278 q 776 88 822 139 q 657 8 729 36 q 486 -21 585 -21 m 640 1168 q 628 1104 640 1132 q 594 1057 615 1076 q 544 1027 572 1038 q 486 1017 517 1017 q 428 1027 456 1017 q 379 1057 400 1038 q 346 1104 358 1076 q 333 1168 333 1132 q 346 1231 333 1203 q 379 1278 358 1260 q 428 1308 400 1297 q 486 1318 456 1318 q 544 1308 517 1318 q 594 1278 572 1297 q 628 1231 615 1260 q 640 1168 640 1203 m 556 1168 q 535 1220 556 1201 q 486 1239 514 1239 q 439 1220 460 1239 q 418 1168 418 1201 q 439 1115 418 1133 q 486 1097 460 1097 q 535 1115 514 1097 q 556 1168 556 1133 z "},"ů":{"ha":810,"x_min":99,"x_max":703,"o":"m 703 22 q 576 -3 654 10 q 406 -17 499 -17 q 259 8 318 -17 q 165 78 200 33 q 114 184 129 122 q 99 319 99 246 l 99 726 l 267 726 l 267 346 q 301 179 267 229 q 419 129 335 129 q 484 132 450 129 q 535 139 518 135 l 535 726 l 703 726 l 703 22 m 556 956 q 543 892 556 919 q 509 844 531 864 q 460 815 488 825 q 401 804 432 804 q 343 815 371 804 q 294 844 315 825 q 261 892 274 864 q 249 956 249 919 q 261 1019 249 990 q 294 1066 274 1047 q 343 1095 315 1085 q 401 1106 371 1106 q 460 1095 432 1106 q 509 1066 488 1085 q 543 1019 531 1047 q 556 956 556 990 m 471 956 q 450 1008 471 989 q 401 1026 429 1026 q 354 1008 375 1026 q 333 956 333 989 q 354 903 333 921 q 401 885 375 885 q 450 903 429 885 q 471 956 471 921 z "},"Ű":{"ha":976,"x_min":108,"x_max":868,"o":"m 486 -21 q 317 8 388 -21 q 199 88 246 36 q 131 208 153 139 q 108 361 108 278 l 108 963 l 285 963 l 285 378 q 299 266 285 313 q 341 190 314 219 q 405 147 368 161 q 488 133 442 133 q 571 147 533 133 q 635 190 608 161 q 677 266 663 219 q 692 378 692 313 l 692 963 l 868 963 l 868 361 q 845 208 868 278 q 776 88 822 139 q 657 8 729 36 q 486 -21 585 -21 m 549 1226 l 367 1024 l 286 1085 l 450 1314 l 549 1226 m 804 1226 l 621 1024 l 542 1085 l 704 1314 l 804 1226 z "},"ű":{"ha":810,"x_min":99,"x_max":713,"o":"m 703 22 q 576 -3 654 10 q 406 -17 499 -17 q 259 8 318 -17 q 165 78 200 33 q 114 184 129 122 q 99 319 99 246 l 99 726 l 267 726 l 267 346 q 301 179 267 229 q 419 129 335 129 q 484 132 450 129 q 535 139 518 135 l 535 726 l 703 726 l 703 22 m 457 1006 l 275 803 l 194 864 l 358 1093 l 457 1006 m 713 1006 l 529 803 l 450 864 l 613 1093 l 713 1006 z "},"Ų":{"ha":976,"x_min":108,"x_max":868,"o":"m 564 -283 q 439 -252 478 -283 q 400 -168 400 -221 q 426 -90 400 -128 q 482 -21 453 -53 q 314 10 385 -19 q 197 90 243 39 q 130 210 151 140 q 108 361 108 279 l 108 963 l 285 963 l 285 378 q 299 266 285 313 q 341 190 314 219 q 405 147 368 161 q 488 133 442 133 q 571 147 533 133 q 635 190 608 161 q 677 266 663 219 q 692 378 692 313 l 692 963 l 868 963 l 868 361 q 828 164 868 249 q 701 28 789 79 q 642 -12 667 6 q 592 -56 618 -29 q 563 -92 572 -75 q 553 -126 553 -108 q 601 -164 553 -164 q 629 -162 613 -164 q 665 -153 646 -160 l 678 -265 q 625 -278 657 -274 q 564 -283 593 -283 z "},"ų":{"ha":810,"x_min":99,"x_max":704,"o":"m 590 -282 q 465 -250 504 -282 q 426 -165 426 -218 q 442 -106 426 -135 q 481 -51 458 -78 q 501 -30 490 -40 q 524 -10 513 -19 q 466 -15 496 -12 q 406 -17 436 -17 q 259 8 318 -17 q 165 78 200 33 q 114 184 129 122 q 99 319 99 246 l 99 726 l 267 726 l 267 346 q 301 179 267 229 q 419 129 335 129 q 484 132 450 129 q 535 139 518 135 l 535 726 l 703 726 l 703 21 q 665 -11 688 8 q 621 -54 643 -31 q 590 -90 601 -74 q 579 -124 579 -107 q 628 -161 579 -161 q 656 -160 639 -161 q 692 -151 672 -158 l 704 -262 q 651 -277 683 -272 q 590 -282 619 -282 z "},"Ŵ":{"ha":1303,"x_min":35,"x_max":1271,"o":"m 732 854 q 779 698 754 779 q 831 535 804 617 q 885 376 858 454 q 938 228 913 297 q 978 391 958 303 q 1017 574 997 479 q 1055 768 1036 669 q 1090 963 1074 867 l 1271 963 q 1163 460 1222 701 q 1029 0 1103 219 l 863 0 q 653 613 754 281 q 549 293 601 444 q 443 0 496 142 l 276 0 q 142 460 201 219 q 35 963 83 701 l 222 963 q 258 769 239 868 q 297 576 276 671 q 338 392 317 481 q 379 228 358 303 q 433 377 406 299 q 486 537 460 456 q 537 699 513 618 q 582 854 561 779 l 732 854 m 856 1099 l 790 1025 l 653 1138 l 517 1025 l 450 1099 l 653 1293 l 856 1099 z "},"ŵ":{"ha":1083,"x_min":21,"x_max":1063,"o":"m 540 457 q 472 219 508 335 q 399 0 435 103 l 261 0 q 203 146 233 64 q 142 321 172 228 q 81 517 111 414 q 21 726 50 619 l 199 726 q 228 601 211 668 q 263 463 244 533 q 300 326 281 393 q 339 204 319 260 q 380 336 360 268 q 418 472 400 404 q 452 605 436 540 q 481 726 468 669 l 610 726 q 638 605 622 669 q 670 472 653 540 q 708 336 688 404 q 749 204 728 268 q 786 326 767 260 q 824 463 806 393 q 860 601 843 533 q 889 726 876 668 l 1063 726 q 1003 517 1033 619 q 942 321 972 414 q 881 146 911 228 q 821 0 850 64 l 685 0 q 610 219 649 103 q 540 457 572 335 m 743 882 l 678 808 l 540 921 l 404 808 l 338 882 l 540 1076 l 743 882 z "},"Ŷ":{"ha":868,"x_min":4,"x_max":864,"o":"m 439 536 q 561 747 501 640 q 669 963 621 854 l 864 963 q 702 670 786 815 q 522 378 618 525 l 522 0 l 347 0 l 347 375 q 167 669 251 524 q 4 963 82 815 l 210 963 q 317 747 258 854 q 439 536 375 640 m 638 1106 l 572 1032 l 435 1144 l 299 1032 l 232 1106 l 435 1300 l 638 1106 z "},"ŷ":{"ha":721,"x_min":-1,"x_max":700,"o":"m 700 726 q 439 -24 588 313 q 382 -131 411 -86 q 317 -204 353 -175 q 236 -247 281 -233 q 133 -260 192 -260 q 56 -251 94 -260 q -1 -233 18 -243 l 29 -99 q 128 -118 79 -118 q 230 -87 193 -118 q 294 10 267 -56 q 142 343 215 163 q 13 726 69 524 l 192 726 q 226 600 206 668 q 269 462 246 532 q 319 322 293 392 q 372 193 346 253 q 456 456 417 317 q 526 726 494 596 l 700 726 m 568 882 l 503 808 l 365 921 l 229 808 l 163 882 l 365 1076 l 568 882 z "},"Ź":{"ha":817,"x_min":42,"x_max":769,"o":"m 754 833 q 643 703 708 783 q 508 530 578 624 q 372 337 439 436 q 253 149 304 238 l 769 149 l 769 0 l 42 0 l 42 110 q 106 222 69 161 q 185 346 143 282 q 272 475 226 410 q 361 601 317 540 q 448 716 406 661 q 528 814 490 771 l 65 814 l 65 963 l 754 963 l 754 833 m 600 1249 l 374 1029 l 290 1104 l 494 1347 l 600 1249 z "},"ź":{"ha":672,"x_min":46,"x_max":624,"o":"m 615 608 q 542 526 588 579 q 446 409 497 474 q 342 274 394 344 q 249 140 290 204 l 624 140 l 624 0 l 46 0 l 46 104 q 122 225 76 160 q 217 356 168 290 q 313 482 265 422 q 399 586 361 542 l 64 586 l 64 726 l 615 726 l 615 608 m 522 1024 l 296 804 l 213 879 l 417 1122 l 522 1024 z "},"Ż":{"ha":817,"x_min":42,"x_max":769,"o":"m 754 833 q 643 703 708 783 q 508 530 578 624 q 372 337 439 436 q 253 149 304 238 l 769 149 l 769 0 l 42 0 l 42 110 q 106 222 69 161 q 185 346 143 282 q 272 475 226 410 q 361 601 317 540 q 448 716 406 661 q 528 814 490 771 l 65 814 l 65 963 l 754 963 l 754 833 m 511 1158 q 481 1083 511 1111 q 408 1056 450 1056 q 335 1083 365 1056 q 304 1158 304 1111 q 335 1235 304 1207 q 408 1263 365 1263 q 481 1235 450 1263 q 511 1158 511 1207 z "},"ż":{"ha":672,"x_min":46,"x_max":624,"o":"m 615 608 q 542 526 588 579 q 446 409 497 474 q 342 274 394 344 q 249 140 290 204 l 624 140 l 624 0 l 46 0 l 46 104 q 122 225 76 160 q 217 356 168 290 q 313 482 265 422 q 399 586 361 542 l 64 586 l 64 726 l 615 726 l 615 608 m 433 939 q 403 864 433 892 q 331 836 372 836 q 257 864 288 836 q 226 939 226 892 q 257 1015 226 988 q 331 1043 288 1043 q 403 1015 372 1043 q 433 939 433 988 z "},"Ž":{"ha":817,"x_min":42,"x_max":769,"o":"m 754 833 q 643 703 708 783 q 508 530 578 624 q 372 337 439 436 q 253 149 304 238 l 769 149 l 769 0 l 42 0 l 42 110 q 106 222 69 161 q 185 346 143 282 q 272 475 226 410 q 361 601 317 540 q 448 716 406 661 q 528 814 490 771 l 65 814 l 65 963 l 754 963 l 754 833 m 413 1033 l 210 1228 l 276 1301 l 413 1189 l 550 1301 l 615 1228 l 413 1033 z "},"ž":{"ha":672,"x_min":46,"x_max":624,"o":"m 615 608 q 542 526 588 579 q 446 409 497 474 q 342 274 394 344 q 249 140 290 204 l 624 140 l 624 0 l 46 0 l 46 104 q 122 225 76 160 q 217 356 168 290 q 313 482 265 422 q 399 586 361 542 l 64 586 l 64 726 l 615 726 l 615 608 m 340 814 l 138 1008 l 204 1082 l 340 969 l 478 1082 l 543 1008 l 340 814 z "},"ſ":{"ha":406,"x_min":107,"x_max":572,"o":"m 403 1078 q 506 1067 461 1078 q 572 1049 550 1057 l 540 910 q 485 928 517 921 q 418 935 454 935 q 350 923 378 935 q 306 890 322 911 q 282 840 289 869 q 275 775 275 810 l 275 0 l 107 0 l 107 778 q 181 998 107 918 q 403 1078 254 1078 z "},"Ș":{"ha":750,"x_min":42,"x_max":711,"o":"m 349 131 q 486 163 443 131 q 529 253 529 194 q 515 313 529 288 q 473 358 500 338 q 407 395 446 378 q 318 429 368 413 q 222 469 268 447 q 140 522 175 490 q 83 599 104 554 q 61 706 61 643 q 151 910 61 836 q 397 985 242 985 q 558 965 488 985 q 668 921 628 944 l 614 779 q 510 819 567 806 q 394 833 454 833 q 284 804 324 833 q 244 722 244 775 q 258 667 244 690 q 295 626 271 644 q 352 593 319 608 q 424 564 385 578 q 545 513 492 539 q 635 452 599 488 q 692 369 672 417 q 711 253 711 321 q 619 51 711 122 q 349 -21 526 -21 q 240 -13 289 -21 q 152 6 190 -6 q 86 28 114 17 q 42 50 58 40 l 93 193 q 194 151 131 172 q 349 131 258 131 m 453 -71 q 455 -94 454 -82 q 456 -111 456 -107 q 440 -192 456 -160 q 400 -245 425 -225 q 342 -274 375 -265 q 275 -283 310 -283 q 238 -281 256 -283 q 214 -276 221 -279 l 214 -179 q 252 -176 235 -179 q 282 -165 269 -174 q 301 -138 294 -156 q 308 -90 308 -121 l 308 -71 l 453 -71 z "},"ș":{"ha":635,"x_min":51,"x_max":585,"o":"m 289 121 q 386 137 356 121 q 417 192 417 153 q 384 251 417 228 q 276 303 351 275 q 192 338 231 319 q 126 382 154 357 q 83 442 99 407 q 67 529 67 478 q 140 687 67 629 q 340 744 214 744 q 463 733 404 744 q 550 710 521 721 l 519 574 q 449 597 492 586 q 349 607 406 607 q 265 590 297 607 q 233 536 233 572 q 240 504 233 518 q 261 478 246 490 q 301 455 276 467 q 363 431 326 443 q 464 387 422 408 q 533 338 506 365 q 572 276 560 311 q 585 193 585 242 q 508 35 585 89 q 288 -18 431 -18 q 133 -2 192 -18 q 51 24 75 14 l 81 164 q 170 135 118 149 q 289 121 222 121 m 388 -71 q 390 -94 389 -82 q 390 -111 390 -107 q 375 -192 390 -160 q 335 -245 360 -225 q 277 -274 310 -265 q 210 -283 244 -283 q 173 -281 190 -283 q 149 -276 156 -279 l 149 -179 q 187 -176 169 -179 q 217 -165 204 -174 q 236 -138 229 -156 q 243 -90 243 -121 l 243 -71 l 388 -71 z "},"Ț":{"ha":804,"x_min":18,"x_max":786,"o":"m 786 963 l 786 811 l 490 811 l 490 0 l 314 0 l 314 811 l 18 811 l 18 963 l 786 963 m 475 -71 q 477 -94 476 -82 q 478 -111 478 -107 q 463 -192 478 -160 q 422 -245 447 -225 q 365 -274 397 -265 q 297 -283 332 -283 q 260 -281 278 -283 q 236 -276 243 -279 l 236 -179 q 274 -176 257 -179 q 304 -165 292 -174 q 324 -138 317 -156 q 331 -90 331 -121 l 331 -71 l 475 -71 z "},"ț":{"ha":581,"x_min":99,"x_max":554,"o":"m 99 918 l 267 946 l 267 726 l 525 726 l 525 586 l 267 586 l 267 290 q 294 165 267 203 q 389 128 322 128 q 470 138 435 128 q 526 156 506 147 l 554 22 q 478 -3 525 10 q 367 -17 431 -17 q 237 4 289 -17 q 154 65 185 25 q 111 160 124 104 q 99 289 99 217 l 99 918 m 414 -71 q 416 -94 415 -82 q 417 -111 417 -107 q 401 -192 417 -160 q 361 -245 386 -225 q 303 -274 336 -265 q 236 -283 271 -283 q 199 -281 217 -283 q 175 -276 182 -279 l 175 -179 q 213 -176 196 -179 q 243 -165 231 -174 q 263 -138 256 -156 q 269 -90 269 -121 l 269 -71 l 414 -71 z "},"ȷ":{"ha":382,"x_min":-94,"x_max":275,"o":"m 14 -258 q -37 -255 -4 -258 q -94 -242 -69 -251 l -72 -104 q 1 -114 -42 -114 q 83 -80 60 -114 q 107 22 107 -46 l 107 726 l 275 726 l 275 19 q 208 -190 275 -122 q 14 -258 140 -258 z "},"ʼ":{"ha":538,"x_min":157,"x_max":361,"o":"m 361 1078 q 355 984 361 1026 q 338 905 349 942 q 310 835 326 868 q 271 768 293 801 l 157 803 q 197 912 185 861 q 208 1019 208 963 q 208 1051 208 1035 q 204 1078 207 1068 l 361 1078 z "},"ˇ":{"ha":542,"x_min":68,"x_max":474,"o":"m 271 814 l 68 1008 l 135 1082 l 271 969 l 408 1082 l 474 1008 l 271 814 z "},"ˉ":{"ha":540,"x_min":60,"x_max":481,"o":"m 481 997 l 481 876 l 60 876 l 60 997 l 481 997 z "},"˘":{"ha":554,"x_min":76,"x_max":486,"o":"m 282 839 q 200 853 238 839 q 135 892 163 867 q 92 956 107 918 q 76 1042 76 993 l 76 1050 l 189 1050 q 213 978 192 1006 q 282 951 235 951 q 349 978 328 951 q 375 1050 371 1006 l 486 1050 l 486 1040 q 428 892 486 944 q 282 839 371 839 z "},"˙":{"ha":554,"x_min":174,"x_max":381,"o":"m 381 939 q 350 864 381 892 q 278 836 319 836 q 204 864 235 836 q 174 939 174 892 q 204 1015 174 988 q 278 1043 235 1043 q 350 1015 319 1043 q 381 939 381 988 z "},"˚":{"ha":535,"x_min":114,"x_max":421,"o":"m 421 956 q 408 892 421 919 q 374 844 396 864 q 325 815 353 825 q 267 804 297 804 q 208 815 236 804 q 160 844 181 825 q 126 892 139 864 q 114 956 114 919 q 126 1019 114 990 q 160 1066 139 1047 q 208 1095 181 1085 q 267 1106 236 1106 q 325 1095 297 1106 q 374 1066 353 1085 q 408 1019 396 1047 q 421 956 421 990 m 336 956 q 315 1008 336 989 q 267 1026 294 1026 q 219 1008 240 1026 q 199 956 199 989 q 219 903 199 921 q 267 885 240 885 q 315 903 294 885 q 336 956 336 921 z "},"˛":{"ha":547,"x_min":94,"x_max":372,"o":"m 257 -283 q 133 -252 171 -283 q 94 -168 94 -221 q 110 -109 94 -136 q 147 -54 126 -82 q 186 -13 167 -31 q 224 15 206 4 l 369 15 q 332 -14 354 4 q 288 -56 310 -32 q 257 -92 268 -75 q 246 -126 246 -108 q 294 -164 246 -164 q 322 -162 306 -164 q 358 -153 339 -160 l 372 -265 q 319 -278 350 -274 q 257 -283 288 -283 z "},"˝":{"ha":565,"x_min":46,"x_max":564,"o":"m 308 1006 l 126 803 l 46 864 l 210 1093 l 308 1006 m 564 1006 l 381 803 l 301 864 l 464 1093 l 564 1006 z "},"Ẁ":{"ha":1303,"x_min":35,"x_max":1271,"o":"m 732 854 q 779 698 754 779 q 831 535 804 617 q 885 376 858 454 q 938 228 913 297 q 978 391 958 303 q 1017 574 997 479 q 1055 768 1036 669 q 1090 963 1074 867 l 1271 963 q 1163 460 1222 701 q 1029 0 1103 219 l 863 0 q 653 613 754 281 q 549 293 601 444 q 443 0 496 142 l 276 0 q 142 460 201 219 q 35 963 83 701 l 222 963 q 258 769 239 868 q 297 576 276 671 q 338 392 317 481 q 379 228 358 303 q 433 377 406 299 q 486 537 460 456 q 537 699 513 618 q 582 854 561 779 l 732 854 m 565 1340 l 767 1097 l 683 1022 l 458 1243 l 565 1340 z "},"ẁ":{"ha":1083,"x_min":21,"x_max":1063,"o":"m 540 457 q 472 219 508 335 q 399 0 435 103 l 261 0 q 203 146 233 64 q 142 321 172 228 q 81 517 111 414 q 21 726 50 619 l 199 726 q 228 601 211 668 q 263 463 244 533 q 300 326 281 393 q 339 204 319 260 q 380 336 360 268 q 418 472 400 404 q 452 605 436 540 q 481 726 468 669 l 610 726 q 638 605 622 669 q 670 472 653 540 q 708 336 688 404 q 749 204 728 268 q 786 326 767 260 q 824 463 806 393 q 860 601 843 533 q 889 726 876 668 l 1063 726 q 1003 517 1033 619 q 942 321 972 414 q 881 146 911 228 q 821 0 850 64 l 685 0 q 610 219 649 103 q 540 457 572 335 m 447 1122 l 649 879 l 565 804 l 340 1025 l 447 1122 z "},"Ẃ":{"ha":1303,"x_min":35,"x_max":1271,"o":"m 732 854 q 779 698 754 779 q 831 535 804 617 q 885 376 858 454 q 938 228 913 297 q 978 391 958 303 q 1017 574 997 479 q 1055 768 1036 669 q 1090 963 1074 867 l 1271 963 q 1163 460 1222 701 q 1029 0 1103 219 l 863 0 q 653 613 754 281 q 549 293 601 444 q 443 0 496 142 l 276 0 q 142 460 201 219 q 35 963 83 701 l 222 963 q 258 769 239 868 q 297 576 276 671 q 338 392 317 481 q 379 228 358 303 q 433 377 406 299 q 486 537 460 456 q 537 699 513 618 q 582 854 561 779 l 732 854 m 843 1242 l 617 1022 l 533 1097 l 738 1340 l 843 1242 z "},"ẃ":{"ha":1083,"x_min":21,"x_max":1063,"o":"m 540 457 q 472 219 508 335 q 399 0 435 103 l 261 0 q 203 146 233 64 q 142 321 172 228 q 81 517 111 414 q 21 726 50 619 l 199 726 q 228 601 211 668 q 263 463 244 533 q 300 326 281 393 q 339 204 319 260 q 380 336 360 268 q 418 472 400 404 q 452 605 436 540 q 481 726 468 669 l 610 726 q 638 605 622 669 q 670 472 653 540 q 708 336 688 404 q 749 204 728 268 q 786 326 767 260 q 824 463 806 393 q 860 601 843 533 q 889 726 876 668 l 1063 726 q 1003 517 1033 619 q 942 321 972 414 q 881 146 911 228 q 821 0 850 64 l 685 0 q 610 219 649 103 q 540 457 572 335 m 746 1024 l 519 804 l 436 879 l 640 1122 l 746 1024 z "},"Ẅ":{"ha":1303,"x_min":35,"x_max":1271,"o":"m 732 854 q 779 698 754 779 q 831 535 804 617 q 885 376 858 454 q 938 228 913 297 q 978 391 958 303 q 1017 574 997 479 q 1055 768 1036 669 q 1090 963 1074 867 l 1271 963 q 1163 460 1222 701 q 1029 0 1103 219 l 863 0 q 653 613 754 281 q 549 293 601 444 q 443 0 496 142 l 276 0 q 142 460 201 219 q 35 963 83 701 l 222 963 q 258 769 239 868 q 297 576 276 671 q 338 392 317 481 q 379 228 358 303 q 433 377 406 299 q 486 537 460 456 q 537 699 513 618 q 582 854 561 779 l 732 854 m 508 1058 q 443 1083 471 1058 q 415 1151 415 1108 q 443 1220 415 1194 q 508 1246 471 1246 q 574 1220 546 1246 q 603 1151 603 1194 q 574 1083 603 1108 q 508 1058 546 1058 m 796 1058 q 730 1083 758 1058 q 701 1151 701 1108 q 730 1220 701 1194 q 796 1246 758 1246 q 861 1220 833 1246 q 889 1151 889 1194 q 861 1083 889 1108 q 796 1058 833 1058 z "},"ẅ":{"ha":1083,"x_min":21,"x_max":1063,"o":"m 540 457 q 472 219 508 335 q 399 0 435 103 l 261 0 q 203 146 233 64 q 142 321 172 228 q 81 517 111 414 q 21 726 50 619 l 199 726 q 228 601 211 668 q 263 463 244 533 q 300 326 281 393 q 339 204 319 260 q 380 336 360 268 q 418 472 400 404 q 452 605 436 540 q 481 726 468 669 l 610 726 q 638 605 622 669 q 670 472 653 540 q 708 336 688 404 q 749 204 728 268 q 786 326 767 260 q 824 463 806 393 q 860 601 843 533 q 889 726 876 668 l 1063 726 q 1003 517 1033 619 q 942 321 972 414 q 881 146 911 228 q 821 0 850 64 l 685 0 q 610 219 649 103 q 540 457 572 335 m 393 846 q 328 871 356 846 q 300 939 300 896 q 328 1008 300 982 q 393 1033 356 1033 q 459 1008 431 1033 q 488 939 488 982 q 459 871 488 896 q 393 846 431 846 m 681 846 q 615 871 643 846 q 586 939 586 896 q 615 1008 586 982 q 681 1033 643 1033 q 746 1008 718 1033 q 774 939 774 982 q 746 871 774 896 q 681 846 718 846 z "},"Ỳ":{"ha":868,"x_min":4,"x_max":864,"o":"m 439 536 q 561 747 501 640 q 669 963 621 854 l 864 963 q 702 670 786 815 q 522 378 618 525 l 522 0 l 347 0 l 347 375 q 167 669 251 524 q 4 963 82 815 l 210 963 q 317 747 258 854 q 439 536 375 640 m 332 1347 l 533 1104 l 450 1029 l 225 1250 l 332 1347 z "},"ỳ":{"ha":721,"x_min":-1,"x_max":700,"o":"m 700 726 q 439 -24 588 313 q 382 -131 411 -86 q 317 -204 353 -175 q 236 -247 281 -233 q 133 -260 192 -260 q 56 -251 94 -260 q -1 -233 18 -243 l 29 -99 q 128 -118 79 -118 q 230 -87 193 -118 q 294 10 267 -56 q 142 343 215 163 q 13 726 69 524 l 192 726 q 226 600 206 668 q 269 462 246 532 q 319 322 293 392 q 372 193 346 253 q 456 456 417 317 q 526 726 494 596 l 700 726 m 265 1122 l 467 879 l 383 804 l 158 1025 l 265 1122 z "},"⁄":{"ha":211,"x_min":-233,"x_max":442,"o":"m 442 963 l -76 0 l -233 0 l 286 963 l 442 963 z "},"⁰":{"ha":504,"x_min":32,"x_max":471,"o":"m 346 701 q 342 772 346 739 q 326 828 338 804 q 297 865 315 851 q 253 879 279 879 q 178 828 199 879 q 157 701 157 776 q 178 574 157 625 q 253 522 199 522 q 297 536 279 522 q 326 574 315 550 q 342 631 338 597 q 346 701 346 664 m 32 701 q 90 911 32 838 q 251 985 147 985 q 413 911 356 985 q 471 701 471 838 q 413 490 471 564 q 251 417 356 417 q 90 490 147 417 q 32 701 32 564 z "},"⁴":{"ha":504,"x_min":31,"x_max":474,"o":"m 294 842 q 221 751 258 801 q 156 650 183 701 l 294 650 l 294 842 m 407 650 l 474 650 l 474 551 l 407 551 l 407 428 l 294 428 l 294 551 l 31 551 l 31 633 q 84 719 54 675 q 148 808 114 764 q 219 895 182 853 q 293 974 256 938 l 407 974 l 407 650 z "},"⁵":{"ha":504,"x_min":51,"x_max":453,"o":"m 453 596 q 440 524 453 557 q 399 467 426 492 q 327 430 371 443 q 222 417 283 417 q 126 428 175 417 q 51 450 78 439 l 78 554 q 134 534 101 543 q 214 525 167 525 q 299 544 275 525 q 324 593 324 563 q 270 659 324 640 q 89 678 217 678 q 97 754 93 714 q 105 834 101 794 q 111 910 108 874 q 117 974 114 946 l 431 974 l 431 867 l 217 867 q 213 820 214 846 q 207 771 211 794 q 397 721 340 767 q 453 596 453 675 z "},"⁶":{"ha":504,"x_min":49,"x_max":463,"o":"m 253 681 q 207 676 229 681 q 167 664 185 671 q 185 556 164 594 q 264 518 207 518 q 326 545 307 518 q 344 600 344 572 q 323 660 344 640 q 253 681 301 681 m 179 754 q 275 771 222 771 q 362 758 326 771 q 419 722 397 744 q 452 668 442 699 q 463 603 463 638 q 451 535 463 568 q 414 475 439 501 q 351 433 389 449 q 263 417 314 417 q 103 478 157 417 q 49 650 49 539 q 74 787 49 726 q 148 889 100 847 q 264 953 196 931 q 418 975 332 975 l 425 871 q 266 839 329 868 q 179 754 203 810 z "},"⁷":{"ha":504,"x_min":46,"x_max":458,"o":"m 131 428 q 194 669 146 556 q 307 861 243 782 l 46 861 l 46 974 l 458 974 l 458 876 q 397 798 429 846 q 338 690 365 750 q 289 563 310 631 q 261 428 268 496 l 131 428 l 131 428 z "},"⁸":{"ha":504,"x_min":38,"x_max":465,"o":"m 465 578 q 414 462 465 507 q 250 417 363 417 q 145 432 186 417 q 80 470 104 447 q 47 520 56 493 q 38 571 38 547 q 63 648 38 615 q 122 703 88 681 q 69 758 86 729 q 51 828 51 788 q 65 887 51 858 q 103 938 78 915 q 165 972 128 960 q 251 985 203 985 q 345 971 307 985 q 406 935 383 957 q 440 888 429 914 q 450 836 450 861 q 429 765 450 797 q 375 713 408 733 q 445 653 426 685 q 465 578 464 622 m 160 576 q 179 534 160 556 q 251 513 199 513 q 322 532 301 513 q 343 576 343 551 q 309 633 343 613 q 215 667 275 654 q 175 627 190 649 q 160 576 160 606 m 332 832 q 314 870 332 850 q 251 890 296 890 q 190 870 208 890 q 172 831 172 850 q 195 782 172 806 q 274 744 218 758 q 317 783 301 763 q 332 832 332 803 z "},"⁹":{"ha":504,"x_min":42,"x_max":457,"o":"m 253 724 q 339 738 300 724 q 319 847 342 808 q 243 885 297 885 q 180 858 199 885 q 161 804 161 832 q 253 724 161 724 m 235 631 q 146 644 182 631 q 86 681 110 658 q 52 735 63 704 q 42 801 42 767 q 53 867 42 835 q 90 926 65 900 q 153 968 115 951 q 242 985 190 985 q 403 923 349 985 q 457 751 457 861 q 363 513 457 599 q 81 426 269 426 l 76 531 q 326 647 283 536 q 282 635 306 639 q 235 631 258 631 z "},"₀":{"ha":504,"x_min":32,"x_max":471,"o":"m 346 275 q 342 345 346 313 q 326 401 338 378 q 297 439 315 425 q 253 453 279 453 q 178 401 199 453 q 157 275 157 350 q 178 147 157 199 q 253 96 199 96 q 297 110 279 96 q 326 147 315 124 q 342 204 338 171 q 346 275 346 238 m 32 275 q 90 485 32 411 q 251 558 147 558 q 413 485 356 558 q 471 275 471 411 q 413 64 471 138 q 251 -10 356 -10 q 90 64 147 -10 q 32 275 32 138 z "},"₁":{"ha":504,"x_min":65,"x_max":360,"o":"m 65 433 q 174 483 121 454 q 265 547 226 513 l 360 547 l 360 1 l 232 1 l 232 393 q 169 362 204 376 q 100 336 135 347 l 65 433 l 65 433 z "},"₂":{"ha":504,"x_min":39,"x_max":447,"o":"m 429 396 q 419 342 429 367 q 389 292 408 317 q 341 240 369 267 q 275 181 313 214 q 235 143 254 163 q 210 108 217 124 l 447 108 l 447 1 l 63 1 q 63 50 61 28 q 106 165 68 117 q 204 264 144 214 q 272 329 246 300 q 299 388 299 358 q 281 430 299 415 q 232 444 264 444 q 153 426 188 444 q 100 392 119 407 l 39 481 q 120 533 68 508 q 235 558 172 558 q 383 515 338 558 q 429 396 429 471 z "},"₃":{"ha":504,"x_min":44,"x_max":449,"o":"m 214 99 q 299 117 276 99 q 322 165 322 136 q 287 221 322 204 q 197 238 251 238 l 156 238 l 156 335 l 201 335 q 268 349 238 335 q 299 396 299 363 q 222 450 299 450 q 155 438 186 450 q 97 414 124 426 l 53 507 q 131 542 81 526 q 229 558 181 558 q 319 547 282 558 q 378 514 356 535 q 411 465 401 493 q 421 407 421 438 q 353 299 421 343 q 424 244 400 279 q 449 164 449 210 q 436 96 449 128 q 396 40 424 64 q 324 3 368 17 q 215 -10 279 -10 q 122 1 171 -10 q 44 25 74 11 l 71 129 q 144 106 111 114 q 214 99 176 99 z "},"₄":{"ha":504,"x_min":31,"x_max":474,"o":"m 294 415 q 221 325 258 375 q 156 224 183 275 l 294 224 l 294 415 m 407 224 l 474 224 l 474 125 l 407 125 l 407 1 l 294 1 l 294 125 l 31 125 l 31 207 q 84 293 54 249 q 148 382 114 338 q 219 469 182 426 q 293 547 256 511 l 407 547 l 407 224 z "},"₅":{"ha":504,"x_min":51,"x_max":453,"o":"m 453 169 q 440 98 453 131 q 399 41 426 65 q 327 3 371 17 q 222 -10 283 -10 q 126 1 175 -10 q 51 24 78 13 l 78 128 q 134 108 101 117 q 214 99 167 99 q 299 117 275 99 q 324 167 324 136 q 270 233 324 214 q 89 251 217 251 q 97 328 93 288 q 105 408 101 368 q 111 483 108 447 q 117 547 114 519 l 431 547 l 431 440 l 217 440 q 213 394 214 419 q 207 344 211 368 q 397 294 340 340 q 453 169 453 249 z "},"₆":{"ha":504,"x_min":49,"x_max":463,"o":"m 253 254 q 207 249 229 254 q 167 238 185 244 q 185 130 164 168 q 264 92 207 92 q 326 119 307 92 q 344 174 344 146 q 323 234 344 214 q 253 254 301 254 m 179 328 q 275 344 222 344 q 362 331 326 344 q 419 295 397 318 q 452 242 442 272 q 463 176 463 211 q 451 108 463 142 q 414 49 439 75 q 351 6 389 22 q 263 -10 314 -10 q 103 51 157 -10 q 49 224 49 113 q 74 360 49 300 q 148 463 100 421 q 264 526 196 504 q 418 549 332 549 l 425 444 q 266 413 329 442 q 179 328 203 383 z "},"₇":{"ha":504,"x_min":46,"x_max":458,"o":"m 131 1 q 194 242 146 129 q 307 435 243 356 l 46 435 l 46 547 l 458 547 l 458 450 q 397 372 429 419 q 338 264 365 324 q 289 137 310 204 q 261 1 268 69 l 131 1 l 131 1 z "},"₈":{"ha":504,"x_min":38,"x_max":465,"o":"m 465 151 q 414 35 465 81 q 250 -10 363 -10 q 145 6 186 -10 q 80 44 104 21 q 47 94 56 67 q 38 144 38 121 q 63 222 38 189 q 122 276 88 254 q 69 332 86 303 q 51 401 51 361 q 65 460 51 432 q 103 511 78 489 q 165 546 128 533 q 251 558 203 558 q 345 544 307 558 q 406 509 383 531 q 440 461 429 488 q 450 410 450 435 q 429 339 450 371 q 375 286 408 307 q 445 227 426 258 q 465 151 464 196 m 160 150 q 179 108 160 129 q 251 86 199 86 q 322 106 301 86 q 343 150 343 125 q 309 207 343 186 q 215 240 275 228 q 175 201 190 222 q 160 150 160 179 m 332 406 q 314 444 332 424 q 251 464 296 464 q 190 444 208 464 q 172 404 172 424 q 195 356 172 379 q 274 318 218 332 q 317 356 301 336 q 332 406 332 376 z "},"₉":{"ha":504,"x_min":42,"x_max":457,"o":"m 253 297 q 339 311 300 297 q 319 420 342 382 q 243 458 297 458 q 180 432 199 458 q 161 378 161 406 q 253 297 161 297 m 235 204 q 146 218 182 204 q 86 255 110 232 q 52 309 63 278 q 42 375 42 340 q 53 441 42 408 q 90 499 65 474 q 153 542 115 525 q 242 558 190 558 q 403 497 349 558 q 457 325 457 435 q 363 86 457 172 q 81 0 269 0 l 76 104 q 326 221 283 110 q 282 208 306 213 q 235 204 258 204 z "},"ℓ":{"ha":657,"x_min":4,"x_max":629,"o":"m 629 65 q 526 2 585 25 q 393 -21 468 -21 q 281 -3 328 -21 q 204 47 235 15 q 158 125 174 79 q 139 228 143 171 l 63 174 l 4 260 q 72 310 39 286 q 138 360 106 335 l 138 728 q 157 890 138 824 q 210 999 176 957 q 288 1059 243 1040 q 386 1078 333 1078 q 484 1056 444 1078 q 548 1000 524 1035 q 583 920 572 965 q 593 829 593 875 q 513 572 593 692 q 297 335 433 451 l 297 282 q 425 124 297 124 q 501 141 467 124 q 561 181 535 158 l 629 65 m 297 485 q 426 651 378 564 q 474 832 474 739 q 457 917 474 882 q 393 953 440 953 q 357 944 374 953 q 326 911 340 935 q 305 847 313 888 q 297 742 297 806 l 297 485 z "},"℮":{"ha":1300,"x_min":93,"x_max":1207,"o":"m 304 468 q 297 463 297 468 l 297 189 q 310 158 297 171 q 463 49 376 88 q 650 10 549 10 q 851 55 760 10 q 1010 175 943 100 l 1089 175 q 1005 95 1053 131 q 900 35 957 60 q 779 -4 843 10 q 649 -18 715 -18 q 432 22 533 -18 q 256 128 331 61 q 137 287 181 196 q 93 482 93 378 q 137 677 93 586 q 256 836 181 768 q 432 944 331 904 q 649 983 533 983 q 866 944 764 983 q 1044 836 968 904 q 1163 677 1119 768 q 1207 482 1207 586 l 1207 468 l 304 468 m 1001 778 q 989 811 1001 796 q 836 915 922 878 q 650 953 750 953 q 463 913 550 953 q 311 806 376 872 q 301 791 304 800 q 297 772 297 782 l 297 504 q 304 494 297 494 l 996 494 q 1001 504 1001 494 l 1001 778 z "},"⅓":{"ha":1219,"x_min":50,"x_max":1154,"o":"m 906 963 l 388 0 l 231 0 l 750 963 l 906 963 m 50 860 q 158 910 106 881 q 250 974 211 939 l 344 974 l 344 428 l 217 428 l 217 819 q 154 788 189 803 q 85 763 119 774 l 50 860 l 50 860 m 919 99 q 1005 117 982 99 q 1028 165 1028 136 q 992 221 1028 204 q 903 238 957 238 l 861 238 l 861 335 l 907 335 q 974 349 943 335 q 1004 396 1004 363 q 928 450 1004 450 q 860 438 892 450 q 803 414 829 426 l 758 507 q 836 542 786 526 q 935 558 886 558 q 1024 547 988 558 q 1084 514 1061 535 q 1117 465 1107 493 q 1126 407 1126 438 q 1058 299 1126 343 q 1130 244 1106 279 q 1154 164 1154 210 q 1142 96 1154 128 q 1101 40 1129 64 q 1029 3 1074 17 q 921 -10 985 -10 q 828 1 876 -10 q 750 25 779 11 l 776 129 q 849 106 817 114 q 919 99 882 99 z "},"⅔":{"ha":1219,"x_min":35,"x_max":1154,"o":"m 944 963 l 426 0 l 269 0 l 789 963 l 944 963 m 425 822 q 415 768 425 793 q 385 718 404 743 q 337 667 365 693 q 271 607 308 640 q 231 569 250 589 q 206 535 213 550 l 443 535 l 443 428 l 58 428 q 58 476 57 454 q 102 592 64 543 q 200 690 140 640 q 268 756 242 726 q 294 814 294 785 q 277 856 294 842 q 228 871 260 871 q 149 852 183 871 q 96 818 115 833 l 35 907 q 116 960 64 935 q 231 985 168 985 q 379 941 333 985 q 425 822 425 897 m 919 99 q 1005 117 982 99 q 1028 165 1028 136 q 992 221 1028 204 q 903 238 957 238 l 861 238 l 861 335 l 907 335 q 974 349 943 335 q 1004 396 1004 363 q 928 450 1004 450 q 860 438 892 450 q 803 414 829 426 l 758 507 q 836 542 786 526 q 935 558 886 558 q 1024 547 988 558 q 1084 514 1061 535 q 1117 465 1107 493 q 1126 407 1126 438 q 1058 299 1126 343 q 1130 244 1106 279 q 1154 164 1154 210 q 1142 96 1154 128 q 1101 40 1129 64 q 1029 3 1074 17 q 921 -10 985 -10 q 828 1 876 -10 q 750 25 779 11 l 776 129 q 849 106 817 114 q 919 99 882 99 z "},"⅛":{"ha":1219,"x_min":50,"x_max":1181,"o":"m 910 963 l 392 0 l 235 0 l 754 963 l 910 963 m 50 860 q 158 910 106 881 q 250 974 211 939 l 344 974 l 344 428 l 217 428 l 217 819 q 154 788 189 803 q 85 763 119 774 l 50 860 l 50 860 m 1181 151 q 1129 35 1181 81 q 965 -10 1078 -10 q 860 6 901 -10 q 795 44 819 21 q 762 94 771 67 q 753 144 753 121 q 778 222 753 189 q 838 276 803 254 q 784 332 801 303 q 767 401 767 361 q 780 460 767 432 q 818 511 793 489 q 881 546 843 533 q 967 558 918 558 q 1060 544 1022 558 q 1122 509 1099 531 q 1155 461 1144 488 q 1165 410 1165 435 q 1144 339 1165 371 q 1090 286 1124 307 q 1160 227 1142 258 q 1181 151 1179 196 m 875 150 q 894 108 875 129 q 967 86 914 86 q 1038 106 1017 86 q 1058 150 1058 125 q 1024 207 1058 186 q 931 240 990 228 q 890 201 906 222 q 875 150 875 179 m 1047 406 q 1029 444 1047 424 q 967 464 1011 464 q 906 444 924 464 q 888 404 888 424 q 910 356 888 379 q 989 318 933 332 q 1032 356 1017 336 q 1047 406 1047 376 z "},"⅜":{"ha":1219,"x_min":40,"x_max":1181,"o":"m 939 963 l 421 0 l 264 0 l 783 963 l 939 963 m 1181 151 q 1129 35 1181 81 q 965 -10 1078 -10 q 860 6 901 -10 q 795 44 819 21 q 762 94 771 67 q 753 144 753 121 q 778 222 753 189 q 838 276 803 254 q 784 332 801 303 q 767 401 767 361 q 780 460 767 432 q 818 511 793 489 q 881 546 843 533 q 967 558 918 558 q 1060 544 1022 558 q 1122 509 1099 531 q 1155 461 1144 488 q 1165 410 1165 435 q 1144 339 1165 371 q 1090 286 1124 307 q 1160 227 1142 258 q 1181 151 1179 196 m 875 150 q 894 108 875 129 q 967 86 914 86 q 1038 106 1017 86 q 1058 150 1058 125 q 1024 207 1058 186 q 931 240 990 228 q 890 201 906 222 q 875 150 875 179 m 1047 406 q 1029 444 1047 424 q 967 464 1011 464 q 906 444 924 464 q 888 404 888 424 q 910 356 888 379 q 989 318 933 332 q 1032 356 1017 336 q 1047 406 1047 376 m 210 525 q 295 544 272 525 q 318 592 318 563 q 283 647 318 631 q 193 664 247 664 l 151 664 l 151 761 l 197 761 q 264 775 233 761 q 294 822 294 789 q 218 876 294 876 q 151 865 182 876 q 93 840 119 853 l 49 933 q 126 969 76 953 q 225 985 176 985 q 315 973 278 985 q 374 940 351 961 q 407 892 397 919 q 417 833 417 864 q 349 725 417 769 q 420 671 396 706 q 444 590 444 636 q 432 522 444 554 q 392 467 419 490 q 319 430 364 443 q 211 417 275 417 q 118 427 167 417 q 40 451 69 438 l 67 556 q 140 533 107 540 q 210 525 172 525 z "},"⅝":{"ha":1219,"x_min":49,"x_max":1181,"o":"m 939 963 l 421 0 l 264 0 l 783 963 l 939 963 m 450 596 q 437 524 450 557 q 396 467 424 492 q 324 430 368 443 q 219 417 281 417 q 124 428 172 417 q 49 450 75 439 l 75 554 q 131 534 99 543 q 211 525 164 525 q 297 544 272 525 q 321 593 321 563 q 267 659 321 640 q 86 678 214 678 q 94 754 90 714 q 102 834 99 794 q 108 910 106 874 q 114 974 111 946 l 428 974 l 428 867 l 214 867 q 210 820 211 846 q 204 771 208 794 q 394 721 338 767 q 450 596 450 675 m 1181 151 q 1129 35 1181 81 q 965 -10 1078 -10 q 860 6 901 -10 q 795 44 819 21 q 762 94 771 67 q 753 144 753 121 q 778 222 753 189 q 838 276 803 254 q 784 332 801 303 q 767 401 767 361 q 780 460 767 432 q 818 511 793 489 q 881 546 843 533 q 967 558 918 558 q 1060 544 1022 558 q 1122 509 1099 531 q 1155 461 1144 488 q 1165 410 1165 435 q 1144 339 1165 371 q 1090 286 1124 307 q 1160 227 1142 258 q 1181 151 1179 196 m 875 150 q 894 108 875 129 q 967 86 914 86 q 1038 106 1017 86 q 1058 150 1058 125 q 1024 207 1058 186 q 931 240 990 228 q 890 201 906 222 q 875 150 875 179 m 1047 406 q 1029 444 1047 424 q 967 464 1011 464 q 906 444 924 464 q 888 404 888 424 q 910 356 888 379 q 989 318 933 332 q 1032 356 1017 336 q 1047 406 1047 376 z "},"⅞":{"ha":1219,"x_min":39,"x_max":1181,"o":"m 885 963 l 367 0 l 210 0 l 729 963 l 885 963 m 1181 151 q 1129 35 1181 81 q 965 -10 1078 -10 q 860 6 901 -10 q 795 44 819 21 q 762 94 771 67 q 753 144 753 121 q 778 222 753 189 q 838 276 803 254 q 784 332 801 303 q 767 401 767 361 q 780 460 767 432 q 818 511 793 489 q 881 546 843 533 q 967 558 918 558 q 1060 544 1022 558 q 1122 509 1099 531 q 1155 461 1144 488 q 1165 410 1165 435 q 1144 339 1165 371 q 1090 286 1124 307 q 1160 227 1142 258 q 1181 151 1179 196 m 875 150 q 894 108 875 129 q 967 86 914 86 q 1038 106 1017 86 q 1058 150 1058 125 q 1024 207 1058 186 q 931 240 990 228 q 890 201 906 222 q 875 150 875 179 m 1047 406 q 1029 444 1047 424 q 967 464 1011 464 q 906 444 924 464 q 888 404 888 424 q 910 356 888 379 q 989 318 933 332 q 1032 356 1017 336 q 1047 406 1047 376 m 124 428 q 188 669 139 556 q 300 861 236 782 l 39 861 l 39 974 l 451 974 l 451 876 q 390 798 422 846 q 331 690 358 750 q 282 563 303 631 q 254 428 261 496 l 124 428 l 124 428 z "},"⅕":{"ha":1219,"x_min":50,"x_max":1164,"o":"m 917 963 l 399 0 l 242 0 l 761 963 l 917 963 m 50 860 q 158 910 106 881 q 250 974 211 939 l 344 974 l 344 428 l 217 428 l 217 819 q 154 788 189 803 q 85 763 119 774 l 50 860 l 50 860 m 1164 169 q 1151 98 1164 131 q 1110 41 1138 65 q 1038 3 1082 17 q 933 -10 994 -10 q 838 1 886 -10 q 763 24 789 13 l 789 128 q 845 108 813 117 q 925 99 878 99 q 1010 117 986 99 q 1035 167 1035 136 q 981 233 1035 214 q 800 251 928 251 q 808 328 804 288 q 816 408 813 368 q 822 483 819 447 q 828 547 825 519 l 1142 547 l 1142 440 l 928 440 q 924 394 925 419 q 918 344 922 368 q 1108 294 1051 340 q 1164 169 1164 249 z "},"⅖":{"ha":1219,"x_min":35,"x_max":1164,"o":"m 963 963 l 444 0 l 288 0 l 807 963 l 963 963 m 425 822 q 415 768 425 793 q 385 718 404 743 q 337 667 365 693 q 271 607 308 640 q 231 569 250 589 q 206 535 213 550 l 443 535 l 443 428 l 58 428 q 58 476 57 454 q 102 592 64 543 q 200 690 140 640 q 268 756 242 726 q 294 814 294 785 q 277 856 294 842 q 228 871 260 871 q 149 852 183 871 q 96 818 115 833 l 35 907 q 116 960 64 935 q 231 985 168 985 q 379 941 333 985 q 425 822 425 897 m 1164 169 q 1151 98 1164 131 q 1110 41 1138 65 q 1038 3 1082 17 q 933 -10 994 -10 q 838 1 886 -10 q 763 24 789 13 l 789 128 q 845 108 813 117 q 925 99 878 99 q 1010 117 986 99 q 1035 167 1035 136 q 981 233 1035 214 q 800 251 928 251 q 808 328 804 288 q 816 408 813 368 q 822 483 819 447 q 828 547 825 519 l 1142 547 l 1142 440 l 928 440 q 924 394 925 419 q 918 344 922 368 q 1108 294 1051 340 q 1164 169 1164 249 z "},"⅗":{"ha":1219,"x_min":40,"x_max":1164,"o":"m 940 963 l 422 0 l 265 0 l 785 963 l 940 963 m 1164 169 q 1151 98 1164 131 q 1110 41 1138 65 q 1038 3 1082 17 q 933 -10 994 -10 q 838 1 886 -10 q 763 24 789 13 l 789 128 q 845 108 813 117 q 925 99 878 99 q 1010 117 986 99 q 1035 167 1035 136 q 981 233 1035 214 q 800 251 928 251 q 808 328 804 288 q 816 408 813 368 q 822 483 819 447 q 828 547 825 519 l 1142 547 l 1142 440 l 928 440 q 924 394 925 419 q 918 344 922 368 q 1108 294 1051 340 q 1164 169 1164 249 m 210 525 q 295 544 272 525 q 318 592 318 563 q 283 647 318 631 q 193 664 247 664 l 151 664 l 151 761 l 197 761 q 264 775 233 761 q 294 822 294 789 q 218 876 294 876 q 151 865 182 876 q 93 840 119 853 l 49 933 q 126 969 76 953 q 225 985 176 985 q 315 973 278 985 q 374 940 351 961 q 407 892 397 919 q 417 833 417 864 q 349 725 417 769 q 420 671 396 706 q 444 590 444 636 q 432 522 444 554 q 392 467 419 490 q 319 430 364 443 q 211 417 275 417 q 118 427 167 417 q 40 451 69 438 l 67 556 q 140 533 107 540 q 210 525 172 525 z "},"⅘":{"ha":1219,"x_min":32,"x_max":1164,"o":"m 957 963 l 439 0 l 282 0 l 801 963 l 957 963 m 1164 169 q 1151 98 1164 131 q 1110 41 1138 65 q 1038 3 1082 17 q 933 -10 994 -10 q 838 1 886 -10 q 763 24 789 13 l 789 128 q 845 108 813 117 q 925 99 878 99 q 1010 117 986 99 q 1035 167 1035 136 q 981 233 1035 214 q 800 251 928 251 q 808 328 804 288 q 816 408 813 368 q 822 483 819 447 q 828 547 825 519 l 1142 547 l 1142 440 l 928 440 q 924 394 925 419 q 918 344 922 368 q 1108 294 1051 340 q 1164 169 1164 249 m 296 842 q 222 751 260 801 q 157 650 185 701 l 296 650 l 296 842 m 408 650 l 475 650 l 475 551 l 408 551 l 408 428 l 296 428 l 296 551 l 32 551 l 32 633 q 85 719 56 675 q 149 808 115 764 q 220 895 183 853 q 294 974 257 938 l 408 974 l 408 650 z "},"⅙":{"ha":1219,"x_min":50,"x_max":1178,"o":"m 935 963 l 417 0 l 260 0 l 779 963 l 935 963 m 50 860 q 158 910 106 881 q 250 974 211 939 l 344 974 l 344 428 l 217 428 l 217 819 q 154 788 189 803 q 85 763 119 774 l 50 860 l 50 860 m 968 254 q 922 249 944 254 q 882 238 900 244 q 901 130 879 168 q 979 92 922 92 q 1041 119 1022 92 q 1060 174 1060 146 q 1038 234 1060 214 q 968 254 1017 254 m 894 328 q 990 344 938 344 q 1077 331 1042 344 q 1135 295 1113 318 q 1167 242 1157 272 q 1178 176 1178 211 q 1166 108 1178 142 q 1129 49 1154 75 q 1067 6 1104 22 q 978 -10 1029 -10 q 818 51 872 -10 q 764 224 764 113 q 790 360 764 300 q 863 463 815 421 q 979 526 911 504 q 1133 549 1047 549 l 1140 444 q 981 413 1044 442 q 894 328 918 383 z "},"⅚":{"ha":1219,"x_min":49,"x_max":1178,"o":"m 960 963 l 442 0 l 285 0 l 804 963 l 960 963 m 968 254 q 922 249 944 254 q 882 238 900 244 q 901 130 879 168 q 979 92 922 92 q 1041 119 1022 92 q 1060 174 1060 146 q 1038 234 1060 214 q 968 254 1017 254 m 894 328 q 990 344 938 344 q 1077 331 1042 344 q 1135 295 1113 318 q 1167 242 1157 272 q 1178 176 1178 211 q 1166 108 1178 142 q 1129 49 1154 75 q 1067 6 1104 22 q 978 -10 1029 -10 q 818 51 872 -10 q 764 224 764 113 q 790 360 764 300 q 863 463 815 421 q 979 526 911 504 q 1133 549 1047 549 l 1140 444 q 981 413 1044 442 q 894 328 918 383 m 450 596 q 437 524 450 557 q 396 467 424 492 q 324 430 368 443 q 219 417 281 417 q 124 428 172 417 q 49 450 75 439 l 75 554 q 131 534 99 543 q 211 525 164 525 q 297 544 272 525 q 321 593 321 563 q 267 659 321 640 q 86 678 214 678 q 94 754 90 714 q 102 834 99 794 q 108 910 106 874 q 114 974 111 946 l 428 974 l 428 867 l 214 867 q 210 820 211 846 q 204 771 208 794 q 394 721 338 767 q 450 596 450 675 z "},"":{"ha":1219,"x_min":50,"x_max":1175,"o":"m 897 963 l 379 0 l 222 0 l 742 963 l 897 963 m 50 860 q 158 910 106 881 q 250 974 211 939 l 344 974 l 344 428 l 217 428 l 217 819 q 154 788 189 803 q 85 763 119 774 l 50 860 l 50 860 m 847 1 q 911 242 863 129 q 1024 435 960 356 l 763 435 l 763 547 l 1175 547 l 1175 450 q 1114 372 1146 419 q 1054 264 1082 324 q 1006 137 1026 204 q 978 1 985 69 l 847 1 l 847 1 z "},"":{"ha":1219,"x_min":35,"x_max":1175,"o":"m 939 963 l 421 0 l 264 0 l 783 963 l 939 963 m 425 822 q 415 768 425 793 q 385 718 404 743 q 337 667 365 693 q 271 607 308 640 q 231 569 250 589 q 206 535 213 550 l 443 535 l 443 428 l 58 428 q 58 476 57 454 q 102 592 64 543 q 200 690 140 640 q 268 756 242 726 q 294 814 294 785 q 277 856 294 842 q 228 871 260 871 q 149 852 183 871 q 96 818 115 833 l 35 907 q 116 960 64 935 q 231 985 168 985 q 379 941 333 985 q 425 822 425 897 m 847 1 q 911 242 863 129 q 1024 435 960 356 l 763 435 l 763 547 l 1175 547 l 1175 450 q 1114 372 1146 419 q 1054 264 1082 324 q 1006 137 1026 204 q 978 1 985 69 l 847 1 l 847 1 z "},"":{"ha":1219,"x_min":40,"x_max":1175,"o":"m 922 963 l 404 0 l 247 0 l 767 963 l 922 963 m 847 1 q 911 242 863 129 q 1024 435 960 356 l 763 435 l 763 547 l 1175 547 l 1175 450 q 1114 372 1146 419 q 1054 264 1082 324 q 1006 137 1026 204 q 978 1 985 69 l 847 1 l 847 1 m 210 525 q 295 544 272 525 q 318 592 318 563 q 283 647 318 631 q 193 664 247 664 l 151 664 l 151 761 l 197 761 q 264 775 233 761 q 294 822 294 789 q 218 876 294 876 q 151 865 182 876 q 93 840 119 853 l 49 933 q 126 969 76 953 q 225 985 176 985 q 315 973 278 985 q 374 940 351 961 q 407 892 397 919 q 417 833 417 864 q 349 725 417 769 q 420 671 396 706 q 444 590 444 636 q 432 522 444 554 q 392 467 419 490 q 319 430 364 443 q 211 417 275 417 q 118 427 167 417 q 40 451 69 438 l 67 556 q 140 533 107 540 q 210 525 172 525 z "},"":{"ha":1219,"x_min":32,"x_max":1175,"o":"m 932 963 l 414 0 l 257 0 l 776 963 l 932 963 m 296 842 q 222 751 260 801 q 157 650 185 701 l 296 650 l 296 842 m 408 650 l 475 650 l 475 551 l 408 551 l 408 428 l 296 428 l 296 551 l 32 551 l 32 633 q 85 719 56 675 q 149 808 115 764 q 220 895 183 853 q 294 974 257 938 l 408 974 l 408 650 m 847 1 q 911 242 863 129 q 1024 435 960 356 l 763 435 l 763 547 l 1175 547 l 1175 450 q 1114 372 1146 419 q 1054 264 1082 324 q 1006 137 1026 204 q 978 1 985 69 l 847 1 l 847 1 z "},"":{"ha":1219,"x_min":49,"x_max":1175,"o":"m 922 963 l 404 0 l 247 0 l 767 963 l 922 963 m 450 596 q 437 524 450 557 q 396 467 424 492 q 324 430 368 443 q 219 417 281 417 q 124 428 172 417 q 49 450 75 439 l 75 554 q 131 534 99 543 q 211 525 164 525 q 297 544 272 525 q 321 593 321 563 q 267 659 321 640 q 86 678 214 678 q 94 754 90 714 q 102 834 99 794 q 108 910 106 874 q 114 974 111 946 l 428 974 l 428 867 l 214 867 q 210 820 211 846 q 204 771 208 794 q 394 721 338 767 q 450 596 450 675 m 847 1 q 911 242 863 129 q 1024 435 960 356 l 763 435 l 763 547 l 1175 547 l 1175 450 q 1114 372 1146 419 q 1054 264 1082 324 q 1006 137 1026 204 q 978 1 985 69 l 847 1 l 847 1 z "},"":{"ha":1219,"x_min":49,"x_max":1175,"o":"m 924 963 l 406 0 l 249 0 l 768 963 l 924 963 m 253 681 q 207 676 229 681 q 167 664 185 671 q 185 556 164 594 q 264 518 207 518 q 326 545 307 518 q 344 600 344 572 q 323 660 344 640 q 253 681 301 681 m 179 754 q 275 771 222 771 q 362 758 326 771 q 419 722 397 744 q 452 668 442 699 q 463 603 463 638 q 451 535 463 568 q 414 475 439 501 q 351 433 389 449 q 263 417 314 417 q 103 478 157 417 q 49 650 49 539 q 74 787 49 726 q 148 889 100 847 q 264 953 196 931 q 418 975 332 975 l 425 871 q 266 839 329 868 q 179 754 203 810 m 847 1 q 911 242 863 129 q 1024 435 960 356 l 763 435 l 763 547 l 1175 547 l 1175 450 q 1114 372 1146 419 q 1054 264 1082 324 q 1006 137 1026 204 q 978 1 985 69 l 847 1 l 847 1 z "},"":{"ha":1219,"x_min":50,"x_max":1174,"o":"m 910 963 l 392 0 l 235 0 l 754 963 l 910 963 m 50 860 q 158 910 106 881 q 250 974 211 939 l 344 974 l 344 428 l 217 428 l 217 819 q 154 788 189 803 q 85 763 119 774 l 50 860 l 50 860 m 969 297 q 1056 311 1017 297 q 1036 420 1058 382 q 960 458 1014 458 q 897 432 915 458 q 878 378 878 406 q 969 297 878 297 m 951 204 q 863 218 899 204 q 803 255 826 232 q 769 309 779 278 q 758 375 758 340 q 770 441 758 408 q 807 499 782 474 q 869 542 832 525 q 958 558 907 558 q 1119 497 1065 558 q 1174 325 1174 435 q 1080 86 1174 172 q 797 0 986 0 l 793 104 q 1043 221 1000 110 q 999 208 1022 213 q 951 204 975 204 z "},"":{"ha":1219,"x_min":35,"x_max":1174,"o":"m 954 963 l 436 0 l 279 0 l 799 963 l 954 963 m 425 822 q 415 768 425 793 q 385 718 404 743 q 337 667 365 693 q 271 607 308 640 q 231 569 250 589 q 206 535 213 550 l 443 535 l 443 428 l 58 428 q 58 476 57 454 q 102 592 64 543 q 200 690 140 640 q 268 756 242 726 q 294 814 294 785 q 277 856 294 842 q 228 871 260 871 q 149 852 183 871 q 96 818 115 833 l 35 907 q 116 960 64 935 q 231 985 168 985 q 379 941 333 985 q 425 822 425 897 m 969 297 q 1056 311 1017 297 q 1036 420 1058 382 q 960 458 1014 458 q 897 432 915 458 q 878 378 878 406 q 969 297 878 297 m 951 204 q 863 218 899 204 q 803 255 826 232 q 769 309 779 278 q 758 375 758 340 q 770 441 758 408 q 807 499 782 474 q 869 542 832 525 q 958 558 907 558 q 1119 497 1065 558 q 1174 325 1174 435 q 1080 86 1174 172 q 797 0 986 0 l 793 104 q 1043 221 1000 110 q 999 208 1022 213 q 951 204 975 204 z "},"":{"ha":1219,"x_min":32,"x_max":1174,"o":"m 951 963 l 433 0 l 276 0 l 796 963 l 951 963 m 296 842 q 222 751 260 801 q 157 650 185 701 l 296 650 l 296 842 m 408 650 l 475 650 l 475 551 l 408 551 l 408 428 l 296 428 l 296 551 l 32 551 l 32 633 q 85 719 56 675 q 149 808 115 764 q 220 895 183 853 q 294 974 257 938 l 408 974 l 408 650 m 969 297 q 1056 311 1017 297 q 1036 420 1058 382 q 960 458 1014 458 q 897 432 915 458 q 878 378 878 406 q 969 297 878 297 m 951 204 q 863 218 899 204 q 803 255 826 232 q 769 309 779 278 q 758 375 758 340 q 770 441 758 408 q 807 499 782 474 q 869 542 832 525 q 958 558 907 558 q 1119 497 1065 558 q 1174 325 1174 435 q 1080 86 1174 172 q 797 0 986 0 l 793 104 q 1043 221 1000 110 q 999 208 1022 213 q 951 204 975 204 z "},"":{"ha":1219,"x_min":49,"x_max":1174,"o":"m 939 963 l 421 0 l 264 0 l 783 963 l 939 963 m 450 596 q 437 524 450 557 q 396 467 424 492 q 324 430 368 443 q 219 417 281 417 q 124 428 172 417 q 49 450 75 439 l 75 554 q 131 534 99 543 q 211 525 164 525 q 297 544 272 525 q 321 593 321 563 q 267 659 321 640 q 86 678 214 678 q 94 754 90 714 q 102 834 99 794 q 108 910 106 874 q 114 974 111 946 l 428 974 l 428 867 l 214 867 q 210 820 211 846 q 204 771 208 794 q 394 721 338 767 q 450 596 450 675 m 969 297 q 1056 311 1017 297 q 1036 420 1058 382 q 960 458 1014 458 q 897 432 915 458 q 878 378 878 406 q 969 297 878 297 m 951 204 q 863 218 899 204 q 803 255 826 232 q 769 309 779 278 q 758 375 758 340 q 770 441 758 408 q 807 499 782 474 q 869 542 832 525 q 958 558 907 558 q 1119 497 1065 558 q 1174 325 1174 435 q 1080 86 1174 172 q 797 0 986 0 l 793 104 q 1043 221 1000 110 q 999 208 1022 213 q 951 204 975 204 z "}}}
